if (_typeface_js && _typeface_js.loadFace) _typeface_js.loadFace({"glyphs":{"0":{"ha":540,"x_min":47,"x_max":493,"o":"m 47 738 l 47 236 q 102 57 47 124 q 269 -10 157 -10 q 438 57 382 -10 q 493 236 493 124 l 493 738 q 438 916 493 850 q 269 982 382 982 q 102 916 157 982 q 47 738 47 850 m 154 229 l 154 743 q 183 847 154 810 q 269 885 211 885 q 357 847 329 885 q 385 743 385 810 l 385 229 q 357 126 385 163 q 269 89 329 89 q 183 126 211 89 q 154 229 154 163 "},"1":{"ha":469,"x_min":119,"x_max":361,"o":"m 254 796 l 254 0 l 361 0 l 361 972 l 286 972 q 264 924 276 947 q 233 884 251 901 q 186 856 214 867 q 119 843 158 844 l 119 754 q 192 768 158 757 q 254 796 226 779 "},"2":{"ha":538,"x_min":56,"x_max":493,"o":"m 274 982 q 108 915 161 982 q 56 735 56 847 l 56 656 l 157 656 l 157 742 q 184 846 157 807 q 271 885 211 885 q 358 846 332 885 q 385 732 385 807 q 360 611 385 664 q 299 513 336 558 q 220 423 263 467 q 141 330 178 379 q 80 221 104 281 q 56 83 56 161 l 56 0 l 482 0 l 482 99 l 163 99 l 163 114 q 188 217 163 169 q 249 310 213 265 q 328 399 286 354 q 408 494 371 443 q 469 603 444 544 q 493 736 493 663 q 440 915 493 849 q 274 982 388 982 "},"3":{"ha":538,"x_min":50,"x_max":488,"o":"m 268 982 q 103 916 156 982 q 50 738 50 850 l 50 693 l 151 693 l 151 743 q 179 847 151 810 q 265 885 207 885 q 352 847 325 885 q 379 733 379 808 l 379 689 q 348 592 379 625 q 263 556 317 558 l 199 556 l 199 458 l 257 458 q 379 314 379 454 l 379 239 q 352 126 379 164 q 265 89 325 89 q 179 126 207 89 q 151 229 151 163 l 151 303 l 50 303 l 50 236 q 103 58 50 125 q 268 -10 157 -10 q 434 57 381 -10 q 488 236 488 124 l 488 311 q 460 437 488 385 q 369 513 432 489 q 458 586 428 535 q 488 713 488 638 l 488 738 q 434 916 488 850 q 268 982 381 982 "},"4":{"ha":556,"x_min":31,"x_max":528,"o":"m 450 196 l 528 196 l 528 294 l 450 294 l 450 972 l 332 972 l 31 294 l 31 196 l 344 196 l 344 0 l 450 0 l 450 196 m 131 294 l 344 769 l 344 294 l 131 294 "},"5":{"ha":538,"x_min":51,"x_max":489,"o":"m 164 576 l 179 875 l 465 875 l 465 972 l 82 972 l 56 432 l 157 432 l 157 454 q 193 533 164 507 q 267 558 222 558 q 353 522 325 558 q 381 418 381 485 l 381 229 q 353 126 381 163 q 267 89 325 89 q 181 126 208 89 q 153 229 153 163 l 153 301 l 51 301 l 51 236 q 105 58 51 125 q 269 -10 158 -10 q 435 58 381 -10 q 489 236 489 125 l 489 426 q 446 594 489 531 q 308 657 403 657 q 164 576 211 657 "},"6":{"ha":540,"x_min":49,"x_max":494,"o":"m 272 982 q 102 915 156 982 q 49 732 49 849 l 49 236 q 104 57 49 124 q 272 -10 160 -10 q 440 57 385 -10 q 494 236 494 124 l 494 383 q 451 551 494 489 q 314 614 408 614 q 216 587 256 614 q 157 510 176 560 l 157 728 q 185 846 157 807 q 275 885 213 885 q 363 849 335 885 q 390 746 390 813 l 390 721 l 492 721 l 492 739 q 438 917 492 851 q 272 982 385 982 m 272 515 q 359 478 331 515 q 388 375 388 442 l 388 229 q 359 126 388 163 q 272 89 331 89 q 185 126 213 89 q 157 229 157 163 l 157 375 q 185 478 157 442 q 272 515 213 515 "},"7":{"ha":538,"x_min":49,"x_max":489,"o":"m 379 875 l 131 0 l 239 0 l 489 878 l 489 972 l 49 972 l 49 875 l 379 875 "},"8":{"ha":544,"x_min":43,"x_max":501,"o":"m 272 982 q 101 918 160 982 q 43 742 43 854 l 43 711 q 69 585 43 636 q 156 511 96 535 q 68 433 93 486 q 43 306 43 381 l 43 233 q 101 56 43 121 q 272 -10 158 -10 q 444 56 386 -10 q 501 233 501 121 l 501 306 q 476 433 501 379 q 390 511 451 488 q 475 585 449 533 q 501 711 501 636 l 501 742 q 443 918 501 854 q 272 982 385 982 m 272 885 q 363 849 331 885 q 394 739 394 814 l 394 692 q 363 588 394 621 q 272 556 331 556 q 182 588 214 556 q 150 692 150 621 l 150 739 q 182 849 150 814 q 272 885 214 885 m 272 458 q 394 318 394 458 l 394 236 q 362 125 393 161 q 272 89 331 89 q 182 125 214 89 q 150 236 150 161 l 150 318 q 272 458 150 458 "},"9":{"ha":540,"x_min":46,"x_max":492,"o":"m 268 982 q 101 916 156 982 q 46 738 46 850 l 46 589 q 89 422 46 483 q 226 360 132 360 q 383 463 343 360 l 383 244 q 355 128 383 167 q 264 89 326 89 q 177 125 206 89 q 149 228 149 161 l 149 253 l 47 253 l 47 235 q 101 56 47 122 q 267 -10 154 -10 q 438 58 383 -10 q 492 242 492 126 l 492 738 q 436 916 492 850 q 268 982 381 982 m 268 883 q 356 847 328 883 q 383 743 383 810 l 383 597 q 356 494 383 531 q 268 457 328 457 q 181 494 210 457 q 153 597 153 531 l 153 743 q 181 847 153 810 q 268 883 210 883 "},"\u0000":{"ha":0,"x_min":0,"x_max":0,"o":""},"\r":{"ha":215,"x_min":0,"x_max":0,"o":""}," ":{"ha":215,"x_min":0,"x_max":0,"o":""},"Â":{"ha":586,"x_min":28,"x_max":557,"o":"m 218 1024 l 292 1106 l 365 1024 l 460 1024 l 340 1163 l 243 1163 l 124 1024 l 218 1024 m 165 196 l 411 196 l 449 0 l 557 0 l 371 972 l 214 972 l 28 0 l 128 0 l 165 196 m 179 289 l 286 850 l 396 289 l 179 289 "},"Ä":{"ha":586,"x_min":28,"x_max":557,"o":"m 253 1149 l 158 1149 l 158 1024 l 253 1024 l 253 1149 m 425 1149 l 331 1149 l 331 1024 l 425 1024 l 425 1149 m 165 196 l 411 196 l 449 0 l 557 0 l 371 972 l 214 972 l 28 0 l 128 0 l 165 196 m 179 289 l 286 850 l 396 289 l 179 289 "},"À":{"ha":586,"x_min":28,"x_max":557,"o":"m 264 1167 l 153 1167 l 282 1024 l 361 1024 l 264 1167 m 165 196 l 411 196 l 449 0 l 557 0 l 371 972 l 214 972 l 28 0 l 128 0 l 165 196 m 179 289 l 286 850 l 396 289 l 179 289 "},"Ā":{"ha":586,"x_min":28,"x_max":557,"o":"m 439 1119 l 144 1119 l 144 1042 l 439 1042 l 439 1119 m 165 196 l 411 196 l 449 0 l 557 0 l 371 972 l 214 972 l 28 0 l 128 0 l 165 196 m 179 289 l 286 850 l 396 289 l 179 289 "},"Ą":{"ha":586,"x_min":28,"x_max":575,"o":"m 518 0 l 557 0 l 371 972 l 214 972 l 28 0 l 128 0 l 165 196 l 411 196 l 451 -10 q 401 -62 419 -33 q 385 -121 383 -92 q 415 -180 386 -161 q 489 -199 443 -199 q 535 -195 515 -199 q 575 -182 554 -192 l 575 -125 q 551 -134 564 -131 q 519 -137 539 -137 q 485 -128 500 -137 q 468 -96 469 -118 q 480 -49 467 -76 q 518 0 493 -21 m 179 289 l 286 850 l 396 289 l 179 289 "},"Å":{"ha":586,"x_min":28,"x_max":557,"o":"m 292 1226 q 218 1197 247 1226 q 189 1125 189 1168 q 218 1052 189 1081 q 292 1024 247 1024 q 364 1052 335 1024 q 393 1125 393 1081 q 364 1197 393 1168 q 292 1226 335 1226 m 292 1175 q 327 1160 313 1175 q 342 1125 342 1146 q 327 1089 342 1103 q 292 1075 313 1075 q 255 1089 269 1075 q 240 1125 240 1103 q 255 1160 240 1146 q 292 1175 269 1175 m 165 196 l 411 196 l 449 0 l 557 0 l 371 972 l 214 972 l 28 0 l 128 0 l 165 196 m 179 289 l 286 850 l 396 289 l 179 289 "},"Ã":{"ha":586,"x_min":28,"x_max":557,"o":"m 224 1147 q 165 1128 192 1146 q 122 1067 139 1110 l 176 1029 q 201 1062 188 1053 q 235 1071 215 1071 q 265 1065 251 1071 q 294 1051 279 1058 q 325 1037 308 1043 q 363 1031 342 1031 q 419 1050 394 1031 q 461 1110 444 1069 l 407 1147 q 383 1116 396 1125 q 351 1106 369 1107 q 322 1112 336 1106 q 294 1126 308 1118 q 262 1141 279 1135 q 224 1147 244 1147 m 165 196 l 411 196 l 449 0 l 557 0 l 371 972 l 214 972 l 28 0 l 128 0 l 165 196 m 179 289 l 286 850 l 396 289 l 179 289 "},"Æ":{"ha":813,"x_min":22,"x_max":768,"o":"m 717 542 l 493 542 l 493 874 l 768 874 l 768 972 l 325 972 l 22 0 l 125 0 l 188 197 l 386 197 l 386 0 l 768 0 l 768 99 l 493 99 l 493 444 l 717 444 l 717 542 m 213 292 l 386 836 l 386 292 l 213 292 "},"Ǽ":{"ha":813,"x_min":22,"x_max":768,"o":"m 569 1172 l 463 1172 l 365 1029 l 440 1029 l 569 1172 m 717 542 l 493 542 l 493 874 l 768 874 l 768 972 l 325 972 l 22 0 l 125 0 l 188 197 l 386 197 l 386 0 l 768 0 l 768 99 l 493 99 l 493 444 l 717 444 l 717 542 m 213 292 l 386 836 l 386 292 l 213 292 "},"B":{"ha":544,"x_min":56,"x_max":501,"o":"m 274 972 l 56 972 l 56 0 l 279 0 q 447 59 393 0 q 501 228 501 118 l 501 310 q 472 444 501 390 q 371 518 442 499 q 460 585 435 538 q 485 711 485 633 l 485 757 q 436 919 485 865 q 274 972 388 972 m 247 560 l 164 560 l 164 874 l 271 874 q 353 842 329 874 q 378 746 378 811 l 378 689 q 345 586 378 613 q 247 560 313 560 m 279 99 l 164 99 l 164 461 l 258 461 q 362 430 329 461 q 394 317 394 399 l 394 231 q 279 99 394 99 "},"C":{"ha":528,"x_min":47,"x_max":485,"o":"m 265 982 q 169 965 210 982 q 101 915 128 947 q 60 838 74 883 q 47 738 47 793 l 47 235 q 101 57 47 124 q 265 -10 154 -10 q 431 57 378 -10 q 485 235 485 124 l 485 356 l 382 356 l 382 229 q 355 126 382 163 q 268 89 328 89 q 182 126 210 89 q 154 229 154 163 l 154 743 q 182 847 154 810 q 268 883 210 883 q 355 847 328 883 q 382 743 382 810 l 382 650 l 485 650 l 485 738 q 431 915 485 849 q 265 982 378 982 "},"Ć":{"ha":528,"x_min":47,"x_max":485,"o":"m 407 1174 l 299 1174 l 201 1031 l 278 1031 l 407 1174 m 265 982 q 169 965 210 982 q 101 915 128 947 q 60 838 74 883 q 47 738 47 793 l 47 235 q 101 57 47 124 q 265 -10 154 -10 q 431 57 378 -10 q 485 235 485 124 l 485 356 l 382 356 l 382 229 q 355 126 382 163 q 268 89 328 89 q 182 126 210 89 q 154 229 154 163 l 154 743 q 182 847 154 810 q 268 883 210 883 q 355 847 328 883 q 382 743 382 810 l 382 650 l 485 650 l 485 738 q 431 915 485 849 q 265 982 378 982 "},"Č":{"ha":528,"x_min":47,"x_max":485,"o":"m 196 1168 l 101 1168 l 221 1029 l 317 1029 l 438 1168 l 342 1168 l 268 1085 l 196 1168 m 265 982 q 169 965 210 982 q 101 915 128 947 q 60 838 74 883 q 47 738 47 793 l 47 235 q 101 57 47 124 q 265 -10 154 -10 q 431 57 378 -10 q 485 235 485 124 l 485 356 l 382 356 l 382 229 q 355 126 382 163 q 268 89 328 89 q 182 126 210 89 q 154 229 154 163 l 154 743 q 182 847 154 810 q 268 883 210 883 q 355 847 328 883 q 382 743 382 810 l 382 650 l 485 650 l 485 738 q 431 915 485 849 q 265 982 378 982 "},"Ç":{"ha":528,"x_min":47,"x_max":485,"o":"m 265 982 q 169 965 210 982 q 101 915 128 947 q 60 838 74 883 q 47 738 47 793 l 47 235 q 94 65 47 132 q 239 -8 140 -1 l 239 -78 l 251 -78 q 319 -119 319 -78 q 260 -164 319 -164 q 203 -124 203 -160 l 203 -114 l 132 -114 l 132 -125 q 165 -188 132 -165 q 260 -211 199 -211 q 357 -187 322 -211 q 392 -122 392 -164 q 365 -70 392 -89 q 289 -51 338 -51 l 289 -8 q 437 65 389 -1 q 485 235 485 131 l 485 356 l 382 356 l 382 229 q 355 126 382 163 q 268 89 328 89 q 182 126 210 89 q 154 229 154 163 l 154 743 q 182 847 154 810 q 268 883 210 883 q 355 847 328 883 q 382 743 382 810 l 382 650 l 485 650 l 485 738 q 431 915 485 849 q 265 982 378 982 "},"Ĉ":{"ha":528,"x_min":47,"x_max":485,"o":"m 194 1028 l 268 1110 l 342 1028 l 436 1028 l 315 1168 l 219 1168 l 100 1028 l 194 1028 m 265 982 q 169 965 210 982 q 101 915 128 947 q 60 838 74 883 q 47 738 47 793 l 47 235 q 101 57 47 124 q 265 -10 154 -10 q 431 57 378 -10 q 485 235 485 124 l 485 356 l 382 356 l 382 229 q 355 126 382 163 q 268 89 328 89 q 182 126 210 89 q 154 229 154 163 l 154 743 q 182 847 154 810 q 268 883 210 883 q 355 847 328 883 q 382 743 382 810 l 382 650 l 485 650 l 485 738 q 431 915 485 849 q 265 982 378 982 "},"Ċ":{"ha":528,"x_min":47,"x_max":485,"o":"m 313 1150 l 218 1150 l 218 1025 l 313 1025 l 313 1150 m 265 982 q 169 965 210 982 q 101 915 128 947 q 60 838 74 883 q 47 738 47 793 l 47 235 q 101 57 47 124 q 265 -10 154 -10 q 431 57 378 -10 q 485 235 485 124 l 485 356 l 382 356 l 382 229 q 355 126 382 163 q 268 89 328 89 q 182 126 210 89 q 154 229 154 163 l 154 743 q 182 847 154 810 q 268 883 210 883 q 355 847 328 883 q 382 743 382 810 l 382 650 l 485 650 l 485 738 q 431 915 485 849 q 265 982 378 982 "},"D":{"ha":550,"x_min":56,"x_max":504,"o":"m 283 972 l 56 972 l 56 0 l 283 0 q 451 64 397 0 q 504 240 504 128 l 504 731 q 451 908 504 843 q 283 972 397 972 m 282 99 l 164 99 l 164 874 l 281 874 q 369 838 340 874 q 397 736 397 803 l 397 236 q 369 134 397 169 q 282 99 340 99 "},"Ð":{"ha":550,"x_min":-1,"x_max":504,"o":"m 283 972 l 56 972 l 56 531 l -1 531 l -1 442 l 56 442 l 56 0 l 283 0 q 451 64 397 0 q 504 240 504 128 l 504 731 q 451 908 504 843 q 283 972 397 972 m 272 442 l 272 531 l 164 531 l 164 874 l 281 874 q 369 838 340 874 q 397 736 397 803 l 397 236 q 369 134 397 169 q 282 99 340 99 l 164 99 l 164 442 l 272 442 "},"Ď":{"ha":550,"x_min":56,"x_max":504,"o":"m 188 1165 l 93 1165 l 214 1026 l 310 1026 l 431 1165 l 335 1165 l 261 1082 l 188 1165 m 283 972 l 56 972 l 56 0 l 283 0 q 451 64 397 0 q 504 240 504 128 l 504 731 q 451 908 504 843 q 283 972 397 972 m 282 99 l 164 99 l 164 874 l 281 874 q 369 838 340 874 q 397 736 397 803 l 397 236 q 369 134 397 169 q 282 99 340 99 "},"Đ":{"ha":550,"x_min":1,"x_max":504,"o":"m 283 972 l 56 972 l 56 529 l 1 529 l 1 442 l 56 442 l 56 0 l 283 0 q 451 64 397 0 q 504 240 504 128 l 504 731 q 451 908 504 843 q 283 972 397 972 m 274 442 l 274 529 l 164 529 l 164 874 l 281 874 q 369 838 340 874 q 397 736 397 803 l 397 236 q 369 134 397 169 q 282 99 340 99 l 164 99 l 164 442 l 274 442 "},"E":{"ha":500,"x_min":56,"x_max":456,"o":"m 401 542 l 164 542 l 164 874 l 456 874 l 456 972 l 56 972 l 56 0 l 456 0 l 456 99 l 164 99 l 164 444 l 401 444 l 401 542 "},"É":{"ha":500,"x_min":56,"x_max":456,"o":"m 393 1169 l 286 1169 l 189 1026 l 264 1026 l 393 1169 m 401 542 l 164 542 l 164 874 l 456 874 l 456 972 l 56 972 l 56 0 l 456 0 l 456 99 l 164 99 l 164 444 l 401 444 l 401 542 "},"Ĕ":{"ha":500,"x_min":56,"x_max":456,"o":"m 399 1167 l 333 1167 q 308 1110 331 1126 q 251 1094 286 1094 q 198 1110 219 1094 q 174 1167 176 1126 l 108 1167 q 147 1063 110 1100 q 251 1026 185 1026 q 359 1063 321 1026 q 399 1167 397 1100 m 401 542 l 164 542 l 164 874 l 456 874 l 456 972 l 56 972 l 56 0 l 456 0 l 456 99 l 164 99 l 164 444 l 401 444 l 401 542 "},"Ě":{"ha":500,"x_min":56,"x_max":456,"o":"m 182 1165 l 88 1165 l 207 1026 l 303 1026 l 424 1165 l 329 1165 l 254 1082 l 182 1165 m 401 542 l 164 542 l 164 874 l 456 874 l 456 972 l 56 972 l 56 0 l 456 0 l 456 99 l 164 99 l 164 444 l 401 444 l 401 542 "},"Ê":{"ha":500,"x_min":56,"x_max":456,"o":"m 181 1026 l 253 1110 l 328 1026 l 422 1026 l 301 1167 l 206 1167 l 86 1026 l 181 1026 m 401 542 l 164 542 l 164 874 l 456 874 l 456 972 l 56 972 l 56 0 l 456 0 l 456 99 l 164 99 l 164 444 l 401 444 l 401 542 "},"Ë":{"ha":500,"x_min":56,"x_max":456,"o":"m 215 1151 l 121 1151 l 121 1026 l 215 1026 l 215 1151 m 388 1151 l 293 1151 l 293 1026 l 388 1026 l 388 1151 m 401 542 l 164 542 l 164 874 l 456 874 l 456 972 l 56 972 l 56 0 l 456 0 l 456 99 l 164 99 l 164 444 l 401 444 l 401 542 "},"Ė":{"ha":500,"x_min":56,"x_max":456,"o":"m 303 1153 l 208 1153 l 208 1028 l 303 1028 l 303 1153 m 401 542 l 164 542 l 164 874 l 456 874 l 456 972 l 56 972 l 56 0 l 456 0 l 456 99 l 164 99 l 164 444 l 401 444 l 401 542 "},"È":{"ha":500,"x_min":56,"x_max":456,"o":"m 232 1174 l 119 1174 l 249 1031 l 328 1031 l 232 1174 m 401 542 l 164 542 l 164 874 l 456 874 l 456 972 l 56 972 l 56 0 l 456 0 l 456 99 l 164 99 l 164 444 l 401 444 l 401 542 "},"Ē":{"ha":500,"x_min":56,"x_max":456,"o":"m 397 1121 l 107 1121 l 107 1044 l 397 1044 l 397 1121 m 401 542 l 164 542 l 164 874 l 456 874 l 456 972 l 56 972 l 56 0 l 456 0 l 456 99 l 164 99 l 164 444 l 401 444 l 401 542 "},"Ę":{"ha":500,"x_min":56,"x_max":465,"o":"m 401 542 l 164 542 l 164 874 l 456 874 l 456 972 l 56 972 l 56 0 l 360 0 q 298 -56 321 -24 q 275 -121 275 -87 q 305 -180 276 -161 q 381 -199 333 -199 q 425 -195 406 -199 q 465 -182 444 -192 l 465 -125 q 442 -134 454 -131 q 411 -137 431 -137 q 375 -128 390 -137 q 358 -96 360 -118 q 371 -49 358 -76 q 410 0 383 -21 l 456 0 l 456 99 l 164 99 l 164 444 l 401 444 l 401 542 "},"F":{"ha":472,"x_min":56,"x_max":442,"o":"m 388 519 l 164 519 l 164 874 l 442 874 l 442 972 l 56 972 l 56 0 l 164 0 l 164 421 l 388 421 l 388 519 "},"G":{"ha":532,"x_min":47,"x_max":485,"o":"m 265 982 q 169 965 210 982 q 101 915 128 947 q 60 838 74 883 q 47 738 47 793 l 47 235 q 101 57 47 124 q 265 -10 154 -10 q 431 57 378 -10 q 485 235 485 124 l 485 521 l 282 521 l 282 424 l 382 424 l 382 229 q 355 126 382 163 q 268 89 328 89 q 182 126 210 89 q 154 229 154 163 l 154 743 q 182 847 154 810 q 268 883 210 883 q 355 847 328 883 q 382 743 382 810 l 382 654 l 485 654 l 485 738 q 431 915 485 849 q 265 982 378 982 "},"Ğ":{"ha":532,"x_min":47,"x_max":485,"o":"m 411 1168 l 346 1168 q 321 1112 343 1128 q 265 1096 299 1096 q 210 1112 232 1096 q 186 1168 189 1128 l 121 1168 q 160 1065 122 1101 q 265 1028 197 1028 q 372 1065 333 1028 q 411 1168 410 1101 m 265 982 q 169 965 210 982 q 101 915 128 947 q 60 838 74 883 q 47 738 47 793 l 47 235 q 101 57 47 124 q 265 -10 154 -10 q 431 57 378 -10 q 485 235 485 124 l 485 521 l 282 521 l 282 424 l 382 424 l 382 229 q 355 126 382 163 q 268 89 328 89 q 182 126 210 89 q 154 229 154 163 l 154 743 q 182 847 154 810 q 268 883 210 883 q 355 847 328 883 q 382 743 382 810 l 382 654 l 485 654 l 485 738 q 431 915 485 849 q 265 982 378 982 "},"Ĝ":{"ha":532,"x_min":47,"x_max":485,"o":"m 193 1031 l 265 1113 l 340 1031 l 435 1031 l 314 1169 l 218 1169 l 99 1031 l 193 1031 m 265 982 q 169 965 210 982 q 101 915 128 947 q 60 838 74 883 q 47 738 47 793 l 47 235 q 101 57 47 124 q 265 -10 154 -10 q 431 57 378 -10 q 485 235 485 124 l 485 521 l 282 521 l 282 424 l 382 424 l 382 229 q 355 126 382 163 q 268 89 328 89 q 182 126 210 89 q 154 229 154 163 l 154 743 q 182 847 154 810 q 268 883 210 883 q 355 847 328 883 q 382 743 382 810 l 382 654 l 485 654 l 485 738 q 431 915 485 849 q 265 982 378 982 "},"Ġ":{"ha":532,"x_min":47,"x_max":485,"o":"m 317 1153 l 222 1153 l 222 1028 l 317 1028 l 317 1153 m 265 982 q 169 965 210 982 q 101 915 128 947 q 60 838 74 883 q 47 738 47 793 l 47 235 q 101 57 47 124 q 265 -10 154 -10 q 431 57 378 -10 q 485 235 485 124 l 485 521 l 282 521 l 282 424 l 382 424 l 382 229 q 355 126 382 163 q 268 89 328 89 q 182 126 210 89 q 154 229 154 163 l 154 743 q 182 847 154 810 q 268 883 210 883 q 355 847 328 883 q 382 743 382 810 l 382 654 l 485 654 l 485 738 q 431 915 485 849 q 265 982 378 982 "},"H":{"ha":567,"x_min":56,"x_max":511,"o":"m 164 438 l 403 438 l 403 0 l 511 0 l 511 972 l 403 972 l 403 535 l 164 535 l 164 972 l 56 972 l 56 0 l 164 0 l 164 438 "},"Ħ":{"ha":576,"x_min":10,"x_max":567,"o":"m 517 714 l 567 714 l 567 794 l 517 794 l 517 972 l 407 972 l 407 794 l 168 794 l 168 972 l 60 972 l 60 794 l 10 794 l 10 714 l 60 714 l 60 0 l 168 0 l 168 438 l 407 438 l 407 0 l 517 0 l 517 714 m 407 714 l 407 535 l 168 535 l 168 714 l 407 714 "},"Ĥ":{"ha":567,"x_min":56,"x_max":511,"o":"m 210 1029 l 283 1111 l 357 1029 l 451 1029 l 332 1169 l 236 1169 l 115 1029 l 210 1029 m 164 438 l 403 438 l 403 0 l 511 0 l 511 972 l 403 972 l 403 535 l 164 535 l 164 972 l 56 972 l 56 0 l 164 0 l 164 438 "},"I":{"ha":219,"x_min":56,"x_max":164,"o":"m 164 972 l 56 972 l 56 0 l 164 0 l 164 972 "},"Ĳ":{"ha":572,"x_min":56,"x_max":522,"o":"m 164 972 l 56 972 l 56 0 l 164 0 l 164 972 m 522 240 l 522 972 l 414 972 l 414 233 q 384 130 414 160 q 299 97 354 100 q 273 97 286 97 q 246 99 260 97 l 246 0 q 278 -1 264 -1 q 313 -1 293 -1 q 395 12 357 0 q 462 51 433 24 q 506 125 490 79 q 522 240 522 171 "},"Í":{"ha":219,"x_min":43,"x_max":247,"o":"m 139 1169 l 43 1026 l 118 1026 l 247 1169 l 139 1169 m 56 972 l 56 0 l 164 0 l 164 972 l 56 972 "},"Ĭ":{"ha":219,"x_min":-35,"x_max":254,"o":"m 254 1164 l 189 1164 q 164 1106 186 1122 q 108 1090 142 1090 q 55 1106 76 1090 q 31 1164 33 1122 l -35 1164 q 3 1060 -33 1097 q 108 1022 40 1022 q 215 1060 176 1022 q 254 1164 254 1097 m 56 972 l 56 0 l 164 0 l 164 972 l 56 972 "},"Î":{"ha":219,"x_min":-58,"x_max":278,"o":"m 157 1165 l 61 1165 l -58 1026 l 36 1026 l 110 1108 l 183 1026 l 278 1026 l 157 1165 m 56 972 l 56 0 l 164 0 l 164 972 l 56 972 "},"Ï":{"ha":219,"x_min":-24,"x_max":243,"o":"m 71 1151 l -24 1151 l -24 1026 l 71 1026 l 71 1151 m 243 1151 l 149 1151 l 149 1026 l 243 1026 l 243 1151 m 164 972 l 56 972 l 56 0 l 164 0 l 164 972 "},"İ":{"ha":219,"x_min":56,"x_max":164,"o":"m 157 1151 l 63 1151 l 63 1026 l 157 1026 l 157 1151 m 164 972 l 56 972 l 56 0 l 164 0 l 164 972 "},"Ì":{"ha":219,"x_min":-35,"x_max":175,"o":"m -35 1169 l 94 1026 l 175 1026 l 78 1169 l -35 1169 m 56 972 l 56 0 l 164 0 l 164 972 l 56 972 "},"Ī":{"ha":219,"x_min":-29,"x_max":247,"o":"m 247 1119 l -29 1119 l -29 1042 l 247 1042 l 247 1119 m 164 972 l 56 972 l 56 0 l 164 0 l 164 972 "},"Į":{"ha":219,"x_min":10,"x_max":201,"o":"m 144 0 l 164 0 l 164 972 l 56 972 l 56 0 l 96 0 q 32 -57 54 -25 q 11 -121 10 -89 q 40 -180 11 -161 q 115 -199 69 -199 q 160 -195 140 -199 q 201 -182 181 -192 l 201 -125 q 177 -134 189 -131 q 146 -137 165 -137 q 110 -128 125 -137 q 94 -96 94 -118 q 106 -49 93 -76 q 144 0 118 -21 "},"Ĩ":{"ha":219,"x_min":-60,"x_max":279,"o":"m 279 1114 l 226 1150 q 202 1119 215 1128 q 171 1110 189 1110 q 141 1116 156 1110 q 112 1130 126 1122 q 81 1144 97 1138 q 43 1150 64 1150 q -15 1131 11 1150 q -60 1069 -42 1113 l -6 1033 q 19 1065 6 1057 q 53 1074 33 1074 q 83 1067 69 1074 q 113 1053 97 1061 q 144 1040 128 1046 q 181 1033 160 1033 q 279 1114 249 1033 m 164 972 l 56 972 l 56 0 l 164 0 l 164 972 "},"J":{"ha":354,"x_min":28,"x_max":303,"o":"m 28 99 l 28 0 q 61 -2 46 -3 q 96 -1 76 -1 q 177 12 139 0 q 243 52 215 24 q 287 126 271 81 q 303 240 303 172 l 303 972 l 196 972 l 196 233 q 165 130 196 160 q 82 97 135 100 q 56 97 69 97 q 28 99 42 97 "},"Ĵ":{"ha":354,"x_min":28,"x_max":400,"o":"m 158 1026 l 232 1110 l 306 1026 l 400 1026 l 279 1167 l 183 1167 l 64 1026 l 158 1026 m 303 240 l 303 972 l 196 972 l 196 233 q 165 130 196 160 q 82 97 135 100 q 56 97 69 97 q 28 99 42 97 l 28 0 q 61 -2 46 -3 q 96 -1 76 -1 q 177 12 139 0 q 243 52 215 24 q 287 126 271 81 q 303 240 303 172 "},"K":{"ha":568,"x_min":56,"x_max":540,"o":"m 221 422 l 429 0 l 540 0 l 286 529 l 532 972 l 422 972 l 164 503 l 164 972 l 56 972 l 56 0 l 164 0 l 164 326 l 221 422 "},"L":{"ha":468,"x_min":56,"x_max":442,"o":"m 56 0 l 442 0 l 442 99 l 164 99 l 164 972 l 56 972 l 56 0 "},"Ĺ":{"ha":468,"x_min":56,"x_max":442,"o":"m 286 1169 l 179 1169 l 82 1026 l 157 1026 l 286 1169 m 56 0 l 442 0 l 442 99 l 164 99 l 164 972 l 56 972 l 56 0 "},"Ľ":{"ha":468,"x_min":56,"x_max":442,"o":"m 56 0 l 442 0 l 442 99 l 164 99 l 164 972 l 56 972 l 56 0 m 336 838 l 301 715 l 347 715 l 400 849 l 400 972 l 296 972 l 296 838 l 336 838 "},"Ŀ":{"ha":468,"x_min":56,"x_max":442,"o":"m 56 0 l 442 0 l 442 99 l 164 99 l 164 972 l 56 972 l 56 0 m 378 556 l 274 556 l 274 421 l 378 421 l 378 556 "},"Ł":{"ha":483,"x_min":0,"x_max":457,"o":"m 178 404 l 329 561 l 329 661 l 178 504 l 178 972 l 71 972 l 71 389 l 0 319 l 0 219 l 71 289 l 71 0 l 457 0 l 457 99 l 178 99 l 178 404 "},"M":{"ha":726,"x_min":54,"x_max":671,"o":"m 414 1 l 568 782 l 568 0 l 671 0 l 671 972 l 519 972 l 365 196 l 206 972 l 54 972 l 54 0 l 149 0 l 149 775 l 310 1 l 414 1 "},"N":{"ha":568,"x_min":54,"x_max":513,"o":"m 151 0 l 151 786 l 400 0 l 513 0 l 513 972 l 417 972 l 417 269 l 192 972 l 54 972 l 54 0 l 151 0 "},"Ń":{"ha":568,"x_min":54,"x_max":513,"o":"m 425 1169 l 318 1169 l 221 1028 l 296 1028 l 425 1169 m 151 0 l 151 788 l 400 0 l 513 0 l 513 972 l 417 972 l 417 269 l 192 972 l 54 972 l 54 0 l 151 0 "},"Ň":{"ha":568,"x_min":54,"x_max":513,"o":"m 211 1169 l 117 1169 l 238 1029 l 333 1029 l 453 1169 l 358 1169 l 285 1086 l 211 1169 m 151 0 l 151 786 l 400 0 l 513 0 l 513 972 l 417 972 l 417 269 l 192 972 l 54 972 l 54 0 l 151 0 "},"Ñ":{"ha":568,"x_min":54,"x_max":513,"o":"m 454 1117 l 400 1153 q 344 1113 381 1113 q 315 1119 329 1113 q 287 1133 301 1125 q 256 1147 272 1140 q 218 1153 239 1153 q 158 1134 185 1153 q 115 1072 132 1115 l 169 1036 q 194 1068 181 1060 q 228 1076 208 1076 q 258 1070 244 1076 q 287 1056 272 1064 q 318 1042 301 1049 q 356 1036 335 1036 q 413 1056 388 1036 q 454 1117 438 1075 m 151 0 l 151 786 l 400 0 l 513 0 l 513 972 l 417 972 l 417 269 l 192 972 l 54 972 l 54 0 l 151 0 "},"O":{"ha":540,"x_min":47,"x_max":493,"o":"m 47 738 l 47 235 q 102 57 47 124 q 269 -10 157 -10 q 438 57 382 -10 q 493 235 493 124 l 493 738 q 438 916 493 850 q 269 982 382 982 q 102 916 157 982 q 47 738 47 850 m 154 229 l 154 743 q 183 847 154 810 q 269 883 211 883 q 357 847 329 883 q 385 743 385 810 l 385 229 q 357 126 385 163 q 269 89 329 89 q 183 126 211 89 q 154 229 154 163 "},"Ó":{"ha":540,"x_min":47,"x_max":493,"o":"m 407 1174 l 300 1174 l 203 1031 l 278 1031 l 407 1174 m 269 982 q 102 916 157 982 q 47 738 47 850 l 47 235 q 102 57 47 124 q 269 -10 157 -10 q 438 57 382 -10 q 493 235 493 124 l 493 738 q 438 916 493 850 q 269 982 382 982 m 269 883 q 357 847 329 883 q 385 743 385 810 l 385 229 q 357 126 385 163 q 269 89 329 89 q 183 126 211 89 q 154 229 154 163 l 154 743 q 183 847 154 810 q 269 883 211 883 "},"Ŏ":{"ha":540,"x_min":47,"x_max":493,"o":"m 415 1168 l 350 1168 q 325 1112 347 1128 q 268 1096 303 1096 q 215 1112 236 1096 q 190 1168 193 1128 l 125 1168 q 164 1065 126 1101 q 268 1028 201 1028 q 376 1065 338 1028 q 415 1168 414 1101 m 269 982 q 102 916 157 982 q 47 738 47 850 l 47 235 q 102 57 47 124 q 269 -10 157 -10 q 438 57 382 -10 q 493 235 493 124 l 493 738 q 438 916 493 850 q 269 982 382 982 m 269 883 q 357 847 329 883 q 385 743 385 810 l 385 229 q 357 126 385 163 q 269 89 329 89 q 183 126 211 89 q 154 229 154 163 l 154 743 q 183 847 154 810 q 269 883 211 883 "},"Ô":{"ha":540,"x_min":47,"x_max":493,"o":"m 196 1029 l 268 1111 l 343 1029 l 438 1029 l 317 1169 l 221 1169 l 101 1029 l 196 1029 m 269 982 q 102 916 157 982 q 47 738 47 850 l 47 235 q 102 57 47 124 q 269 -10 157 -10 q 438 57 382 -10 q 493 235 493 124 l 493 738 q 438 916 493 850 q 269 982 382 982 m 269 883 q 357 847 329 883 q 385 743 385 810 l 385 229 q 357 126 385 163 q 269 89 329 89 q 183 126 211 89 q 154 229 154 163 l 154 743 q 183 847 154 810 q 269 883 211 883 "},"Ö":{"ha":540,"x_min":47,"x_max":493,"o":"m 231 1154 l 136 1154 l 136 1029 l 231 1029 l 231 1154 m 403 1154 l 308 1154 l 308 1029 l 403 1029 l 403 1154 m 269 982 q 102 916 157 982 q 47 738 47 850 l 47 235 q 102 57 47 124 q 269 -10 157 -10 q 438 57 382 -10 q 493 235 493 124 l 493 738 q 438 916 493 850 q 269 982 382 982 m 269 883 q 357 847 329 883 q 385 743 385 810 l 385 229 q 357 126 385 163 q 269 89 329 89 q 183 126 211 89 q 154 229 154 163 l 154 743 q 183 847 154 810 q 269 883 211 883 "},"Ò":{"ha":540,"x_min":47,"x_max":493,"o":"m 242 1174 l 129 1174 l 258 1031 l 338 1031 l 242 1174 m 269 982 q 102 916 157 982 q 47 738 47 850 l 47 235 q 102 57 47 124 q 269 -10 157 -10 q 438 57 382 -10 q 493 235 493 124 l 493 738 q 438 916 493 850 q 269 982 382 982 m 269 883 q 357 847 329 883 q 385 743 385 810 l 385 229 q 357 126 385 163 q 269 89 329 89 q 183 126 211 89 q 154 229 154 163 l 154 743 q 183 847 154 810 q 269 883 211 883 "},"Ő":{"ha":540,"x_min":47,"x_max":493,"o":"m 319 1174 l 219 1174 l 140 1031 l 208 1031 l 319 1174 m 469 1174 l 368 1174 l 289 1031 l 357 1031 l 469 1174 m 269 982 q 102 916 157 982 q 47 738 47 850 l 47 235 q 102 57 47 124 q 269 -10 157 -10 q 438 57 382 -10 q 493 235 493 124 l 493 738 q 438 916 493 850 q 269 982 382 982 m 269 883 q 357 847 329 883 q 385 743 385 810 l 385 229 q 357 126 385 163 q 269 89 329 89 q 183 126 211 89 q 154 229 154 163 l 154 743 q 183 847 154 810 q 269 883 211 883 "},"Ō":{"ha":540,"x_min":47,"x_max":493,"o":"m 415 1119 l 126 1119 l 126 1043 l 415 1043 l 415 1119 m 269 982 q 102 916 157 982 q 47 738 47 850 l 47 235 q 102 57 47 124 q 269 -10 157 -10 q 438 57 382 -10 q 493 235 493 124 l 493 738 q 438 916 493 850 q 269 982 382 982 m 269 883 q 357 847 329 883 q 385 743 385 810 l 385 229 q 357 126 385 163 q 269 89 329 89 q 183 126 211 89 q 154 229 154 163 l 154 743 q 183 847 154 810 q 269 883 211 883 "},"Ø":{"ha":540,"x_min":47,"x_max":493,"o":"m 451 897 l 486 989 l 438 1007 l 413 939 q 269 982 357 982 q 102 916 157 982 q 47 738 47 850 l 47 235 q 89 75 47 138 l 54 -18 l 101 -36 l 128 33 q 269 -10 182 -10 q 438 57 382 -10 q 493 235 493 124 l 493 738 q 451 897 493 835 m 369 825 l 154 250 l 154 743 q 183 847 154 810 q 269 883 211 883 q 369 825 342 883 m 269 89 q 169 146 197 89 l 385 719 l 385 229 q 357 126 385 163 q 269 89 329 89 "},"Ǿ":{"ha":540,"x_min":47,"x_max":493,"o":"m 304 1174 l 207 1031 l 283 1031 l 413 1174 l 304 1174 m 451 897 l 486 989 l 438 1007 l 413 939 q 269 982 357 982 q 102 916 157 982 q 47 738 47 850 l 47 235 q 89 75 47 138 l 54 -18 l 101 -36 l 128 33 q 269 -10 182 -10 q 438 57 382 -10 q 493 235 493 124 l 493 738 q 451 897 493 835 m 369 825 l 154 250 l 154 743 q 183 847 154 810 q 269 883 211 883 q 369 825 342 883 m 269 89 q 169 146 197 89 l 385 719 l 385 229 q 357 126 385 163 q 269 89 329 89 "},"Õ":{"ha":540,"x_min":47,"x_max":493,"o":"m 442 1114 l 389 1151 q 365 1120 378 1129 q 333 1110 351 1111 q 303 1116 318 1110 q 274 1131 289 1122 q 243 1145 260 1139 q 206 1151 226 1151 q 147 1132 174 1150 q 103 1071 121 1114 l 157 1033 q 182 1066 168 1057 q 215 1075 196 1075 q 246 1069 232 1075 q 275 1055 260 1063 q 306 1041 290 1047 q 343 1035 322 1035 q 401 1053 375 1035 q 442 1114 426 1072 m 269 982 q 102 916 157 982 q 47 738 47 850 l 47 235 q 102 57 47 124 q 269 -10 157 -10 q 438 57 382 -10 q 493 235 493 124 l 493 738 q 438 916 493 850 q 269 982 382 982 m 269 883 q 357 847 329 883 q 385 743 385 810 l 385 229 q 357 126 385 163 q 269 89 329 89 q 183 126 211 89 q 154 229 154 163 l 154 743 q 183 847 154 810 q 269 883 211 883 "},"Œ":{"ha":801,"x_min":46,"x_max":757,"o":"m 706 542 l 482 542 l 482 874 l 757 874 l 757 972 l 261 972 q 97 906 149 972 q 46 731 46 840 l 46 242 q 97 66 46 132 q 261 0 149 0 l 757 0 l 757 99 l 482 99 l 482 444 l 706 444 l 706 542 m 263 874 l 375 874 l 375 99 l 263 99 q 179 136 204 99 q 154 236 154 174 l 154 736 q 179 836 154 799 q 263 874 204 874 "},"P":{"ha":519,"x_min":56,"x_max":486,"o":"m 268 972 l 56 972 l 56 0 l 164 0 l 164 383 l 260 383 q 431 442 376 383 q 486 618 486 501 l 486 735 q 435 909 486 846 q 268 972 383 972 m 260 481 l 164 481 l 164 874 l 268 874 q 353 840 328 874 q 379 740 379 807 l 379 611 q 350 510 379 540 q 260 481 321 481 "},"Þ":{"ha":524,"x_min":56,"x_max":486,"o":"m 268 832 l 164 832 l 164 972 l 56 972 l 56 0 l 164 0 l 164 242 l 260 242 q 431 301 376 242 q 486 478 486 360 l 486 593 q 435 769 486 706 q 268 832 383 832 m 260 340 l 164 340 l 164 733 l 268 733 q 353 700 328 733 q 379 600 379 667 l 379 471 q 350 370 379 400 q 260 340 321 340 "},"Q":{"ha":558,"x_min":47,"x_max":529,"o":"m 269 982 q 102 916 157 982 q 47 738 47 850 l 47 235 q 102 57 47 124 q 269 -10 157 -10 q 335 -2 306 -10 q 388 19 364 6 q 511 -43 422 -43 l 529 -43 l 529 53 l 515 53 q 478 59 492 53 q 456 83 464 65 q 493 235 493 142 l 493 738 q 438 916 493 850 q 269 982 382 982 m 269 883 q 357 847 329 883 q 385 743 385 810 l 385 229 q 357 126 385 163 q 269 89 329 89 q 183 126 211 89 q 154 229 154 163 l 154 743 q 183 847 154 810 q 269 883 211 883 "},"R":{"ha":547,"x_min":56,"x_max":510,"o":"m 272 972 l 56 972 l 56 0 l 164 0 l 164 415 l 240 415 q 345 384 308 415 q 382 271 382 353 l 382 118 q 386 45 382 69 q 400 0 390 21 l 510 0 q 493 55 496 25 q 490 117 490 85 l 490 268 q 463 399 490 347 q 368 471 435 451 q 460 540 431 490 q 489 671 489 590 l 489 750 q 438 915 489 858 q 272 972 388 972 m 244 514 l 164 514 l 164 874 l 269 874 q 356 840 331 874 q 382 740 382 807 l 382 647 q 346 541 382 568 q 244 514 310 514 "},"Ŕ":{"ha":547,"x_min":56,"x_max":510,"o":"m 399 1174 l 290 1174 l 194 1031 l 269 1031 l 399 1174 m 272 972 l 56 972 l 56 0 l 164 0 l 164 415 l 240 415 q 345 384 308 415 q 382 271 382 353 l 382 118 q 386 45 382 69 q 400 0 390 21 l 510 0 q 493 55 496 25 q 490 117 490 85 l 490 268 q 463 399 490 347 q 368 471 435 451 q 460 540 431 490 q 489 671 489 590 l 489 750 q 438 915 489 858 q 272 972 388 972 m 244 514 l 164 514 l 164 874 l 269 874 q 356 840 331 874 q 382 740 382 807 l 382 647 q 346 541 382 568 q 244 514 310 514 "},"Ř":{"ha":547,"x_min":56,"x_max":510,"o":"m 185 1169 l 90 1169 l 210 1031 l 306 1031 l 426 1169 l 332 1169 l 258 1086 l 185 1169 m 272 972 l 56 972 l 56 0 l 164 0 l 164 415 l 240 415 q 345 384 308 415 q 382 271 382 353 l 382 118 q 386 45 382 69 q 400 0 390 21 l 510 0 q 493 55 496 25 q 490 117 490 85 l 490 268 q 463 399 490 347 q 368 471 435 451 q 460 540 431 490 q 489 671 489 590 l 489 750 q 438 915 489 858 q 272 972 388 972 m 244 514 l 164 514 l 164 874 l 269 874 q 356 840 331 874 q 382 740 382 807 l 382 647 q 346 541 382 568 q 244 514 310 514 "},"S":{"ha":517,"x_min":40,"x_max":478,"o":"m 260 982 q 97 917 150 982 q 44 739 44 851 q 69 622 44 671 q 129 533 93 572 q 207 462 165 494 q 285 395 249 429 q 345 322 321 361 q 369 228 369 282 q 342 125 369 161 q 256 89 314 89 q 169 125 197 89 q 142 228 142 161 l 142 289 l 40 289 l 40 233 q 93 56 40 122 q 258 -10 146 -10 q 424 56 371 -10 q 478 233 478 122 q 453 351 478 301 q 393 439 429 400 q 315 510 357 478 q 236 577 272 543 q 176 651 200 611 q 151 746 151 692 q 178 847 151 811 q 263 883 204 883 q 347 847 321 883 q 374 744 374 811 l 374 713 l 476 713 l 476 739 q 424 916 476 850 q 260 982 371 982 "},"Ś":{"ha":517,"x_min":40,"x_max":478,"o":"m 401 1174 l 293 1174 l 197 1031 l 272 1031 l 401 1174 m 260 982 q 97 917 150 982 q 44 739 44 851 q 69 622 44 671 q 129 533 93 572 q 207 462 165 494 q 285 395 249 429 q 345 322 321 361 q 369 228 369 282 q 342 125 369 161 q 256 89 314 89 q 169 125 197 89 q 142 228 142 161 l 142 289 l 40 289 l 40 233 q 93 56 40 122 q 258 -10 146 -10 q 424 56 371 -10 q 478 233 478 122 q 453 351 478 301 q 393 439 429 400 q 315 510 357 478 q 236 577 272 543 q 176 651 200 611 q 151 746 151 692 q 178 847 151 811 q 263 883 204 883 q 347 847 321 883 q 374 744 374 811 l 374 713 l 476 713 l 476 739 q 424 916 476 850 q 260 982 371 982 "},"Š":{"ha":517,"x_min":40,"x_max":478,"o":"m 188 1169 l 93 1169 l 213 1031 l 308 1031 l 429 1169 l 333 1169 l 260 1086 l 188 1169 m 260 982 q 97 917 150 982 q 44 739 44 851 q 69 622 44 671 q 129 533 93 572 q 207 462 165 494 q 285 395 249 429 q 345 322 321 361 q 369 228 369 282 q 342 125 369 161 q 256 89 314 89 q 169 125 197 89 q 142 228 142 161 l 142 289 l 40 289 l 40 233 q 93 56 40 122 q 258 -10 146 -10 q 424 56 371 -10 q 478 233 478 122 q 453 351 478 301 q 393 439 429 400 q 315 510 357 478 q 236 577 272 543 q 176 651 200 611 q 151 746 151 692 q 178 847 151 811 q 263 883 204 883 q 347 847 321 883 q 374 744 374 811 l 374 713 l 476 713 l 476 739 q 424 916 476 850 q 260 982 371 982 "},"Ş":{"ha":517,"x_min":40,"x_max":478,"o":"m 279 -51 l 279 -8 q 429 63 381 -1 q 478 233 478 128 q 453 351 478 301 q 393 439 429 400 q 315 510 357 478 q 236 577 272 543 q 176 651 200 611 q 151 746 151 692 q 178 847 151 811 q 263 883 204 883 q 347 847 321 883 q 374 744 374 811 l 374 713 l 476 713 l 476 739 q 424 916 476 850 q 260 982 371 982 q 97 917 150 982 q 44 739 44 851 q 69 622 44 671 q 129 533 93 572 q 207 462 165 494 q 285 395 249 429 q 345 322 321 361 q 369 228 369 282 q 342 125 369 161 q 256 89 314 89 q 169 125 197 89 q 142 228 142 161 l 142 289 l 40 289 l 40 233 q 85 65 40 129 q 229 -8 131 0 l 229 -78 l 242 -78 q 310 -119 310 -78 q 250 -164 310 -164 q 193 -124 193 -160 l 193 -114 l 122 -114 l 122 -125 q 156 -188 122 -165 q 250 -211 189 -211 q 347 -187 313 -211 q 382 -122 382 -164 q 355 -70 382 -89 q 279 -51 328 -51 "},"Ŝ":{"ha":517,"x_min":40,"x_max":478,"o":"m 188 1029 l 261 1111 l 335 1029 l 429 1029 l 310 1169 l 214 1169 l 93 1029 l 188 1029 m 260 982 q 97 917 150 982 q 44 739 44 851 q 69 622 44 671 q 129 533 93 572 q 207 462 165 494 q 285 395 249 429 q 345 322 321 361 q 369 228 369 282 q 342 125 369 161 q 256 89 314 89 q 169 125 197 89 q 142 228 142 161 l 142 289 l 40 289 l 40 233 q 93 56 40 122 q 258 -10 146 -10 q 424 56 371 -10 q 478 233 478 122 q 453 351 478 301 q 393 439 429 400 q 315 510 357 478 q 236 577 272 543 q 176 651 200 611 q 151 746 151 692 q 178 847 151 811 q 263 883 204 883 q 347 847 321 883 q 374 744 374 811 l 374 713 l 476 713 l 476 739 q 424 916 476 850 q 260 982 371 982 "},"T":{"ha":504,"x_min":18,"x_max":485,"o":"m 197 0 l 306 0 l 306 874 l 485 874 l 485 972 l 18 972 l 18 874 l 197 874 l 197 0 "},"Ŧ":{"ha":517,"x_min":25,"x_max":492,"o":"m 411 661 l 313 661 l 313 874 l 492 874 l 492 972 l 25 972 l 25 874 l 204 874 l 204 661 l 106 661 l 106 581 l 204 581 l 204 0 l 313 0 l 313 581 l 411 581 l 411 661 "},"Ť":{"ha":517,"x_min":25,"x_max":492,"o":"m 185 1167 l 90 1167 l 210 1026 l 306 1026 l 426 1167 l 332 1167 l 257 1083 l 185 1167 m 204 0 l 313 0 l 313 874 l 492 874 l 492 972 l 25 972 l 25 874 l 204 874 l 204 0 "},"U":{"ha":538,"x_min":51,"x_max":486,"o":"m 158 229 l 158 972 l 51 972 l 51 235 q 104 56 51 124 q 268 -11 157 -11 q 433 56 381 -11 q 486 235 486 124 l 486 972 l 385 972 l 385 229 q 358 126 385 163 q 272 89 331 89 q 185 126 213 89 q 158 229 158 163 "},"Ú":{"ha":538,"x_min":51,"x_max":486,"o":"m 411 1174 l 304 1174 l 207 1031 l 282 1031 l 411 1174 m 486 235 l 486 972 l 385 972 l 385 229 q 358 126 385 163 q 272 89 331 89 q 185 126 213 89 q 158 229 158 163 l 158 972 l 51 972 l 51 235 q 104 56 51 124 q 268 -11 157 -11 q 433 56 381 -11 q 486 235 486 124 "},"Ŭ":{"ha":538,"x_min":51,"x_max":486,"o":"m 415 1164 l 350 1164 q 325 1106 347 1122 q 269 1090 303 1090 q 215 1106 236 1090 q 190 1164 193 1122 l 125 1164 q 164 1060 126 1097 q 269 1022 201 1022 q 376 1060 338 1022 q 415 1164 414 1097 m 486 235 l 486 972 l 385 972 l 385 229 q 358 126 385 163 q 272 89 331 89 q 185 126 213 89 q 158 229 158 163 l 158 972 l 51 972 l 51 235 q 104 56 51 124 q 268 -11 157 -11 q 433 56 381 -11 q 486 235 486 124 "},"Û":{"ha":538,"x_min":51,"x_max":486,"o":"m 197 1029 l 269 1111 l 344 1029 l 439 1029 l 318 1169 l 222 1169 l 103 1029 l 197 1029 m 486 235 l 486 972 l 385 972 l 385 229 q 358 126 385 163 q 272 89 331 89 q 185 126 213 89 q 158 229 158 163 l 158 972 l 51 972 l 51 235 q 104 56 51 124 q 268 -11 157 -11 q 433 56 381 -11 q 486 235 486 124 "},"Ü":{"ha":538,"x_min":51,"x_max":486,"o":"m 232 1153 l 136 1153 l 136 1028 l 232 1028 l 232 1153 m 404 1153 l 310 1153 l 310 1028 l 404 1028 l 404 1153 m 486 235 l 486 972 l 385 972 l 385 229 q 358 126 385 163 q 272 89 331 89 q 185 126 213 89 q 158 229 158 163 l 158 972 l 51 972 l 51 235 q 104 56 51 124 q 268 -11 157 -11 q 433 56 381 -11 q 486 235 486 124 "},"Ù":{"ha":538,"x_min":51,"x_max":486,"o":"m 240 1169 l 128 1169 l 257 1026 l 338 1026 l 240 1169 m 486 235 l 486 972 l 385 972 l 385 229 q 358 126 385 163 q 272 89 331 89 q 185 126 213 89 q 158 229 158 163 l 158 972 l 51 972 l 51 235 q 104 56 51 124 q 268 -11 157 -11 q 433 56 381 -11 q 486 235 486 124 "},"Ű":{"ha":538,"x_min":51,"x_max":486,"o":"m 318 1172 l 218 1172 l 139 1029 l 207 1029 l 318 1172 m 468 1172 l 367 1172 l 289 1029 l 356 1029 l 468 1172 m 486 235 l 486 972 l 385 972 l 385 229 q 358 126 385 163 q 272 89 331 89 q 185 126 213 89 q 158 229 158 163 l 158 972 l 51 972 l 51 235 q 104 56 51 124 q 268 -11 157 -11 q 433 56 381 -11 q 486 235 486 124 "},"Ū":{"ha":538,"x_min":51,"x_max":486,"o":"m 414 1119 l 129 1119 l 129 1042 l 414 1042 l 414 1119 m 486 235 l 486 972 l 385 972 l 385 229 q 358 126 385 163 q 272 89 331 89 q 185 126 213 89 q 158 229 158 163 l 158 972 l 51 972 l 51 235 q 104 56 51 124 q 268 -11 157 -11 q 433 56 381 -11 q 486 235 486 124 "},"Ų":{"ha":538,"x_min":51,"x_max":486,"o":"m 486 235 l 486 972 l 385 972 l 385 229 q 358 126 385 163 q 272 89 331 89 q 185 126 213 89 q 158 229 158 163 l 158 972 l 51 972 l 51 235 q 104 56 51 124 q 268 -11 157 -11 q 318 -6 297 -11 q 263 -59 283 -29 q 244 -121 243 -89 q 274 -180 244 -161 q 349 -199 303 -199 q 394 -195 375 -199 q 435 -182 414 -192 l 435 -125 q 411 -134 424 -131 q 379 -137 399 -137 q 344 -128 360 -137 q 328 -96 328 -118 q 340 -45 326 -75 q 382 7 354 -15 q 434 50 414 25 q 466 105 454 75 q 482 167 478 135 q 486 235 486 200 "},"Ů":{"ha":538,"x_min":51,"x_max":486,"o":"m 272 1224 q 200 1194 229 1224 q 171 1122 171 1165 q 200 1050 171 1079 q 272 1021 229 1021 q 345 1050 315 1021 q 375 1122 375 1079 q 345 1194 375 1165 q 272 1224 315 1224 m 272 1172 q 308 1158 293 1172 q 324 1122 324 1144 q 308 1086 324 1100 q 272 1072 293 1072 q 237 1086 251 1072 q 222 1122 222 1100 q 237 1158 222 1144 q 272 1172 251 1172 m 486 235 l 486 972 l 385 972 l 385 229 q 358 126 385 163 q 272 89 331 89 q 185 126 213 89 q 158 229 158 163 l 158 972 l 51 972 l 51 235 q 104 56 51 124 q 268 -11 157 -11 q 433 56 381 -11 q 486 235 486 124 "},"Ũ":{"ha":538,"x_min":51,"x_max":486,"o":"m 440 1114 l 386 1151 q 362 1120 375 1129 q 331 1110 349 1111 q 301 1116 315 1110 q 272 1131 286 1122 q 240 1145 257 1139 q 203 1151 224 1151 q 144 1132 171 1150 q 101 1071 118 1114 l 156 1033 q 181 1066 167 1057 q 214 1075 194 1075 q 244 1069 231 1075 q 273 1055 258 1063 q 303 1041 288 1047 q 340 1035 319 1035 q 398 1053 372 1035 q 440 1114 424 1072 m 486 235 l 486 972 l 385 972 l 385 229 q 358 126 385 163 q 272 89 331 89 q 185 126 213 89 q 158 229 158 163 l 158 972 l 51 972 l 51 235 q 104 56 51 124 q 268 -11 157 -11 q 433 56 381 -11 q 486 235 486 124 "},"V":{"ha":581,"x_min":28,"x_max":553,"o":"m 138 972 l 28 972 l 211 0 l 371 0 l 553 972 l 453 972 l 296 126 l 138 972 "},"W":{"ha":810,"x_min":32,"x_max":778,"o":"m 314 0 l 410 660 l 503 0 l 646 0 l 778 972 l 683 972 l 574 143 l 467 971 l 360 971 l 251 144 l 138 972 l 32 972 l 165 0 l 314 0 "},"Ẃ":{"ha":810,"x_min":32,"x_max":778,"o":"m 543 1169 l 435 1169 l 338 1026 l 414 1026 l 543 1169 m 314 0 l 410 660 l 503 0 l 646 0 l 778 972 l 683 972 l 574 143 l 467 971 l 360 971 l 251 144 l 138 972 l 32 972 l 165 0 l 314 0 "},"Ŵ":{"ha":810,"x_min":32,"x_max":778,"o":"m 333 1028 l 407 1110 l 481 1028 l 575 1028 l 454 1168 l 358 1168 l 239 1028 l 333 1028 m 314 0 l 410 660 l 503 0 l 646 0 l 778 972 l 683 972 l 574 143 l 467 971 l 360 971 l 251 144 l 138 972 l 32 972 l 165 0 l 314 0 "},"Ẅ":{"ha":810,"x_min":32,"x_max":778,"o":"m 368 1154 l 274 1154 l 274 1029 l 368 1029 l 368 1154 m 540 1154 l 446 1154 l 446 1029 l 540 1029 l 540 1154 m 314 0 l 410 660 l 503 0 l 646 0 l 778 972 l 683 972 l 574 143 l 467 971 l 360 971 l 251 144 l 138 972 l 32 972 l 165 0 l 314 0 "},"Ẁ":{"ha":810,"x_min":32,"x_max":778,"o":"m 385 1174 l 272 1174 l 401 1031 l 481 1031 l 385 1174 m 314 0 l 410 660 l 503 0 l 646 0 l 778 972 l 683 972 l 574 143 l 467 971 l 360 971 l 251 144 l 138 972 l 32 972 l 165 0 l 314 0 "},"X":{"ha":604,"x_min":32,"x_max":572,"o":"m 297 419 l 458 0 l 572 0 l 378 501 l 560 972 l 458 972 l 307 583 l 157 972 l 44 972 l 228 501 l 32 0 l 135 0 l 297 419 "},"Y":{"ha":564,"x_min":22,"x_max":542,"o":"m 228 349 l 228 0 l 335 0 l 335 349 l 542 972 l 439 972 l 286 494 l 135 972 l 22 972 l 228 349 "},"Ý":{"ha":564,"x_min":22,"x_max":542,"o":"m 426 1169 l 319 1169 l 222 1026 l 297 1026 l 426 1169 m 228 349 l 228 0 l 335 0 l 335 349 l 542 972 l 439 972 l 286 494 l 135 972 l 22 972 l 228 349 "},"Ŷ":{"ha":564,"x_min":22,"x_max":542,"o":"m 213 1028 l 286 1110 l 360 1028 l 454 1028 l 333 1167 l 238 1167 l 118 1028 l 213 1028 m 228 349 l 228 0 l 335 0 l 335 349 l 542 972 l 439 972 l 286 494 l 135 972 l 22 972 l 228 349 "},"Ÿ":{"ha":564,"x_min":22,"x_max":542,"o":"m 246 1151 l 151 1151 l 151 1026 l 246 1026 l 246 1151 m 418 1151 l 324 1151 l 324 1026 l 418 1026 l 418 1151 m 228 349 l 228 0 l 335 0 l 335 349 l 542 972 l 439 972 l 286 494 l 135 972 l 22 972 l 228 349 "},"Ỳ":{"ha":564,"x_min":22,"x_max":542,"o":"m 258 1174 l 146 1174 l 275 1031 l 354 1031 l 258 1174 m 228 349 l 228 0 l 335 0 l 335 349 l 542 972 l 439 972 l 286 494 l 135 972 l 22 972 l 228 349 "},"Z":{"ha":526,"x_min":40,"x_max":485,"o":"m 482 0 l 482 99 l 150 99 l 485 875 l 485 972 l 56 972 l 56 874 l 374 874 l 40 97 l 40 0 l 482 0 "},"Ź":{"ha":526,"x_min":40,"x_max":485,"o":"m 413 1174 l 304 1174 l 208 1031 l 283 1031 l 413 1174 m 482 0 l 482 99 l 150 99 l 485 875 l 485 972 l 56 972 l 56 874 l 374 874 l 40 97 l 40 0 l 482 0 "},"Ž":{"ha":526,"x_min":40,"x_max":485,"o":"m 196 1169 l 101 1169 l 221 1029 l 317 1029 l 438 1169 l 343 1169 l 268 1086 l 196 1169 m 482 0 l 482 99 l 150 99 l 485 875 l 485 972 l 56 972 l 56 874 l 374 874 l 40 97 l 40 0 l 482 0 "},"Ż":{"ha":526,"x_min":40,"x_max":485,"o":"m 321 1156 l 226 1156 l 226 1031 l 321 1031 l 321 1156 m 482 0 l 482 99 l 150 99 l 485 875 l 485 972 l 56 972 l 56 874 l 374 874 l 40 97 l 40 0 l 482 0 "},"Ģ":{"ha":532,"x_min":47,"x_max":485,"o":"m 265 982 q 169 965 210 982 q 101 915 128 947 q 60 838 74 883 q 47 738 47 793 l 47 235 q 101 57 47 124 q 265 -10 154 -10 q 431 57 378 -10 q 485 235 485 124 l 485 521 l 282 521 l 282 424 l 382 424 l 382 229 q 355 126 382 163 q 268 89 328 89 q 182 126 210 89 q 154 229 154 163 l 154 743 q 182 847 154 810 q 268 883 210 883 q 355 847 328 883 q 382 743 382 810 l 382 654 l 485 654 l 485 738 q 431 915 485 849 q 265 982 378 982 m 254 -168 l 222 -246 l 263 -246 l 311 -158 l 311 -46 l 219 -46 l 219 -168 l 254 -168 "},"Ķ":{"ha":568,"x_min":56,"x_max":540,"o":"m 221 422 l 429 0 l 540 0 l 286 529 l 532 972 l 422 972 l 164 503 l 164 972 l 56 972 l 56 0 l 164 0 l 164 326 l 221 422 m 274 -168 l 242 -246 l 282 -246 l 331 -158 l 331 -46 l 239 -46 l 239 -168 l 274 -168 "},"Ļ":{"ha":468,"x_min":56,"x_max":442,"o":"m 56 0 l 442 0 l 442 99 l 164 99 l 164 972 l 56 972 l 56 0 m 242 -169 l 210 -249 l 250 -249 l 299 -161 l 299 -49 l 207 -49 l 207 -169 l 242 -169 "},"Ņ":{"ha":568,"x_min":54,"x_max":513,"o":"m 151 0 l 151 786 l 400 0 l 513 0 l 513 972 l 417 972 l 417 269 l 192 972 l 54 972 l 54 0 l 151 0 m 272 -168 l 240 -246 l 279 -246 l 328 -158 l 328 -46 l 238 -46 l 238 -168 l 272 -168 "},"Ŗ":{"ha":547,"x_min":56,"x_max":510,"o":"m 272 972 l 56 972 l 56 0 l 164 0 l 164 415 l 240 415 q 345 384 308 415 q 382 271 382 353 l 382 118 q 386 45 382 69 q 400 0 390 21 l 510 0 q 493 55 496 25 q 490 117 490 85 l 490 268 q 463 399 490 347 q 368 471 435 451 q 460 540 431 490 q 489 671 489 590 l 489 750 q 438 915 489 858 q 272 972 388 972 m 244 514 l 164 514 l 164 874 l 269 874 q 356 840 331 874 q 382 740 382 807 l 382 647 q 346 541 382 568 q 244 514 310 514 m 261 -167 l 229 -246 l 269 -246 l 318 -158 l 318 -46 l 228 -46 l 228 -167 l 261 -167 "},"Ţ":{"ha":517,"x_min":25,"x_max":492,"o":"m 283 0 l 313 0 l 313 874 l 492 874 l 492 972 l 25 972 l 25 874 l 204 874 l 204 0 l 232 0 l 232 -89 l 244 -89 q 291 -98 272 -89 q 310 -135 310 -107 q 292 -171 310 -160 q 253 -182 275 -182 q 217 -174 235 -182 q 200 -142 200 -165 l 200 -131 l 135 -131 l 135 -142 q 145 -183 135 -165 q 172 -211 156 -200 q 210 -228 189 -222 q 254 -233 232 -233 q 300 -228 278 -233 q 339 -211 322 -224 q 366 -178 356 -199 q 376 -131 376 -158 q 350 -72 376 -90 q 283 -53 324 -53 l 283 0 "},"Ș":{"ha":517,"x_min":40,"x_max":478,"o":"m 260 982 q 97 917 150 982 q 44 739 44 851 q 69 622 44 671 q 129 533 93 572 q 207 462 165 494 q 285 395 249 429 q 345 322 321 361 q 369 228 369 282 q 342 125 369 161 q 256 89 314 89 q 169 125 197 89 q 142 228 142 161 l 142 289 l 40 289 l 40 233 q 93 56 40 122 q 258 -10 146 -10 q 424 56 371 -10 q 478 233 478 122 q 453 351 478 301 q 393 439 429 400 q 315 510 357 478 q 236 577 272 543 q 176 651 200 611 q 151 746 151 692 q 178 847 151 811 q 263 883 204 883 q 347 847 321 883 q 374 744 374 811 l 374 713 l 476 713 l 476 739 q 424 916 476 850 q 260 982 371 982 m 244 -168 l 213 -246 l 253 -246 l 301 -158 l 301 -46 l 210 -46 l 210 -168 l 244 -168 "},"Ț":{"ha":517,"x_min":25,"x_max":492,"o":"m 204 0 l 313 0 l 313 874 l 492 874 l 492 972 l 25 972 l 25 874 l 204 874 l 204 0 m 247 -168 l 215 -246 l 256 -246 l 304 -158 l 304 -46 l 213 -46 l 213 -168 l 247 -168 "},"Ḃ":{"ha":544,"x_min":56,"x_max":501,"o":"m 294 1153 l 200 1153 l 200 1028 l 294 1028 l 294 1153 m 274 972 l 56 972 l 56 0 l 279 0 q 447 59 393 0 q 501 228 501 118 l 501 310 q 472 444 501 390 q 371 518 442 499 q 460 585 435 538 q 485 711 485 633 l 485 757 q 436 919 485 865 q 274 972 388 972 m 247 560 l 164 560 l 164 874 l 271 874 q 353 842 329 874 q 378 746 378 811 l 378 689 q 345 586 378 613 q 247 560 313 560 m 279 99 l 164 99 l 164 461 l 258 461 q 362 430 329 461 q 394 317 394 399 l 394 231 q 279 99 394 99 "},"Ḋ":{"ha":550,"x_min":56,"x_max":504,"o":"m 304 1153 l 210 1153 l 210 1028 l 304 1028 l 304 1153 m 283 972 l 56 972 l 56 0 l 283 0 q 451 64 397 0 q 504 240 504 128 l 504 731 q 451 908 504 843 q 283 972 397 972 m 282 99 l 164 99 l 164 874 l 281 874 q 369 838 340 874 q 397 736 397 803 l 397 236 q 369 134 397 169 q 282 99 340 99 "},"Ḟ":{"ha":472,"x_min":56,"x_max":442,"o":"m 293 1151 l 199 1151 l 199 1026 l 293 1026 l 293 1151 m 388 519 l 164 519 l 164 874 l 442 874 l 442 972 l 56 972 l 56 0 l 164 0 l 164 421 l 388 421 l 388 519 "},"Ṁ":{"ha":726,"x_min":54,"x_max":671,"o":"m 410 1156 l 315 1156 l 315 1029 l 410 1029 l 410 1156 m 414 1 l 568 782 l 568 0 l 671 0 l 671 972 l 519 972 l 365 196 l 206 972 l 54 972 l 54 0 l 149 0 l 149 775 l 310 1 l 414 1 "},"Ṗ":{"ha":515,"x_min":56,"x_max":486,"o":"m 297 1153 l 203 1153 l 203 1028 l 297 1028 l 297 1153 m 268 972 l 56 972 l 56 0 l 164 0 l 164 383 l 260 383 q 431 442 376 383 q 486 618 486 501 l 486 735 q 435 909 486 846 q 268 972 383 972 m 260 481 l 164 481 l 164 874 l 268 874 q 353 840 328 874 q 379 740 379 807 l 379 611 q 350 510 379 540 q 260 481 321 481 "},"Ṡ":{"ha":517,"x_min":40,"x_max":478,"o":"m 306 1153 l 211 1153 l 211 1028 l 306 1028 l 306 1153 m 260 982 q 97 917 150 982 q 44 739 44 851 q 69 622 44 671 q 129 533 93 572 q 207 462 165 494 q 285 395 249 429 q 345 322 321 361 q 369 228 369 282 q 342 125 369 161 q 256 89 314 89 q 169 125 197 89 q 142 228 142 161 l 142 289 l 40 289 l 40 233 q 93 56 40 122 q 258 -10 146 -10 q 424 56 371 -10 q 478 233 478 122 q 453 351 478 301 q 393 439 429 400 q 315 510 357 478 q 236 577 272 543 q 176 651 200 611 q 151 746 151 692 q 178 847 151 811 q 263 883 204 883 q 347 847 321 883 q 374 744 374 811 l 374 713 l 476 713 l 476 739 q 424 916 476 850 q 260 982 371 982 "},"Ṫ":{"ha":517,"x_min":25,"x_max":492,"o":"m 306 1153 l 211 1153 l 211 1028 l 306 1028 l 306 1153 m 204 0 l 313 0 l 313 874 l 492 874 l 492 972 l 25 972 l 25 874 l 204 874 l 204 0 "},"a":{"ha":586,"x_min":28,"x_max":557,"o":"m 165 196 l 411 196 l 449 0 l 557 0 l 371 972 l 214 972 l 28 0 l 128 0 l 165 196 m 179 289 l 286 850 l 396 289 l 179 289 "},"á":{"ha":586,"x_min":28,"x_max":557,"o":"m 424 1167 l 317 1167 l 219 1024 l 296 1024 l 424 1167 m 165 196 l 411 196 l 449 0 l 557 0 l 371 972 l 214 972 l 28 0 l 128 0 l 165 196 m 179 289 l 286 850 l 396 289 l 179 289 "},"ă":{"ha":586,"x_min":28,"x_max":557,"o":"m 436 1158 l 371 1158 q 346 1102 368 1118 q 290 1086 324 1086 q 237 1102 258 1086 q 213 1158 215 1118 l 147 1158 q 185 1056 149 1093 q 290 1018 222 1018 q 397 1056 358 1018 q 436 1158 436 1093 m 165 196 l 411 196 l 449 0 l 557 0 l 371 972 l 214 972 l 28 0 l 128 0 l 165 196 m 179 289 l 286 850 l 396 289 l 179 289 "},"â":{"ha":586,"x_min":28,"x_max":557,"o":"m 218 1024 l 292 1106 l 365 1024 l 460 1024 l 340 1163 l 243 1163 l 124 1024 l 218 1024 m 165 196 l 411 196 l 449 0 l 557 0 l 371 972 l 214 972 l 28 0 l 128 0 l 165 196 m 179 289 l 286 850 l 396 289 l 179 289 "},"ä":{"ha":586,"x_min":28,"x_max":557,"o":"m 253 1149 l 158 1149 l 158 1024 l 253 1024 l 253 1149 m 425 1149 l 331 1149 l 331 1024 l 425 1024 l 425 1149 m 165 196 l 411 196 l 449 0 l 557 0 l 371 972 l 214 972 l 28 0 l 128 0 l 165 196 m 179 289 l 286 850 l 396 289 l 179 289 "},"à":{"ha":586,"x_min":28,"x_max":557,"o":"m 264 1167 l 153 1167 l 282 1024 l 361 1024 l 264 1167 m 165 196 l 411 196 l 449 0 l 557 0 l 371 972 l 214 972 l 28 0 l 128 0 l 165 196 m 179 289 l 286 850 l 396 289 l 179 289 "},"ā":{"ha":586,"x_min":28,"x_max":557,"o":"m 439 1119 l 144 1119 l 144 1042 l 439 1042 l 439 1119 m 165 196 l 411 196 l 449 0 l 557 0 l 371 972 l 214 972 l 28 0 l 128 0 l 165 196 m 179 289 l 286 850 l 396 289 l 179 289 "},"ą":{"ha":586,"x_min":28,"x_max":575,"o":"m 518 0 l 557 0 l 371 972 l 214 972 l 28 0 l 128 0 l 165 196 l 411 196 l 451 -10 q 401 -62 419 -33 q 385 -121 383 -92 q 415 -180 386 -161 q 489 -199 443 -199 q 535 -195 515 -199 q 575 -182 554 -192 l 575 -125 q 551 -134 564 -131 q 519 -137 539 -137 q 485 -128 500 -137 q 468 -96 469 -118 q 480 -49 467 -76 q 518 0 493 -21 m 179 289 l 286 850 l 396 289 l 179 289 "},"å":{"ha":586,"x_min":28,"x_max":557,"o":"m 292 1226 q 218 1197 247 1226 q 189 1125 189 1168 q 218 1052 189 1081 q 292 1024 247 1024 q 364 1052 335 1024 q 393 1125 393 1081 q 364 1197 393 1168 q 292 1226 335 1226 m 292 1175 q 327 1160 313 1175 q 342 1125 342 1146 q 327 1089 342 1103 q 292 1075 313 1075 q 255 1089 269 1075 q 240 1125 240 1103 q 255 1160 240 1146 q 292 1175 269 1175 m 165 196 l 411 196 l 449 0 l 557 0 l 371 972 l 214 972 l 28 0 l 128 0 l 165 196 m 179 289 l 286 850 l 396 289 l 179 289 "},"ã":{"ha":586,"x_min":28,"x_max":557,"o":"m 224 1147 q 165 1128 192 1146 q 122 1067 139 1110 l 176 1029 q 201 1062 188 1053 q 235 1071 215 1071 q 265 1065 251 1071 q 294 1051 279 1058 q 325 1037 308 1043 q 363 1031 342 1031 q 419 1050 394 1031 q 461 1110 444 1069 l 407 1147 q 383 1116 396 1125 q 351 1106 369 1107 q 322 1112 336 1106 q 294 1126 308 1118 q 262 1141 279 1135 q 224 1147 244 1147 m 165 196 l 411 196 l 449 0 l 557 0 l 371 972 l 214 972 l 28 0 l 128 0 l 165 196 m 179 289 l 286 850 l 396 289 l 179 289 "},"æ":{"ha":813,"x_min":22,"x_max":768,"o":"m 717 542 l 493 542 l 493 874 l 768 874 l 768 972 l 325 972 l 22 0 l 125 0 l 188 197 l 386 197 l 386 0 l 768 0 l 768 99 l 493 99 l 493 444 l 717 444 l 717 542 m 213 292 l 386 836 l 386 292 l 213 292 "},"ǽ":{"ha":813,"x_min":22,"x_max":768,"o":"m 569 1172 l 463 1172 l 365 1029 l 440 1029 l 569 1172 m 717 542 l 493 542 l 493 874 l 768 874 l 768 972 l 325 972 l 22 0 l 125 0 l 188 197 l 386 197 l 386 0 l 768 0 l 768 99 l 493 99 l 493 444 l 717 444 l 717 542 m 213 292 l 386 836 l 386 292 l 213 292 "},"b":{"ha":544,"x_min":56,"x_max":501,"o":"m 274 972 l 56 972 l 56 0 l 279 0 q 447 59 393 0 q 501 228 501 118 l 501 310 q 472 444 501 390 q 371 518 442 499 q 460 585 435 538 q 485 711 485 633 l 485 757 q 436 919 485 865 q 274 972 388 972 m 247 560 l 164 560 l 164 874 l 271 874 q 353 842 329 874 q 378 746 378 811 l 378 689 q 345 586 378 613 q 247 560 313 560 m 279 99 l 164 99 l 164 461 l 258 461 q 362 430 329 461 q 394 317 394 399 l 394 231 q 279 99 394 99 "},"c":{"ha":528,"x_min":47,"x_max":485,"o":"m 265 982 q 169 965 210 982 q 101 915 128 947 q 60 838 74 883 q 47 738 47 793 l 47 235 q 101 57 47 124 q 265 -10 154 -10 q 431 57 378 -10 q 485 235 485 124 l 485 356 l 382 356 l 382 229 q 355 126 382 163 q 268 89 328 89 q 182 126 210 89 q 154 229 154 163 l 154 743 q 182 847 154 810 q 268 883 210 883 q 355 847 328 883 q 382 743 382 810 l 382 650 l 485 650 l 485 738 q 431 915 485 849 q 265 982 378 982 "},"ć":{"ha":528,"x_min":47,"x_max":485,"o":"m 407 1174 l 299 1174 l 201 1031 l 278 1031 l 407 1174 m 265 982 q 169 965 210 982 q 101 915 128 947 q 60 838 74 883 q 47 738 47 793 l 47 235 q 101 57 47 124 q 265 -10 154 -10 q 431 57 378 -10 q 485 235 485 124 l 485 356 l 382 356 l 382 229 q 355 126 382 163 q 268 89 328 89 q 182 126 210 89 q 154 229 154 163 l 154 743 q 182 847 154 810 q 268 883 210 883 q 355 847 328 883 q 382 743 382 810 l 382 650 l 485 650 l 485 738 q 431 915 485 849 q 265 982 378 982 "},"č":{"ha":528,"x_min":47,"x_max":485,"o":"m 196 1168 l 101 1168 l 221 1029 l 317 1029 l 438 1168 l 342 1168 l 268 1085 l 196 1168 m 265 982 q 169 965 210 982 q 101 915 128 947 q 60 838 74 883 q 47 738 47 793 l 47 235 q 101 57 47 124 q 265 -10 154 -10 q 431 57 378 -10 q 485 235 485 124 l 485 356 l 382 356 l 382 229 q 355 126 382 163 q 268 89 328 89 q 182 126 210 89 q 154 229 154 163 l 154 743 q 182 847 154 810 q 268 883 210 883 q 355 847 328 883 q 382 743 382 810 l 382 650 l 485 650 l 485 738 q 431 915 485 849 q 265 982 378 982 "},"ç":{"ha":528,"x_min":47,"x_max":485,"o":"m 265 982 q 169 965 210 982 q 101 915 128 947 q 60 838 74 883 q 47 738 47 793 l 47 235 q 94 65 47 132 q 239 -8 140 -1 l 239 -78 l 251 -78 q 319 -119 319 -78 q 260 -164 319 -164 q 203 -124 203 -160 l 203 -114 l 132 -114 l 132 -125 q 165 -188 132 -165 q 260 -211 199 -211 q 357 -187 322 -211 q 392 -122 392 -164 q 365 -70 392 -89 q 289 -51 338 -51 l 289 -8 q 437 65 389 -1 q 485 235 485 131 l 485 356 l 382 356 l 382 229 q 355 126 382 163 q 268 89 328 89 q 182 126 210 89 q 154 229 154 163 l 154 743 q 182 847 154 810 q 268 883 210 883 q 355 847 328 883 q 382 743 382 810 l 382 650 l 485 650 l 485 738 q 431 915 485 849 q 265 982 378 982 "},"ĉ":{"ha":528,"x_min":47,"x_max":485,"o":"m 194 1028 l 268 1110 l 342 1028 l 436 1028 l 315 1168 l 219 1168 l 100 1028 l 194 1028 m 265 982 q 169 965 210 982 q 101 915 128 947 q 60 838 74 883 q 47 738 47 793 l 47 235 q 101 57 47 124 q 265 -10 154 -10 q 431 57 378 -10 q 485 235 485 124 l 485 356 l 382 356 l 382 229 q 355 126 382 163 q 268 89 328 89 q 182 126 210 89 q 154 229 154 163 l 154 743 q 182 847 154 810 q 268 883 210 883 q 355 847 328 883 q 382 743 382 810 l 382 650 l 485 650 l 485 738 q 431 915 485 849 q 265 982 378 982 "},"ċ":{"ha":528,"x_min":47,"x_max":485,"o":"m 313 1150 l 218 1150 l 218 1025 l 313 1025 l 313 1150 m 265 982 q 169 965 210 982 q 101 915 128 947 q 60 838 74 883 q 47 738 47 793 l 47 235 q 101 57 47 124 q 265 -10 154 -10 q 431 57 378 -10 q 485 235 485 124 l 485 356 l 382 356 l 382 229 q 355 126 382 163 q 268 89 328 89 q 182 126 210 89 q 154 229 154 163 l 154 743 q 182 847 154 810 q 268 883 210 883 q 355 847 328 883 q 382 743 382 810 l 382 650 l 485 650 l 485 738 q 431 915 485 849 q 265 982 378 982 "},"d":{"ha":550,"x_min":56,"x_max":504,"o":"m 283 972 l 56 972 l 56 0 l 283 0 q 451 64 397 0 q 504 240 504 128 l 504 731 q 451 908 504 843 q 283 972 397 972 m 282 99 l 164 99 l 164 874 l 281 874 q 369 838 340 874 q 397 736 397 803 l 397 236 q 369 134 397 169 q 282 99 340 99 "},"ð":{"ha":550,"x_min":1,"x_max":504,"o":"m 283 972 l 56 972 l 56 529 l 1 529 l 1 442 l 56 442 l 56 0 l 283 0 q 451 64 397 0 q 504 240 504 128 l 504 731 q 451 908 504 843 q 283 972 397 972 m 274 442 l 274 529 l 164 529 l 164 874 l 281 874 q 369 838 340 874 q 397 736 397 803 l 397 236 q 369 134 397 169 q 282 99 340 99 l 164 99 l 164 442 l 274 442 "},"ď":{"ha":550,"x_min":56,"x_max":504,"o":"m 188 1165 l 93 1165 l 214 1026 l 310 1026 l 431 1165 l 335 1165 l 261 1082 l 188 1165 m 283 972 l 56 972 l 56 0 l 283 0 q 451 64 397 0 q 504 240 504 128 l 504 731 q 451 908 504 843 q 283 972 397 972 m 282 99 l 164 99 l 164 874 l 281 874 q 369 838 340 874 q 397 736 397 803 l 397 236 q 369 134 397 169 q 282 99 340 99 "},"đ":{"ha":550,"x_min":1,"x_max":504,"o":"m 283 972 l 56 972 l 56 529 l 1 529 l 1 442 l 56 442 l 56 0 l 283 0 q 451 64 397 0 q 504 240 504 128 l 504 731 q 451 908 504 843 q 283 972 397 972 m 274 442 l 274 529 l 164 529 l 164 874 l 281 874 q 369 838 340 874 q 397 736 397 803 l 397 236 q 369 134 397 169 q 282 99 340 99 l 164 99 l 164 442 l 274 442 "},"e":{"ha":500,"x_min":56,"x_max":456,"o":"m 401 542 l 164 542 l 164 874 l 456 874 l 456 972 l 56 972 l 56 0 l 456 0 l 456 99 l 164 99 l 164 444 l 401 444 l 401 542 "},"é":{"ha":500,"x_min":56,"x_max":456,"o":"m 393 1169 l 286 1169 l 189 1026 l 264 1026 l 393 1169 m 401 542 l 164 542 l 164 874 l 456 874 l 456 972 l 56 972 l 56 0 l 456 0 l 456 99 l 164 99 l 164 444 l 401 444 l 401 542 "},"ĕ":{"ha":500,"x_min":56,"x_max":456,"o":"m 399 1167 l 333 1167 q 308 1110 331 1126 q 251 1094 286 1094 q 198 1110 219 1094 q 174 1167 176 1126 l 108 1167 q 147 1063 110 1100 q 251 1026 185 1026 q 359 1063 321 1026 q 399 1167 397 1100 m 401 542 l 164 542 l 164 874 l 456 874 l 456 972 l 56 972 l 56 0 l 456 0 l 456 99 l 164 99 l 164 444 l 401 444 l 401 542 "},"ě":{"ha":500,"x_min":56,"x_max":456,"o":"m 182 1165 l 88 1165 l 207 1026 l 303 1026 l 424 1165 l 329 1165 l 254 1082 l 182 1165 m 401 542 l 164 542 l 164 874 l 456 874 l 456 972 l 56 972 l 56 0 l 456 0 l 456 99 l 164 99 l 164 444 l 401 444 l 401 542 "},"ê":{"ha":500,"x_min":56,"x_max":456,"o":"m 181 1026 l 253 1110 l 328 1026 l 422 1026 l 301 1167 l 206 1167 l 86 1026 l 181 1026 m 401 542 l 164 542 l 164 874 l 456 874 l 456 972 l 56 972 l 56 0 l 456 0 l 456 99 l 164 99 l 164 444 l 401 444 l 401 542 "},"ë":{"ha":500,"x_min":56,"x_max":456,"o":"m 215 1151 l 121 1151 l 121 1026 l 215 1026 l 215 1151 m 388 1151 l 293 1151 l 293 1026 l 388 1026 l 388 1151 m 401 542 l 164 542 l 164 874 l 456 874 l 456 972 l 56 972 l 56 0 l 456 0 l 456 99 l 164 99 l 164 444 l 401 444 l 401 542 "},"ė":{"ha":500,"x_min":56,"x_max":456,"o":"m 303 1153 l 208 1153 l 208 1028 l 303 1028 l 303 1153 m 401 542 l 164 542 l 164 874 l 456 874 l 456 972 l 56 972 l 56 0 l 456 0 l 456 99 l 164 99 l 164 444 l 401 444 l 401 542 "},"è":{"ha":500,"x_min":56,"x_max":456,"o":"m 232 1174 l 119 1174 l 249 1031 l 328 1031 l 232 1174 m 401 542 l 164 542 l 164 874 l 456 874 l 456 972 l 56 972 l 56 0 l 456 0 l 456 99 l 164 99 l 164 444 l 401 444 l 401 542 "},"ē":{"ha":500,"x_min":56,"x_max":456,"o":"m 397 1121 l 107 1121 l 107 1044 l 397 1044 l 397 1121 m 401 542 l 164 542 l 164 874 l 456 874 l 456 972 l 56 972 l 56 0 l 456 0 l 456 99 l 164 99 l 164 444 l 401 444 l 401 542 "},"ę":{"ha":500,"x_min":56,"x_max":465,"o":"m 401 542 l 164 542 l 164 874 l 456 874 l 456 972 l 56 972 l 56 0 l 360 0 q 298 -56 321 -24 q 275 -121 275 -87 q 305 -180 276 -161 q 381 -199 333 -199 q 425 -195 406 -199 q 465 -182 444 -192 l 465 -125 q 442 -134 454 -131 q 411 -137 431 -137 q 375 -128 390 -137 q 358 -96 360 -118 q 371 -49 358 -76 q 410 0 383 -21 l 456 0 l 456 99 l 164 99 l 164 444 l 401 444 l 401 542 "},"f":{"ha":472,"x_min":56,"x_max":442,"o":"m 388 519 l 164 519 l 164 874 l 442 874 l 442 972 l 56 972 l 56 0 l 164 0 l 164 421 l 388 421 l 388 519 "},"g":{"ha":532,"x_min":47,"x_max":485,"o":"m 265 982 q 169 965 210 982 q 101 915 128 947 q 60 838 74 883 q 47 738 47 793 l 47 235 q 101 57 47 124 q 265 -10 154 -10 q 431 57 378 -10 q 485 235 485 124 l 485 521 l 282 521 l 282 424 l 382 424 l 382 229 q 355 126 382 163 q 268 89 328 89 q 182 126 210 89 q 154 229 154 163 l 154 743 q 182 847 154 810 q 268 883 210 883 q 355 847 328 883 q 382 743 382 810 l 382 654 l 485 654 l 485 738 q 431 915 485 849 q 265 982 378 982 "},"ğ":{"ha":532,"x_min":47,"x_max":485,"o":"m 411 1168 l 346 1168 q 321 1112 343 1128 q 265 1096 299 1096 q 210 1112 232 1096 q 186 1168 189 1128 l 121 1168 q 160 1065 122 1101 q 265 1028 197 1028 q 372 1065 333 1028 q 411 1168 410 1101 m 265 982 q 169 965 210 982 q 101 915 128 947 q 60 838 74 883 q 47 738 47 793 l 47 235 q 101 57 47 124 q 265 -10 154 -10 q 431 57 378 -10 q 485 235 485 124 l 485 521 l 282 521 l 282 424 l 382 424 l 382 229 q 355 126 382 163 q 268 89 328 89 q 182 126 210 89 q 154 229 154 163 l 154 743 q 182 847 154 810 q 268 883 210 883 q 355 847 328 883 q 382 743 382 810 l 382 654 l 485 654 l 485 738 q 431 915 485 849 q 265 982 378 982 "},"ĝ":{"ha":532,"x_min":47,"x_max":485,"o":"m 193 1031 l 265 1113 l 340 1031 l 435 1031 l 314 1169 l 218 1169 l 99 1031 l 193 1031 m 265 982 q 169 965 210 982 q 101 915 128 947 q 60 838 74 883 q 47 738 47 793 l 47 235 q 101 57 47 124 q 265 -10 154 -10 q 431 57 378 -10 q 485 235 485 124 l 485 521 l 282 521 l 282 424 l 382 424 l 382 229 q 355 126 382 163 q 268 89 328 89 q 182 126 210 89 q 154 229 154 163 l 154 743 q 182 847 154 810 q 268 883 210 883 q 355 847 328 883 q 382 743 382 810 l 382 654 l 485 654 l 485 738 q 431 915 485 849 q 265 982 378 982 "},"ġ":{"ha":532,"x_min":47,"x_max":485,"o":"m 317 1153 l 222 1153 l 222 1028 l 317 1028 l 317 1153 m 265 982 q 169 965 210 982 q 101 915 128 947 q 60 838 74 883 q 47 738 47 793 l 47 235 q 101 57 47 124 q 265 -10 154 -10 q 431 57 378 -10 q 485 235 485 124 l 485 521 l 282 521 l 282 424 l 382 424 l 382 229 q 355 126 382 163 q 268 89 328 89 q 182 126 210 89 q 154 229 154 163 l 154 743 q 182 847 154 810 q 268 883 210 883 q 355 847 328 883 q 382 743 382 810 l 382 654 l 485 654 l 485 738 q 431 915 485 849 q 265 982 378 982 "},"h":{"ha":567,"x_min":56,"x_max":511,"o":"m 164 438 l 403 438 l 403 0 l 511 0 l 511 972 l 403 972 l 403 535 l 164 535 l 164 972 l 56 972 l 56 0 l 164 0 l 164 438 "},"ħ":{"ha":576,"x_min":10,"x_max":567,"o":"m 517 714 l 567 714 l 567 794 l 517 794 l 517 972 l 407 972 l 407 794 l 168 794 l 168 972 l 60 972 l 60 794 l 10 794 l 10 714 l 60 714 l 60 0 l 168 0 l 168 438 l 407 438 l 407 0 l 517 0 l 517 714 m 407 714 l 407 535 l 168 535 l 168 714 l 407 714 "},"ĥ":{"ha":567,"x_min":56,"x_max":511,"o":"m 210 1029 l 283 1111 l 357 1029 l 451 1029 l 332 1169 l 236 1169 l 115 1029 l 210 1029 m 164 438 l 403 438 l 403 0 l 511 0 l 511 972 l 403 972 l 403 535 l 164 535 l 164 972 l 56 972 l 56 0 l 164 0 l 164 438 "},"i":{"ha":219,"x_min":56,"x_max":164,"o":"m 164 972 l 56 972 l 56 0 l 164 0 l 164 972 "},"ı":{"ha":219,"x_min":56,"x_max":164,"o":"m 164 972 l 56 972 l 56 0 l 164 0 l 164 972 "},"í":{"ha":219,"x_min":43,"x_max":247,"o":"m 139 1169 l 43 1026 l 118 1026 l 247 1169 l 139 1169 m 56 972 l 56 0 l 164 0 l 164 972 l 56 972 "},"ĭ":{"ha":219,"x_min":-35,"x_max":254,"o":"m 254 1164 l 189 1164 q 164 1106 186 1122 q 108 1090 142 1090 q 55 1106 76 1090 q 31 1164 33 1122 l -35 1164 q 3 1060 -33 1097 q 108 1022 40 1022 q 215 1060 176 1022 q 254 1164 254 1097 m 56 972 l 56 0 l 164 0 l 164 972 l 56 972 "},"î":{"ha":219,"x_min":-58,"x_max":278,"o":"m 157 1165 l 61 1165 l -58 1026 l 36 1026 l 110 1108 l 183 1026 l 278 1026 l 157 1165 m 56 972 l 56 0 l 164 0 l 164 972 l 56 972 "},"ï":{"ha":219,"x_min":-24,"x_max":243,"o":"m 71 1151 l -24 1151 l -24 1026 l 71 1026 l 71 1151 m 243 1151 l 149 1151 l 149 1026 l 243 1026 l 243 1151 m 164 972 l 56 972 l 56 0 l 164 0 l 164 972 "},"ì":{"ha":219,"x_min":-35,"x_max":175,"o":"m -35 1169 l 94 1026 l 175 1026 l 78 1169 l -35 1169 m 56 972 l 56 0 l 164 0 l 164 972 l 56 972 "},"ĳ":{"ha":572,"x_min":56,"x_max":522,"o":"m 164 972 l 56 972 l 56 0 l 164 0 l 164 972 m 522 240 l 522 972 l 414 972 l 414 233 q 384 130 414 160 q 299 97 354 100 q 273 97 286 97 q 246 99 260 97 l 246 0 q 278 -1 264 -1 q 313 -1 293 -1 q 395 12 357 0 q 462 51 433 24 q 506 125 490 79 q 522 240 522 171 "},"ī":{"ha":219,"x_min":-29,"x_max":247,"o":"m 247 1119 l -29 1119 l -29 1042 l 247 1042 l 247 1119 m 164 972 l 56 972 l 56 0 l 164 0 l 164 972 "},"į":{"ha":219,"x_min":10,"x_max":201,"o":"m 144 0 l 164 0 l 164 972 l 56 972 l 56 0 l 96 0 q 32 -57 54 -25 q 11 -121 10 -89 q 40 -180 11 -161 q 115 -199 69 -199 q 160 -195 140 -199 q 201 -182 181 -192 l 201 -125 q 177 -134 189 -131 q 146 -137 165 -137 q 110 -128 125 -137 q 94 -96 94 -118 q 106 -49 93 -76 q 144 0 118 -21 "},"ĩ":{"ha":219,"x_min":-60,"x_max":279,"o":"m 279 1114 l 226 1150 q 202 1119 215 1128 q 171 1110 189 1110 q 141 1116 156 1110 q 112 1130 126 1122 q 81 1144 97 1138 q 43 1150 64 1150 q -15 1131 11 1150 q -60 1069 -42 1113 l -6 1033 q 19 1065 6 1057 q 53 1074 33 1074 q 83 1067 69 1074 q 113 1053 97 1061 q 144 1040 128 1046 q 181 1033 160 1033 q 279 1114 249 1033 m 164 972 l 56 972 l 56 0 l 164 0 l 164 972 "},"j":{"ha":354,"x_min":28,"x_max":303,"o":"m 28 99 l 28 0 q 61 -2 46 -3 q 96 -1 76 -1 q 177 12 139 0 q 243 52 215 24 q 287 126 271 81 q 303 240 303 172 l 303 972 l 196 972 l 196 233 q 165 130 196 160 q 82 97 135 100 q 56 97 69 97 q 28 99 42 97 "},"ȷ":{"ha":354,"x_min":28,"x_max":303,"o":"m 28 99 l 28 0 q 61 -2 46 -3 q 96 -1 76 -1 q 177 12 139 0 q 243 52 215 24 q 287 126 271 81 q 303 240 303 172 l 303 972 l 196 972 l 196 233 q 165 130 196 160 q 82 97 135 100 q 56 97 69 97 q 28 99 42 97 "},"ĵ":{"ha":354,"x_min":28,"x_max":400,"o":"m 158 1026 l 232 1110 l 306 1026 l 400 1026 l 279 1167 l 183 1167 l 64 1026 l 158 1026 m 303 240 l 303 972 l 196 972 l 196 233 q 165 130 196 160 q 82 97 135 100 q 56 97 69 97 q 28 99 42 97 l 28 0 q 61 -2 46 -3 q 96 -1 76 -1 q 177 12 139 0 q 243 52 215 24 q 287 126 271 81 q 303 240 303 172 "},"k":{"ha":568,"x_min":56,"x_max":540,"o":"m 221 422 l 429 0 l 540 0 l 286 529 l 532 972 l 422 972 l 164 503 l 164 972 l 56 972 l 56 0 l 164 0 l 164 326 l 221 422 "},"ĸ":{"ha":568,"x_min":56,"x_max":540,"o":"m 221 422 l 429 0 l 540 0 l 286 529 l 532 972 l 422 972 l 164 503 l 164 972 l 56 972 l 56 0 l 164 0 l 164 326 l 221 422 "},"l":{"ha":468,"x_min":56,"x_max":442,"o":"m 56 0 l 442 0 l 442 99 l 164 99 l 164 972 l 56 972 l 56 0 "},"ĺ":{"ha":468,"x_min":56,"x_max":442,"o":"m 282 1169 l 174 1169 l 78 1026 l 153 1026 l 282 1169 m 56 0 l 442 0 l 442 99 l 164 99 l 164 972 l 56 972 l 56 0 "},"ľ":{"ha":468,"x_min":56,"x_max":442,"o":"m 56 0 l 442 0 l 442 99 l 164 99 l 164 972 l 56 972 l 56 0 m 336 838 l 301 715 l 347 715 l 400 849 l 400 972 l 296 972 l 296 838 l 336 838 "},"ŀ":{"ha":468,"x_min":56,"x_max":442,"o":"m 56 0 l 442 0 l 442 99 l 164 99 l 164 972 l 56 972 l 56 0 m 378 556 l 274 556 l 274 421 l 378 421 l 378 556 "},"ł":{"ha":483,"x_min":0,"x_max":457,"o":"m 178 404 l 329 561 l 329 661 l 178 504 l 178 972 l 71 972 l 71 389 l 0 319 l 0 219 l 71 289 l 71 0 l 457 0 l 457 99 l 178 99 l 178 404 "},"m":{"ha":726,"x_min":54,"x_max":671,"o":"m 414 1 l 568 782 l 568 0 l 671 0 l 671 972 l 519 972 l 365 196 l 206 972 l 54 972 l 54 0 l 149 0 l 149 775 l 310 1 l 414 1 "},"n":{"ha":568,"x_min":54,"x_max":513,"o":"m 151 0 l 151 786 l 400 0 l 513 0 l 513 972 l 417 972 l 417 269 l 192 972 l 54 972 l 54 0 l 151 0 "},"ń":{"ha":568,"x_min":54,"x_max":513,"o":"m 425 1169 l 318 1169 l 221 1028 l 296 1028 l 425 1169 m 151 0 l 151 788 l 400 0 l 513 0 l 513 972 l 417 972 l 417 269 l 192 972 l 54 972 l 54 0 l 151 0 "},"ŉ":{"ha":699,"x_min":15,"x_max":644,"o":"m 56 838 l 21 715 l 67 715 l 119 849 l 119 972 l 15 972 l 15 838 l 56 838 m 283 0 l 283 786 l 532 0 l 644 0 l 644 972 l 549 972 l 549 269 l 324 972 l 186 972 l 186 0 l 283 0 "},"ň":{"ha":568,"x_min":54,"x_max":513,"o":"m 211 1169 l 117 1169 l 238 1029 l 333 1029 l 453 1169 l 358 1169 l 285 1086 l 211 1169 m 151 0 l 151 786 l 400 0 l 513 0 l 513 972 l 417 972 l 417 269 l 192 972 l 54 972 l 54 0 l 151 0 "},"ñ":{"ha":568,"x_min":54,"x_max":513,"o":"m 454 1117 l 400 1153 q 344 1113 381 1113 q 315 1119 329 1113 q 287 1133 301 1125 q 256 1147 272 1140 q 218 1153 239 1153 q 158 1134 185 1153 q 115 1072 132 1115 l 169 1036 q 194 1068 181 1060 q 228 1076 208 1076 q 258 1070 244 1076 q 287 1056 272 1064 q 318 1042 301 1049 q 356 1036 335 1036 q 413 1056 388 1036 q 454 1117 438 1075 m 151 0 l 151 786 l 400 0 l 513 0 l 513 972 l 417 972 l 417 269 l 192 972 l 54 972 l 54 0 l 151 0 "},"o":{"ha":540,"x_min":47,"x_max":493,"o":"m 47 738 l 47 235 q 102 57 47 124 q 269 -10 157 -10 q 438 57 382 -10 q 493 235 493 124 l 493 738 q 438 916 493 850 q 269 982 382 982 q 102 916 157 982 q 47 738 47 850 m 154 229 l 154 743 q 183 847 154 810 q 269 883 211 883 q 357 847 329 883 q 385 743 385 810 l 385 229 q 357 126 385 163 q 269 89 329 89 q 183 126 211 89 q 154 229 154 163 "},"ó":{"ha":540,"x_min":47,"x_max":493,"o":"m 407 1174 l 300 1174 l 203 1031 l 278 1031 l 407 1174 m 269 982 q 102 916 157 982 q 47 738 47 850 l 47 235 q 102 57 47 124 q 269 -10 157 -10 q 438 57 382 -10 q 493 235 493 124 l 493 738 q 438 916 493 850 q 269 982 382 982 m 269 883 q 357 847 329 883 q 385 743 385 810 l 385 229 q 357 126 385 163 q 269 89 329 89 q 183 126 211 89 q 154 229 154 163 l 154 743 q 183 847 154 810 q 269 883 211 883 "},"ŏ":{"ha":540,"x_min":47,"x_max":493,"o":"m 415 1168 l 350 1168 q 325 1112 347 1128 q 268 1096 303 1096 q 215 1112 236 1096 q 190 1168 193 1128 l 125 1168 q 164 1065 126 1101 q 268 1028 201 1028 q 376 1065 338 1028 q 415 1168 414 1101 m 269 982 q 102 916 157 982 q 47 738 47 850 l 47 235 q 102 57 47 124 q 269 -10 157 -10 q 438 57 382 -10 q 493 235 493 124 l 493 738 q 438 916 493 850 q 269 982 382 982 m 269 883 q 357 847 329 883 q 385 743 385 810 l 385 229 q 357 126 385 163 q 269 89 329 89 q 183 126 211 89 q 154 229 154 163 l 154 743 q 183 847 154 810 q 269 883 211 883 "},"ô":{"ha":540,"x_min":47,"x_max":493,"o":"m 196 1029 l 268 1111 l 343 1029 l 438 1029 l 317 1169 l 221 1169 l 101 1029 l 196 1029 m 269 982 q 102 916 157 982 q 47 738 47 850 l 47 235 q 102 57 47 124 q 269 -10 157 -10 q 438 57 382 -10 q 493 235 493 124 l 493 738 q 438 916 493 850 q 269 982 382 982 m 269 883 q 357 847 329 883 q 385 743 385 810 l 385 229 q 357 126 385 163 q 269 89 329 89 q 183 126 211 89 q 154 229 154 163 l 154 743 q 183 847 154 810 q 269 883 211 883 "},"ö":{"ha":540,"x_min":47,"x_max":493,"o":"m 231 1154 l 136 1154 l 136 1029 l 231 1029 l 231 1154 m 403 1154 l 308 1154 l 308 1029 l 403 1029 l 403 1154 m 269 982 q 102 916 157 982 q 47 738 47 850 l 47 235 q 102 57 47 124 q 269 -10 157 -10 q 438 57 382 -10 q 493 235 493 124 l 493 738 q 438 916 493 850 q 269 982 382 982 m 269 883 q 357 847 329 883 q 385 743 385 810 l 385 229 q 357 126 385 163 q 269 89 329 89 q 183 126 211 89 q 154 229 154 163 l 154 743 q 183 847 154 810 q 269 883 211 883 "},"ò":{"ha":540,"x_min":47,"x_max":493,"o":"m 242 1174 l 129 1174 l 258 1031 l 338 1031 l 242 1174 m 269 982 q 102 916 157 982 q 47 738 47 850 l 47 235 q 102 57 47 124 q 269 -10 157 -10 q 438 57 382 -10 q 493 235 493 124 l 493 738 q 438 916 493 850 q 269 982 382 982 m 269 883 q 357 847 329 883 q 385 743 385 810 l 385 229 q 357 126 385 163 q 269 89 329 89 q 183 126 211 89 q 154 229 154 163 l 154 743 q 183 847 154 810 q 269 883 211 883 "},"ő":{"ha":540,"x_min":47,"x_max":493,"o":"m 319 1174 l 219 1174 l 140 1031 l 208 1031 l 319 1174 m 469 1174 l 368 1174 l 289 1031 l 357 1031 l 469 1174 m 269 982 q 102 916 157 982 q 47 738 47 850 l 47 235 q 102 57 47 124 q 269 -10 157 -10 q 438 57 382 -10 q 493 235 493 124 l 493 738 q 438 916 493 850 q 269 982 382 982 m 269 883 q 357 847 329 883 q 385 743 385 810 l 385 229 q 357 126 385 163 q 269 89 329 89 q 183 126 211 89 q 154 229 154 163 l 154 743 q 183 847 154 810 q 269 883 211 883 "},"ō":{"ha":540,"x_min":47,"x_max":493,"o":"m 415 1119 l 126 1119 l 126 1043 l 415 1043 l 415 1119 m 269 982 q 102 916 157 982 q 47 738 47 850 l 47 235 q 102 57 47 124 q 269 -10 157 -10 q 438 57 382 -10 q 493 235 493 124 l 493 738 q 438 916 493 850 q 269 982 382 982 m 269 883 q 357 847 329 883 q 385 743 385 810 l 385 229 q 357 126 385 163 q 269 89 329 89 q 183 126 211 89 q 154 229 154 163 l 154 743 q 183 847 154 810 q 269 883 211 883 "},"ø":{"ha":540,"x_min":47,"x_max":493,"o":"m 451 897 l 486 989 l 438 1007 l 413 939 q 269 982 357 982 q 102 916 157 982 q 47 738 47 850 l 47 235 q 89 75 47 138 l 54 -18 l 101 -36 l 128 33 q 269 -10 182 -10 q 438 57 382 -10 q 493 235 493 124 l 493 738 q 451 897 493 835 m 369 825 l 154 250 l 154 743 q 183 847 154 810 q 269 883 211 883 q 369 825 342 883 m 269 89 q 169 146 197 89 l 385 719 l 385 229 q 357 126 385 163 q 269 89 329 89 "},"ǿ":{"ha":540,"x_min":47,"x_max":493,"o":"m 304 1174 l 207 1031 l 283 1031 l 413 1174 l 304 1174 m 451 897 l 486 989 l 438 1007 l 413 939 q 269 982 357 982 q 102 916 157 982 q 47 738 47 850 l 47 235 q 89 75 47 138 l 54 -18 l 101 -36 l 128 33 q 269 -10 182 -10 q 438 57 382 -10 q 493 235 493 124 l 493 738 q 451 897 493 835 m 369 825 l 154 250 l 154 743 q 183 847 154 810 q 269 883 211 883 q 369 825 342 883 m 269 89 q 169 146 197 89 l 385 719 l 385 229 q 357 126 385 163 q 269 89 329 89 "},"õ":{"ha":540,"x_min":47,"x_max":493,"o":"m 442 1114 l 389 1151 q 365 1120 378 1129 q 333 1110 351 1111 q 303 1116 318 1110 q 274 1131 289 1122 q 243 1145 260 1139 q 206 1151 226 1151 q 147 1132 174 1150 q 103 1071 121 1114 l 157 1033 q 182 1066 168 1057 q 215 1075 196 1075 q 246 1069 232 1075 q 275 1055 260 1063 q 306 1041 290 1047 q 343 1035 322 1035 q 401 1053 375 1035 q 442 1114 426 1072 m 269 982 q 102 916 157 982 q 47 738 47 850 l 47 235 q 102 57 47 124 q 269 -10 157 -10 q 438 57 382 -10 q 493 235 493 124 l 493 738 q 438 916 493 850 q 269 982 382 982 m 269 883 q 357 847 329 883 q 385 743 385 810 l 385 229 q 357 126 385 163 q 269 89 329 89 q 183 126 211 89 q 154 229 154 163 l 154 743 q 183 847 154 810 q 269 883 211 883 "},"œ":{"ha":801,"x_min":46,"x_max":757,"o":"m 706 542 l 482 542 l 482 874 l 757 874 l 757 972 l 261 972 q 97 906 149 972 q 46 731 46 840 l 46 242 q 97 66 46 132 q 261 0 149 0 l 757 0 l 757 99 l 482 99 l 482 444 l 706 444 l 706 542 m 263 874 l 375 874 l 375 99 l 263 99 q 179 136 204 99 q 154 236 154 174 l 154 736 q 179 836 154 799 q 263 874 204 874 "},"p":{"ha":515,"x_min":56,"x_max":486,"o":"m 268 972 l 56 972 l 56 0 l 164 0 l 164 383 l 260 383 q 431 442 376 383 q 486 618 486 501 l 486 735 q 435 909 486 846 q 268 972 383 972 m 260 481 l 164 481 l 164 874 l 268 874 q 353 840 328 874 q 379 740 379 807 l 379 611 q 350 510 379 540 q 260 481 321 481 "},"þ":{"ha":524,"x_min":56,"x_max":486,"o":"m 268 832 l 164 832 l 164 972 l 56 972 l 56 0 l 164 0 l 164 242 l 260 242 q 431 301 376 242 q 486 478 486 360 l 486 593 q 435 769 486 706 q 268 832 383 832 m 260 340 l 164 340 l 164 733 l 268 733 q 353 700 328 733 q 379 600 379 667 l 379 471 q 350 370 379 400 q 260 340 321 340 "},"q":{"ha":544,"x_min":47,"x_max":529,"o":"m 269 982 q 102 916 157 982 q 47 738 47 850 l 47 235 q 102 57 47 124 q 269 -10 157 -10 q 335 -2 306 -10 q 388 19 364 6 q 511 -43 422 -43 l 529 -43 l 529 53 l 515 53 q 478 59 492 53 q 456 83 464 65 q 493 235 493 142 l 493 738 q 438 916 493 850 q 269 982 382 982 m 269 883 q 357 847 329 883 q 385 743 385 810 l 385 229 q 357 126 385 163 q 269 89 329 89 q 183 126 211 89 q 154 229 154 163 l 154 743 q 183 847 154 810 q 269 883 211 883 "},"r":{"ha":547,"x_min":56,"x_max":510,"o":"m 272 972 l 56 972 l 56 0 l 164 0 l 164 415 l 240 415 q 345 384 308 415 q 382 271 382 353 l 382 118 q 386 45 382 69 q 400 0 390 21 l 510 0 q 493 55 496 25 q 490 117 490 85 l 490 268 q 463 399 490 347 q 368 471 435 451 q 460 540 431 490 q 489 671 489 590 l 489 750 q 438 915 489 858 q 272 972 388 972 m 244 514 l 164 514 l 164 874 l 269 874 q 356 840 331 874 q 382 740 382 807 l 382 647 q 346 541 382 568 q 244 514 310 514 "},"ŕ":{"ha":547,"x_min":56,"x_max":510,"o":"m 399 1174 l 290 1174 l 194 1031 l 269 1031 l 399 1174 m 272 972 l 56 972 l 56 0 l 164 0 l 164 415 l 240 415 q 345 384 308 415 q 382 271 382 353 l 382 118 q 386 45 382 69 q 400 0 390 21 l 510 0 q 493 55 496 25 q 490 117 490 85 l 490 268 q 463 399 490 347 q 368 471 435 451 q 460 540 431 490 q 489 671 489 590 l 489 750 q 438 915 489 858 q 272 972 388 972 m 244 514 l 164 514 l 164 874 l 269 874 q 356 840 331 874 q 382 740 382 807 l 382 647 q 346 541 382 568 q 244 514 310 514 "},"ř":{"ha":547,"x_min":56,"x_max":510,"o":"m 185 1169 l 90 1169 l 210 1031 l 306 1031 l 426 1169 l 332 1169 l 258 1086 l 185 1169 m 272 972 l 56 972 l 56 0 l 164 0 l 164 415 l 240 415 q 345 384 308 415 q 382 271 382 353 l 382 118 q 386 45 382 69 q 400 0 390 21 l 510 0 q 493 55 496 25 q 490 117 490 85 l 490 268 q 463 399 490 347 q 368 471 435 451 q 460 540 431 490 q 489 671 489 590 l 489 750 q 438 915 489 858 q 272 972 388 972 m 244 514 l 164 514 l 164 874 l 269 874 q 356 840 331 874 q 382 740 382 807 l 382 647 q 346 541 382 568 q 244 514 310 514 "},"s":{"ha":517,"x_min":40,"x_max":478,"o":"m 260 982 q 97 917 150 982 q 44 739 44 851 q 69 622 44 671 q 129 533 93 572 q 207 462 165 494 q 285 395 249 429 q 345 322 321 361 q 369 228 369 282 q 342 125 369 161 q 256 89 314 89 q 169 125 197 89 q 142 228 142 161 l 142 289 l 40 289 l 40 233 q 93 56 40 122 q 258 -10 146 -10 q 424 56 371 -10 q 478 233 478 122 q 453 351 478 301 q 393 439 429 400 q 315 510 357 478 q 236 577 272 543 q 176 651 200 611 q 151 746 151 692 q 178 847 151 811 q 263 883 204 883 q 347 847 321 883 q 374 744 374 811 l 374 713 l 476 713 l 476 739 q 424 916 476 850 q 260 982 371 982 "},"ś":{"ha":517,"x_min":40,"x_max":478,"o":"m 401 1174 l 293 1174 l 197 1031 l 272 1031 l 401 1174 m 260 982 q 97 917 150 982 q 44 739 44 851 q 69 622 44 671 q 129 533 93 572 q 207 462 165 494 q 285 395 249 429 q 345 322 321 361 q 369 228 369 282 q 342 125 369 161 q 256 89 314 89 q 169 125 197 89 q 142 228 142 161 l 142 289 l 40 289 l 40 233 q 93 56 40 122 q 258 -10 146 -10 q 424 56 371 -10 q 478 233 478 122 q 453 351 478 301 q 393 439 429 400 q 315 510 357 478 q 236 577 272 543 q 176 651 200 611 q 151 746 151 692 q 178 847 151 811 q 263 883 204 883 q 347 847 321 883 q 374 744 374 811 l 374 713 l 476 713 l 476 739 q 424 916 476 850 q 260 982 371 982 "},"š":{"ha":517,"x_min":40,"x_max":478,"o":"m 186 1169 l 92 1169 l 211 1031 l 307 1031 l 428 1169 l 333 1169 l 260 1086 l 186 1169 m 260 982 q 97 917 150 982 q 44 739 44 851 q 69 622 44 671 q 129 533 93 572 q 207 462 165 494 q 285 395 249 429 q 345 322 321 361 q 369 228 369 282 q 342 125 369 161 q 256 89 314 89 q 169 125 197 89 q 142 228 142 161 l 142 289 l 40 289 l 40 233 q 93 56 40 122 q 258 -10 146 -10 q 424 56 371 -10 q 478 233 478 122 q 453 351 478 301 q 393 439 429 400 q 315 510 357 478 q 236 577 272 543 q 176 651 200 611 q 151 746 151 692 q 178 847 151 811 q 263 883 204 883 q 347 847 321 883 q 374 744 374 811 l 374 713 l 476 713 l 476 739 q 424 916 476 850 q 260 982 371 982 "},"ş":{"ha":517,"x_min":40,"x_max":478,"o":"m 279 -51 l 279 -8 q 429 63 381 -1 q 478 233 478 128 q 453 351 478 301 q 393 439 429 400 q 315 510 357 478 q 236 577 272 543 q 176 651 200 611 q 151 746 151 692 q 178 847 151 811 q 263 883 204 883 q 347 847 321 883 q 374 744 374 811 l 374 713 l 476 713 l 476 739 q 424 916 476 850 q 260 982 371 982 q 97 917 150 982 q 44 739 44 851 q 69 622 44 671 q 129 533 93 572 q 207 462 165 494 q 285 395 249 429 q 345 322 321 361 q 369 228 369 282 q 342 125 369 161 q 256 89 314 89 q 169 125 197 89 q 142 228 142 161 l 142 289 l 40 289 l 40 233 q 85 65 40 129 q 229 -8 131 0 l 229 -78 l 242 -78 q 310 -119 310 -78 q 250 -164 310 -164 q 193 -124 193 -160 l 193 -114 l 122 -114 l 122 -125 q 156 -188 122 -165 q 250 -211 189 -211 q 347 -187 313 -211 q 382 -122 382 -164 q 355 -70 382 -89 q 279 -51 328 -51 "},"ŝ":{"ha":517,"x_min":40,"x_max":478,"o":"m 188 1029 l 261 1111 l 335 1029 l 429 1029 l 310 1169 l 214 1169 l 93 1029 l 188 1029 m 260 982 q 97 917 150 982 q 44 739 44 851 q 69 622 44 671 q 129 533 93 572 q 207 462 165 494 q 285 395 249 429 q 345 322 321 361 q 369 228 369 282 q 342 125 369 161 q 256 89 314 89 q 169 125 197 89 q 142 228 142 161 l 142 289 l 40 289 l 40 233 q 93 56 40 122 q 258 -10 146 -10 q 424 56 371 -10 q 478 233 478 122 q 453 351 478 301 q 393 439 429 400 q 315 510 357 478 q 236 577 272 543 q 176 651 200 611 q 151 746 151 692 q 178 847 151 811 q 263 883 204 883 q 347 847 321 883 q 374 744 374 811 l 374 713 l 476 713 l 476 739 q 424 916 476 850 q 260 982 371 982 "},"ß":{"ha":1013,"x_min":38,"x_max":975,"o":"m 257 982 q 94 917 147 982 q 42 739 42 851 q 66 622 42 671 q 126 533 90 572 q 204 462 163 494 q 282 395 246 429 q 342 322 318 361 q 367 228 367 282 q 340 125 367 161 q 253 89 313 89 q 167 125 194 89 q 139 228 139 161 l 139 289 l 38 289 l 38 233 q 90 56 38 122 q 256 -10 143 -10 q 422 56 368 -10 q 475 233 475 122 q 451 351 475 301 q 390 439 426 400 q 312 510 354 478 q 233 577 269 543 q 173 651 197 611 q 149 746 149 692 q 175 847 149 811 q 260 883 201 883 q 344 847 318 883 q 371 744 371 811 l 371 713 l 474 713 l 474 739 q 422 916 474 850 q 257 982 369 982 m 758 982 q 595 917 649 982 q 542 739 542 851 q 566 622 542 671 q 626 533 590 572 q 705 462 663 494 q 783 395 747 429 q 844 322 819 361 q 868 228 868 282 q 840 125 868 161 q 754 89 813 89 q 668 125 696 89 q 640 228 640 161 l 640 289 l 538 289 l 538 233 q 591 56 538 122 q 757 -10 644 -10 q 922 56 869 -10 q 975 233 975 122 q 951 351 975 301 q 890 439 926 400 q 813 510 854 478 q 735 577 771 543 q 674 651 699 611 q 650 746 650 692 q 676 847 650 811 q 761 883 703 883 q 846 847 819 883 q 872 744 872 811 l 872 713 l 974 713 l 974 739 q 922 916 974 850 q 758 982 869 982 "},"t":{"ha":500,"x_min":17,"x_max":482,"o":"m 196 0 l 303 0 l 303 874 l 482 874 l 482 972 l 17 972 l 17 874 l 196 874 l 196 0 "},"ŧ":{"ha":517,"x_min":25,"x_max":492,"o":"m 411 661 l 313 661 l 313 874 l 492 874 l 492 972 l 25 972 l 25 874 l 204 874 l 204 661 l 106 661 l 106 581 l 204 581 l 204 0 l 313 0 l 313 581 l 411 581 l 411 661 "},"ť":{"ha":517,"x_min":25,"x_max":492,"o":"m 185 1167 l 90 1167 l 210 1026 l 306 1026 l 426 1167 l 332 1167 l 257 1083 l 185 1167 m 204 0 l 313 0 l 313 874 l 492 874 l 492 972 l 25 972 l 25 874 l 204 874 l 204 0 "},"u":{"ha":538,"x_min":51,"x_max":486,"o":"m 158 229 l 158 972 l 51 972 l 51 235 q 104 56 51 124 q 268 -11 157 -11 q 433 56 381 -11 q 486 235 486 124 l 486 972 l 385 972 l 385 229 q 358 126 385 163 q 272 89 331 89 q 185 126 213 89 q 158 229 158 163 "},"ú":{"ha":538,"x_min":51,"x_max":486,"o":"m 411 1174 l 304 1174 l 207 1031 l 282 1031 l 411 1174 m 486 235 l 486 972 l 385 972 l 385 229 q 358 126 385 163 q 272 89 331 89 q 185 126 213 89 q 158 229 158 163 l 158 972 l 51 972 l 51 235 q 104 56 51 124 q 268 -11 157 -11 q 433 56 381 -11 q 486 235 486 124 "},"ŭ":{"ha":538,"x_min":51,"x_max":486,"o":"m 415 1164 l 350 1164 q 325 1106 347 1122 q 269 1090 303 1090 q 215 1106 236 1090 q 190 1164 193 1122 l 125 1164 q 164 1060 126 1097 q 269 1022 201 1022 q 376 1060 338 1022 q 415 1164 414 1097 m 486 235 l 486 972 l 385 972 l 385 229 q 358 126 385 163 q 272 89 331 89 q 185 126 213 89 q 158 229 158 163 l 158 972 l 51 972 l 51 235 q 104 56 51 124 q 268 -11 157 -11 q 433 56 381 -11 q 486 235 486 124 "},"û":{"ha":538,"x_min":51,"x_max":486,"o":"m 197 1029 l 269 1111 l 344 1029 l 439 1029 l 318 1169 l 222 1169 l 103 1029 l 197 1029 m 486 235 l 486 972 l 385 972 l 385 229 q 358 126 385 163 q 272 89 331 89 q 185 126 213 89 q 158 229 158 163 l 158 972 l 51 972 l 51 235 q 104 56 51 124 q 268 -11 157 -11 q 433 56 381 -11 q 486 235 486 124 "},"ü":{"ha":538,"x_min":51,"x_max":486,"o":"m 232 1153 l 136 1153 l 136 1028 l 232 1028 l 232 1153 m 404 1153 l 310 1153 l 310 1028 l 404 1028 l 404 1153 m 486 235 l 486 972 l 385 972 l 385 229 q 358 126 385 163 q 272 89 331 89 q 185 126 213 89 q 158 229 158 163 l 158 972 l 51 972 l 51 235 q 104 56 51 124 q 268 -11 157 -11 q 433 56 381 -11 q 486 235 486 124 "},"ù":{"ha":538,"x_min":51,"x_max":486,"o":"m 240 1169 l 128 1169 l 257 1026 l 338 1026 l 240 1169 m 486 235 l 486 972 l 385 972 l 385 229 q 358 126 385 163 q 272 89 331 89 q 185 126 213 89 q 158 229 158 163 l 158 972 l 51 972 l 51 235 q 104 56 51 124 q 268 -11 157 -11 q 433 56 381 -11 q 486 235 486 124 "},"ű":{"ha":538,"x_min":51,"x_max":486,"o":"m 318 1172 l 218 1172 l 139 1029 l 207 1029 l 318 1172 m 468 1172 l 367 1172 l 289 1029 l 356 1029 l 468 1172 m 486 235 l 486 972 l 385 972 l 385 229 q 358 126 385 163 q 272 89 331 89 q 185 126 213 89 q 158 229 158 163 l 158 972 l 51 972 l 51 235 q 104 56 51 124 q 268 -11 157 -11 q 433 56 381 -11 q 486 235 486 124 "},"ū":{"ha":538,"x_min":51,"x_max":486,"o":"m 414 1119 l 129 1119 l 129 1042 l 414 1042 l 414 1119 m 486 235 l 486 972 l 385 972 l 385 229 q 358 126 385 163 q 272 89 331 89 q 185 126 213 89 q 158 229 158 163 l 158 972 l 51 972 l 51 235 q 104 56 51 124 q 268 -11 157 -11 q 433 56 381 -11 q 486 235 486 124 "},"ģ":{"ha":532,"x_min":47,"x_max":485,"o":"m 265 982 q 169 965 210 982 q 101 915 128 947 q 60 838 74 883 q 47 738 47 793 l 47 235 q 101 57 47 124 q 265 -10 154 -10 q 431 57 378 -10 q 485 235 485 124 l 485 521 l 282 521 l 282 424 l 382 424 l 382 229 q 355 126 382 163 q 268 89 328 89 q 182 126 210 89 q 154 229 154 163 l 154 743 q 182 847 154 810 q 268 883 210 883 q 355 847 328 883 q 382 743 382 810 l 382 654 l 485 654 l 485 738 q 431 915 485 849 q 265 982 378 982 m 254 -168 l 224 -246 l 263 -246 l 311 -158 l 311 -46 l 221 -46 l 221 -168 l 254 -168 "},"ķ":{"ha":568,"x_min":56,"x_max":540,"o":"m 221 422 l 429 0 l 540 0 l 286 529 l 532 972 l 422 972 l 164 503 l 164 972 l 56 972 l 56 0 l 164 0 l 164 326 l 221 422 m 274 -168 l 242 -246 l 282 -246 l 331 -158 l 331 -46 l 239 -46 l 239 -168 l 274 -168 "},"ļ":{"ha":468,"x_min":56,"x_max":442,"o":"m 56 0 l 442 0 l 442 99 l 164 99 l 164 972 l 56 972 l 56 0 m 246 -168 l 215 -246 l 254 -246 l 303 -158 l 303 -46 l 213 -46 l 213 -168 l 246 -168 "},"ņ":{"ha":568,"x_min":54,"x_max":513,"o":"m 151 0 l 151 786 l 400 0 l 513 0 l 513 972 l 417 972 l 417 269 l 192 972 l 54 972 l 54 0 l 151 0 m 272 -168 l 240 -246 l 279 -246 l 328 -158 l 328 -46 l 238 -46 l 238 -168 l 272 -168 "},"ŗ":{"ha":547,"x_min":56,"x_max":510,"o":"m 272 972 l 56 972 l 56 0 l 164 0 l 164 415 l 240 415 q 345 384 308 415 q 382 271 382 353 l 382 118 q 386 45 382 69 q 400 0 390 21 l 510 0 q 493 55 496 25 q 490 117 490 85 l 490 268 q 463 399 490 347 q 368 471 435 451 q 460 540 431 490 q 489 671 489 590 l 489 750 q 438 915 489 858 q 272 972 388 972 m 244 514 l 164 514 l 164 874 l 269 874 q 356 840 331 874 q 382 740 382 807 l 382 647 q 346 541 382 568 q 244 514 310 514 m 263 -168 l 231 -246 l 271 -246 l 319 -158 l 319 -46 l 228 -46 l 228 -168 l 263 -168 "},"ţ":{"ha":517,"x_min":25,"x_max":492,"o":"m 283 0 l 313 0 l 313 874 l 492 874 l 492 972 l 25 972 l 25 874 l 204 874 l 204 0 l 232 0 l 232 -89 l 244 -89 q 291 -98 272 -89 q 310 -135 310 -107 q 292 -171 310 -160 q 253 -182 275 -182 q 217 -174 235 -182 q 200 -142 200 -165 l 200 -131 l 135 -131 l 135 -142 q 145 -183 135 -165 q 172 -211 156 -200 q 210 -228 189 -222 q 254 -233 232 -233 q 300 -228 278 -233 q 339 -211 322 -224 q 366 -178 356 -199 q 376 -131 376 -158 q 350 -72 376 -90 q 283 -53 324 -53 l 283 0 "},"ș":{"ha":517,"x_min":40,"x_max":478,"o":"m 260 982 q 97 917 150 982 q 44 739 44 851 q 69 622 44 671 q 129 533 93 572 q 207 462 165 494 q 285 395 249 429 q 345 322 321 361 q 369 228 369 282 q 342 125 369 161 q 256 89 314 89 q 169 125 197 89 q 142 228 142 161 l 142 289 l 40 289 l 40 233 q 93 56 40 122 q 258 -10 146 -10 q 424 56 371 -10 q 478 233 478 122 q 453 351 478 301 q 393 439 429 400 q 315 510 357 478 q 236 577 272 543 q 176 651 200 611 q 151 746 151 692 q 178 847 151 811 q 263 883 204 883 q 347 847 321 883 q 374 744 374 811 l 374 713 l 476 713 l 476 739 q 424 916 476 850 q 260 982 371 982 m 244 -168 l 213 -246 l 253 -246 l 301 -158 l 301 -46 l 210 -46 l 210 -168 l 244 -168 "},"ț":{"ha":517,"x_min":25,"x_max":492,"o":"m 204 0 l 313 0 l 313 874 l 492 874 l 492 972 l 25 972 l 25 874 l 204 874 l 204 0 m 247 -168 l 215 -246 l 256 -246 l 304 -158 l 304 -46 l 213 -46 l 213 -168 l 247 -168 "},"ḃ":{"ha":544,"x_min":56,"x_max":501,"o":"m 294 1153 l 200 1153 l 200 1028 l 294 1028 l 294 1153 m 274 972 l 56 972 l 56 0 l 279 0 q 447 59 393 0 q 501 228 501 118 l 501 310 q 472 444 501 390 q 371 518 442 499 q 460 585 435 538 q 485 711 485 633 l 485 757 q 436 919 485 865 q 274 972 388 972 m 247 560 l 164 560 l 164 874 l 271 874 q 353 842 329 874 q 378 746 378 811 l 378 689 q 345 586 378 613 q 247 560 313 560 m 279 99 l 164 99 l 164 461 l 258 461 q 362 430 329 461 q 394 317 394 399 l 394 231 q 279 99 394 99 "},"ḋ":{"ha":550,"x_min":56,"x_max":504,"o":"m 304 1153 l 210 1153 l 210 1028 l 304 1028 l 304 1153 m 283 972 l 56 972 l 56 0 l 283 0 q 451 64 397 0 q 504 240 504 128 l 504 731 q 451 908 504 843 q 283 972 397 972 m 282 99 l 164 99 l 164 874 l 281 874 q 369 838 340 874 q 397 736 397 803 l 397 236 q 369 134 397 169 q 282 99 340 99 "},"ḟ":{"ha":472,"x_min":56,"x_max":442,"o":"m 297 1153 l 203 1153 l 203 1028 l 297 1028 l 297 1153 m 388 519 l 164 519 l 164 874 l 442 874 l 442 972 l 56 972 l 56 0 l 164 0 l 164 421 l 388 421 l 388 519 "},"ṁ":{"ha":726,"x_min":54,"x_max":671,"o":"m 410 1156 l 315 1156 l 315 1031 l 410 1031 l 410 1156 m 414 1 l 568 782 l 568 0 l 671 0 l 671 972 l 519 972 l 365 196 l 206 972 l 54 972 l 54 0 l 149 0 l 149 775 l 310 1 l 414 1 "},"ṗ":{"ha":515,"x_min":56,"x_max":486,"o":"m 301 1153 l 207 1153 l 207 1028 l 301 1028 l 301 1153 m 268 972 l 56 972 l 56 0 l 164 0 l 164 383 l 260 383 q 431 442 376 383 q 486 618 486 501 l 486 735 q 435 909 486 846 q 268 972 383 972 m 260 481 l 164 481 l 164 874 l 268 874 q 353 840 328 874 q 379 740 379 807 l 379 611 q 350 510 379 540 q 260 481 321 481 "},"ṡ":{"ha":517,"x_min":40,"x_max":478,"o":"m 310 1157 l 215 1157 l 215 1032 l 310 1032 l 310 1157 m 260 982 q 97 917 150 982 q 44 739 44 851 q 69 622 44 671 q 129 533 93 572 q 207 462 165 494 q 285 395 249 429 q 345 322 321 361 q 369 228 369 282 q 342 125 369 161 q 256 89 314 89 q 169 125 197 89 q 142 228 142 161 l 142 289 l 40 289 l 40 233 q 93 56 40 122 q 258 -10 146 -10 q 424 56 371 -10 q 478 233 478 122 q 453 351 478 301 q 393 439 429 400 q 315 510 357 478 q 236 577 272 543 q 176 651 200 611 q 151 746 151 692 q 178 847 151 811 q 263 883 204 883 q 347 847 321 883 q 374 744 374 811 l 374 713 l 476 713 l 476 739 q 424 916 476 850 q 260 982 371 982 "},"ṫ":{"ha":517,"x_min":24,"x_max":490,"o":"m 304 1153 l 210 1153 l 210 1028 l 304 1028 l 304 1153 m 203 0 l 311 0 l 311 874 l 490 874 l 490 972 l 24 972 l 24 874 l 203 874 l 203 0 "},"ų":{"ha":538,"x_min":51,"x_max":486,"o":"m 486 235 l 486 972 l 385 972 l 385 229 q 358 126 385 163 q 272 89 331 89 q 185 126 213 89 q 158 229 158 163 l 158 972 l 51 972 l 51 235 q 104 56 51 124 q 268 -11 157 -11 q 318 -6 297 -11 q 263 -59 283 -29 q 244 -121 243 -89 q 274 -180 244 -161 q 349 -199 303 -199 q 394 -195 375 -199 q 435 -182 414 -192 l 435 -125 q 411 -134 424 -131 q 379 -137 399 -137 q 344 -128 360 -137 q 328 -96 328 -118 q 340 -45 326 -75 q 382 7 354 -15 q 434 50 414 25 q 466 105 454 75 q 482 167 478 135 q 486 235 486 200 "},"ů":{"ha":538,"x_min":51,"x_max":486,"o":"m 272 1224 q 200 1194 229 1224 q 171 1122 171 1165 q 200 1050 171 1079 q 272 1021 229 1021 q 345 1050 315 1021 q 375 1122 375 1079 q 345 1194 375 1165 q 272 1224 315 1224 m 272 1172 q 308 1158 293 1172 q 324 1122 324 1144 q 308 1086 324 1100 q 272 1072 293 1072 q 237 1086 251 1072 q 222 1122 222 1100 q 237 1158 222 1144 q 272 1172 251 1172 m 486 235 l 486 972 l 385 972 l 385 229 q 358 126 385 163 q 272 89 331 89 q 185 126 213 89 q 158 229 158 163 l 158 972 l 51 972 l 51 235 q 104 56 51 124 q 268 -11 157 -11 q 433 56 381 -11 q 486 235 486 124 "},"ũ":{"ha":538,"x_min":51,"x_max":486,"o":"m 440 1114 l 386 1151 q 362 1120 375 1129 q 331 1110 349 1111 q 301 1116 315 1110 q 272 1131 286 1122 q 240 1145 257 1139 q 203 1151 224 1151 q 144 1132 171 1150 q 101 1071 118 1114 l 156 1033 q 181 1066 167 1057 q 214 1075 194 1075 q 244 1069 231 1075 q 273 1055 258 1063 q 303 1041 288 1047 q 340 1035 319 1035 q 398 1053 372 1035 q 440 1114 424 1072 m 486 235 l 486 972 l 385 972 l 385 229 q 358 126 385 163 q 272 89 331 89 q 185 126 213 89 q 158 229 158 163 l 158 972 l 51 972 l 51 235 q 104 56 51 124 q 268 -11 157 -11 q 433 56 381 -11 q 486 235 486 124 "},"v":{"ha":581,"x_min":28,"x_max":553,"o":"m 138 972 l 28 972 l 211 0 l 371 0 l 553 972 l 453 972 l 296 126 l 138 972 "},"w":{"ha":810,"x_min":32,"x_max":778,"o":"m 314 0 l 410 660 l 503 0 l 646 0 l 778 972 l 683 972 l 574 143 l 467 971 l 360 971 l 251 144 l 138 972 l 32 972 l 165 0 l 314 0 "},"ẃ":{"ha":810,"x_min":32,"x_max":778,"o":"m 543 1169 l 435 1169 l 338 1026 l 414 1026 l 543 1169 m 314 0 l 410 660 l 503 0 l 646 0 l 778 972 l 683 972 l 574 143 l 467 971 l 360 971 l 251 144 l 138 972 l 32 972 l 165 0 l 314 0 "},"ŵ":{"ha":810,"x_min":32,"x_max":778,"o":"m 333 1028 l 407 1110 l 481 1028 l 575 1028 l 454 1168 l 358 1168 l 239 1028 l 333 1028 m 314 0 l 410 660 l 503 0 l 646 0 l 778 972 l 683 972 l 574 143 l 467 971 l 360 971 l 251 144 l 138 972 l 32 972 l 165 0 l 314 0 "},"ẅ":{"ha":810,"x_min":32,"x_max":778,"o":"m 368 1154 l 274 1154 l 274 1029 l 368 1029 l 368 1154 m 540 1154 l 446 1154 l 446 1029 l 540 1029 l 540 1154 m 314 0 l 410 660 l 503 0 l 646 0 l 778 972 l 683 972 l 574 143 l 467 971 l 360 971 l 251 144 l 138 972 l 32 972 l 165 0 l 314 0 "},"ẁ":{"ha":810,"x_min":32,"x_max":778,"o":"m 385 1174 l 272 1174 l 401 1031 l 481 1031 l 385 1174 m 314 0 l 410 660 l 503 0 l 646 0 l 778 972 l 683 972 l 574 143 l 467 971 l 360 971 l 251 144 l 138 972 l 32 972 l 165 0 l 314 0 "},"x":{"ha":604,"x_min":32,"x_max":572,"o":"m 297 419 l 458 0 l 572 0 l 378 501 l 560 972 l 458 972 l 307 583 l 157 972 l 44 972 l 228 501 l 32 0 l 135 0 l 297 419 "},"y":{"ha":564,"x_min":22,"x_max":542,"o":"m 228 349 l 228 0 l 335 0 l 335 349 l 542 972 l 439 972 l 286 494 l 135 972 l 22 972 l 228 349 "},"ý":{"ha":564,"x_min":22,"x_max":542,"o":"m 426 1169 l 319 1169 l 222 1026 l 297 1026 l 426 1169 m 228 349 l 228 0 l 335 0 l 335 349 l 542 972 l 439 972 l 286 494 l 135 972 l 22 972 l 228 349 "},"ŷ":{"ha":564,"x_min":22,"x_max":542,"o":"m 213 1028 l 286 1110 l 360 1028 l 454 1028 l 333 1167 l 238 1167 l 118 1028 l 213 1028 m 228 349 l 228 0 l 335 0 l 335 349 l 542 972 l 439 972 l 286 494 l 135 972 l 22 972 l 228 349 "},"ÿ":{"ha":564,"x_min":22,"x_max":542,"o":"m 246 1151 l 151 1151 l 151 1026 l 246 1026 l 246 1151 m 418 1151 l 324 1151 l 324 1026 l 418 1026 l 418 1151 m 228 349 l 228 0 l 335 0 l 335 349 l 542 972 l 439 972 l 286 494 l 135 972 l 22 972 l 228 349 "},"ỳ":{"ha":564,"x_min":22,"x_max":542,"o":"m 258 1174 l 146 1174 l 275 1031 l 354 1031 l 258 1174 m 228 349 l 228 0 l 335 0 l 335 349 l 542 972 l 439 972 l 286 494 l 135 972 l 22 972 l 228 349 "},"z":{"ha":526,"x_min":40,"x_max":485,"o":"m 482 0 l 482 99 l 150 99 l 485 875 l 485 972 l 56 972 l 56 874 l 374 874 l 40 97 l 40 0 l 482 0 "},"ź":{"ha":526,"x_min":40,"x_max":485,"o":"m 413 1174 l 304 1174 l 208 1031 l 283 1031 l 413 1174 m 482 0 l 482 99 l 150 99 l 485 875 l 485 972 l 56 972 l 56 874 l 374 874 l 40 97 l 40 0 l 482 0 "},"ž":{"ha":526,"x_min":40,"x_max":485,"o":"m 196 1169 l 101 1169 l 221 1029 l 317 1029 l 438 1169 l 343 1169 l 268 1086 l 196 1169 m 482 0 l 482 99 l 150 99 l 485 875 l 485 972 l 56 972 l 56 874 l 374 874 l 40 97 l 40 0 l 482 0 "},"ż":{"ha":526,"x_min":40,"x_max":485,"o":"m 321 1156 l 226 1156 l 226 1031 l 321 1031 l 321 1156 m 482 0 l 482 99 l 150 99 l 485 875 l 485 972 l 56 972 l 56 874 l 374 874 l 40 97 l 40 0 l 482 0 "},"ª":{"ha":382,"x_min":46,"x_max":331,"o":"m 204 979 q 99 938 132 979 q 67 826 67 897 l 67 806 l 132 806 l 132 831 q 201 915 132 915 q 248 894 235 915 q 261 836 261 872 l 261 767 q 181 758 219 765 q 112 731 142 750 q 64 681 82 713 q 46 600 46 650 l 46 594 q 74 492 46 528 q 158 457 101 457 q 227 479 200 457 q 267 540 254 501 l 271 464 l 331 464 l 331 826 q 303 938 331 896 q 204 979 275 979 m 261 714 l 261 604 q 239 545 257 568 q 185 522 221 522 q 117 600 117 522 l 117 610 q 155 685 117 658 q 261 714 193 711 m 331 385 l 47 385 l 47 315 l 331 315 l 331 385 "},"º":{"ha":385,"x_min":50,"x_max":335,"o":"m 192 979 q 85 937 119 979 q 50 824 50 894 l 50 611 q 85 498 50 540 q 192 456 119 456 q 299 498 264 456 q 335 611 335 540 l 335 824 q 299 937 335 894 q 192 979 264 979 m 192 915 q 247 892 229 915 q 264 828 264 869 l 264 607 q 247 542 264 565 q 192 519 229 519 q 137 542 154 519 q 119 607 119 565 l 119 828 q 137 892 119 869 q 192 915 154 915 m 335 386 l 51 386 l 51 317 l 335 317 l 335 386 "},"А":{"ha":586,"x_min":28,"x_max":557,"o":"m 165 196 l 411 196 l 449 0 l 557 0 l 371 972 l 214 972 l 28 0 l 128 0 l 165 196 m 179 289 l 286 850 l 396 289 l 179 289 "},"Б":{"ha":557,"x_min":57,"x_max":507,"o":"m 278 571 l 164 571 l 164 874 l 467 874 l 467 972 l 57 972 l 57 0 l 283 0 q 453 61 399 0 q 507 236 507 122 l 507 343 q 449 516 507 461 q 278 571 392 571 m 283 99 l 164 99 l 164 474 l 278 474 q 368 447 338 474 q 399 350 399 421 l 399 229 q 371 130 399 161 q 283 99 343 99 "},"В":{"ha":544,"x_min":56,"x_max":501,"o":"m 274 972 l 56 972 l 56 0 l 279 0 q 447 59 393 0 q 501 228 501 118 l 501 310 q 472 444 501 390 q 371 518 442 499 q 460 585 435 538 q 485 711 485 633 l 485 757 q 436 919 485 865 q 274 972 388 972 m 247 560 l 164 560 l 164 874 l 271 874 q 353 842 329 874 q 378 746 378 811 l 378 689 q 345 586 378 613 q 247 560 313 560 m 279 99 l 164 99 l 164 461 l 258 461 q 362 430 329 461 q 394 317 394 399 l 394 231 q 279 99 394 99 "},"Г":{"ha":494,"x_min":57,"x_max":444,"o":"m 164 874 l 444 874 l 444 972 l 57 972 l 57 0 l 164 0 l 164 874 "},"Д":{"ha":679,"x_min":33,"x_max":640,"o":"m 535 -133 l 640 -133 l 640 96 l 567 96 l 567 972 l 176 972 l 139 238 q 128 158 136 193 q 96 96 121 124 l 33 96 l 33 -133 l 138 -133 l 138 0 l 535 0 l 535 -133 m 244 239 l 276 874 l 457 874 l 457 96 l 200 96 q 233 153 224 119 q 244 239 242 186 "},"Е":{"ha":500,"x_min":56,"x_max":456,"o":"m 401 542 l 164 542 l 164 874 l 456 874 l 456 972 l 56 972 l 56 0 l 456 0 l 456 99 l 164 99 l 164 444 l 401 444 l 401 542 "},"Ё":{"ha":500,"x_min":56,"x_max":456,"o":"m 215 1154 l 121 1154 l 121 1029 l 215 1029 l 215 1154 m 389 1154 l 293 1154 l 293 1029 l 389 1029 l 389 1154 m 401 542 l 164 542 l 164 874 l 456 874 l 456 972 l 56 972 l 56 0 l 456 0 l 456 99 l 164 99 l 164 444 l 401 444 l 401 542 "},"Ж":{"ha":851,"x_min":25,"x_max":828,"o":"m 531 458 l 717 0 l 828 0 l 607 563 l 822 972 l 714 972 l 479 525 l 479 972 l 372 972 l 372 525 l 139 972 l 31 972 l 247 560 l 25 0 l 136 0 l 322 460 l 372 367 l 372 0 l 479 0 l 479 367 l 531 458 "},"З":{"ha":538,"x_min":50,"x_max":488,"o":"m 268 982 q 103 917 156 982 q 51 739 51 851 l 51 678 l 151 678 l 151 743 q 179 847 151 810 q 265 883 207 883 q 352 846 325 883 q 379 733 379 808 l 379 689 q 347 590 379 625 q 260 556 314 556 l 208 556 l 208 458 l 254 458 q 379 314 379 458 l 379 238 q 352 126 379 164 q 265 89 325 89 q 179 126 207 89 q 151 229 151 163 l 151 329 l 50 329 l 50 235 q 103 57 50 124 q 268 -10 157 -10 q 434 57 381 -10 q 488 235 488 124 l 488 311 q 459 438 488 385 q 368 511 431 490 q 458 585 428 533 q 488 713 488 638 l 488 738 q 434 915 488 849 q 268 982 381 982 "},"И":{"ha":568,"x_min":56,"x_max":514,"o":"m 313 451 l 417 774 l 417 0 l 514 0 l 514 972 l 393 972 l 251 554 l 151 247 l 151 972 l 56 972 l 56 0 l 168 0 l 313 451 "},"Й":{"ha":569,"x_min":56,"x_max":514,"o":"m 440 1172 l 374 1172 q 348 1117 371 1132 q 290 1101 325 1101 q 233 1117 256 1101 q 208 1172 211 1132 l 140 1172 q 181 1072 143 1108 q 290 1036 219 1036 q 401 1072 361 1036 q 440 1172 440 1108 m 315 460 l 417 774 l 417 0 l 514 0 l 514 972 l 393 972 l 243 532 l 151 247 l 151 972 l 56 972 l 56 0 l 168 0 l 315 460 "},"К":{"ha":568,"x_min":56,"x_max":540,"o":"m 221 422 l 429 0 l 540 0 l 286 529 l 532 972 l 422 972 l 164 503 l 164 972 l 56 972 l 56 0 l 164 0 l 164 326 l 221 422 "},"Л":{"ha":617,"x_min":26,"x_max":557,"o":"m 263 874 l 449 874 l 449 0 l 557 0 l 557 972 l 161 972 l 135 236 q 129 175 133 201 q 113 131 125 149 q 81 106 101 114 q 26 97 60 97 l 26 -1 l 44 -1 q 137 15 100 -1 q 196 63 174 32 q 228 139 218 94 q 240 242 238 183 l 263 874 "},"М":{"ha":726,"x_min":54,"x_max":671,"o":"m 414 1 l 568 782 l 568 0 l 671 0 l 671 972 l 519 972 l 365 196 l 206 972 l 54 972 l 54 0 l 149 0 l 149 775 l 310 1 l 414 1 "},"Н":{"ha":567,"x_min":56,"x_max":511,"o":"m 164 438 l 403 438 l 403 0 l 511 0 l 511 972 l 403 972 l 403 535 l 164 535 l 164 972 l 56 972 l 56 0 l 164 0 l 164 438 "},"О":{"ha":540,"x_min":47,"x_max":493,"o":"m 47 738 l 47 235 q 102 57 47 124 q 269 -10 157 -10 q 438 57 382 -10 q 493 235 493 124 l 493 738 q 438 916 493 850 q 269 982 382 982 q 102 916 157 982 q 47 738 47 850 m 154 229 l 154 743 q 183 847 154 810 q 269 883 211 883 q 357 847 329 883 q 385 743 385 810 l 385 229 q 357 126 385 163 q 269 89 329 89 q 183 126 211 89 q 154 229 154 163 "},"П":{"ha":567,"x_min":56,"x_max":511,"o":"m 164 874 l 403 874 l 403 0 l 511 0 l 511 972 l 56 972 l 56 0 l 164 0 l 164 874 "},"Р":{"ha":515,"x_min":56,"x_max":486,"o":"m 268 972 l 56 972 l 56 0 l 164 0 l 164 383 l 260 383 q 431 442 376 383 q 486 618 486 501 l 486 735 q 435 909 486 846 q 268 972 383 972 m 260 481 l 164 481 l 164 874 l 268 874 q 353 840 328 874 q 379 740 379 807 l 379 611 q 350 510 379 540 q 260 481 321 481 "},"С":{"ha":528,"x_min":47,"x_max":485,"o":"m 265 982 q 169 965 210 982 q 101 915 128 947 q 60 838 74 883 q 47 738 47 793 l 47 235 q 101 57 47 124 q 265 -10 154 -10 q 431 57 378 -10 q 485 235 485 124 l 485 356 l 382 356 l 382 229 q 355 126 382 163 q 268 89 328 89 q 182 126 210 89 q 154 229 154 163 l 154 743 q 182 847 154 810 q 268 883 210 883 q 355 847 328 883 q 382 743 382 810 l 382 650 l 485 650 l 485 738 q 431 915 485 849 q 265 982 378 982 "},"Т":{"ha":517,"x_min":25,"x_max":492,"o":"m 204 0 l 313 0 l 313 874 l 492 874 l 492 972 l 25 972 l 25 874 l 204 874 l 204 0 "},"У":{"ha":579,"x_min":25,"x_max":556,"o":"m 347 214 l 556 972 l 443 972 l 356 635 l 299 390 l 232 635 l 133 972 l 25 972 l 249 256 l 226 192 q 181 115 213 136 q 88 96 150 93 l 88 -1 q 198 8 154 -4 q 271 49 242 21 q 317 118 300 76 q 347 214 335 160 "},"Ф":{"ha":790,"x_min":47,"x_max":740,"o":"m 515 858 l 447 858 l 447 972 l 340 972 l 340 858 l 272 858 q 101 795 154 858 q 47 615 47 732 l 47 350 q 101 170 47 233 q 272 107 154 107 l 340 107 l 340 0 l 447 0 l 447 107 l 515 107 q 687 170 633 107 q 740 350 740 233 l 740 615 q 687 795 740 732 q 515 858 633 858 m 272 763 l 340 763 l 340 201 l 272 201 q 182 237 210 201 q 154 343 154 272 l 154 622 q 182 728 154 693 q 272 763 210 763 m 515 201 l 447 201 l 447 763 l 515 763 q 606 728 578 763 q 635 622 635 693 l 635 343 q 515 201 635 201 "},"Х":{"ha":604,"x_min":32,"x_max":572,"o":"m 297 419 l 458 0 l 572 0 l 378 501 l 560 972 l 458 972 l 307 583 l 157 972 l 44 972 l 228 501 l 32 0 l 135 0 l 297 419 "},"Ч":{"ha":557,"x_min":49,"x_max":500,"o":"m 393 431 l 393 0 l 500 0 l 500 972 l 393 972 l 393 567 q 276 453 376 453 q 188 492 218 453 q 157 593 157 531 l 157 972 l 49 972 l 49 585 q 60 494 49 536 q 96 420 72 451 q 156 372 119 389 q 242 354 193 354 q 326 374 286 354 q 393 431 367 393 "},"Ц":{"ha":632,"x_min":65,"x_max":594,"o":"m 489 -131 l 594 -131 l 594 96 l 521 96 l 521 972 l 411 972 l 411 99 l 172 99 l 172 972 l 65 972 l 65 0 l 489 0 l 489 -131 "},"Ш":{"ha":807,"x_min":56,"x_max":751,"o":"m 164 972 l 56 972 l 56 0 l 751 0 l 751 972 l 644 972 l 644 99 l 458 99 l 458 972 l 350 972 l 350 99 l 164 99 l 164 972 "},"Щ":{"ha":864,"x_min":56,"x_max":826,"o":"m 722 -131 l 826 -131 l 826 96 l 751 96 l 751 972 l 644 972 l 644 99 l 457 99 l 457 972 l 350 972 l 350 99 l 164 99 l 164 972 l 56 972 l 56 0 l 722 0 l 722 -131 "},"Я":{"ha":547,"x_min":38,"x_max":492,"o":"m 307 415 l 383 415 l 383 0 l 492 0 l 492 972 l 275 972 q 109 915 160 972 q 58 750 58 858 l 58 671 q 178 471 58 510 q 84 399 111 451 q 57 268 57 347 l 57 117 q 53 55 57 85 q 38 0 50 25 l 147 0 q 161 45 157 21 q 165 118 165 69 l 165 271 q 202 384 165 353 q 307 415 239 415 m 278 874 l 383 874 l 383 514 l 301 514 q 201 541 238 514 q 165 647 165 568 l 165 740 q 191 840 165 807 q 278 874 217 874 "},"Ь":{"ha":529,"x_min":56,"x_max":486,"o":"m 260 589 l 164 589 l 164 972 l 56 972 l 56 0 l 268 0 q 434 63 382 0 q 486 238 486 126 l 486 354 q 431 530 486 471 q 260 589 376 589 m 268 99 l 164 99 l 164 492 l 260 492 q 350 462 321 492 q 379 361 379 432 l 379 232 q 353 132 379 165 q 268 99 328 99 "},"Ъ":{"ha":608,"x_min":14,"x_max":567,"o":"m 340 589 l 243 589 l 243 972 l 14 972 l 14 875 l 136 875 l 136 0 l 349 0 q 515 63 463 0 q 567 238 567 126 l 567 354 q 340 589 567 589 m 349 99 l 243 99 l 243 492 l 340 492 q 430 462 401 492 q 458 361 458 432 l 458 232 q 433 132 458 165 q 349 99 408 99 "},"Ы":{"ha":739,"x_min":56,"x_max":683,"o":"m 260 589 l 164 589 l 164 972 l 56 972 l 56 0 l 268 0 q 434 63 382 0 q 486 238 486 126 l 486 354 q 431 530 486 471 q 260 589 376 589 m 683 972 l 576 972 l 576 0 l 683 0 l 683 972 m 268 99 l 164 99 l 164 492 l 260 492 q 350 462 321 492 q 379 361 379 432 l 379 232 q 353 132 379 165 q 268 99 328 99 "},"Э":{"ha":528,"x_min":43,"x_max":479,"o":"m 261 982 q 165 965 206 982 q 97 915 124 947 q 58 838 71 883 q 44 738 44 793 l 44 665 l 144 665 l 144 743 q 172 847 144 810 q 258 883 200 883 q 344 847 317 883 q 372 743 372 810 l 372 551 l 203 551 l 203 454 l 372 454 l 372 229 q 344 126 372 163 q 258 89 317 89 q 172 126 200 89 q 144 229 144 163 l 144 340 l 43 340 l 43 235 q 97 57 43 124 q 261 -10 150 -10 q 426 57 372 -10 q 479 235 479 124 l 479 738 q 466 838 479 793 q 426 915 453 883 q 358 965 399 947 q 261 982 317 982 "},"Ю":{"ha":799,"x_min":56,"x_max":750,"o":"m 528 982 q 360 916 415 982 q 304 738 304 850 l 304 535 l 164 535 l 164 972 l 56 972 l 56 0 l 164 0 l 164 438 l 304 438 l 304 235 q 360 57 304 124 q 528 -10 415 -10 q 695 57 640 -10 q 750 235 750 124 l 750 738 q 695 916 750 850 q 528 982 640 982 m 528 883 q 615 847 586 883 q 643 743 643 810 l 643 229 q 615 126 643 163 q 528 89 586 89 q 440 126 468 89 q 413 229 413 163 l 413 743 q 440 847 413 810 q 528 883 468 883 "},"а":{"ha":586,"x_min":28,"x_max":557,"o":"m 165 196 l 411 196 l 449 0 l 557 0 l 371 972 l 214 972 l 28 0 l 128 0 l 165 196 m 179 289 l 286 850 l 396 289 l 179 289 "},"б":{"ha":557,"x_min":57,"x_max":507,"o":"m 278 571 l 164 571 l 164 874 l 467 874 l 467 972 l 57 972 l 57 0 l 283 0 q 453 61 399 0 q 507 236 507 122 l 507 343 q 449 516 507 461 q 278 571 392 571 m 283 99 l 164 99 l 164 474 l 278 474 q 368 447 338 474 q 399 350 399 421 l 399 229 q 371 130 399 161 q 283 99 343 99 "},"в":{"ha":544,"x_min":56,"x_max":501,"o":"m 274 972 l 56 972 l 56 0 l 279 0 q 447 59 393 0 q 501 228 501 118 l 501 310 q 472 444 501 390 q 371 518 442 499 q 460 585 435 538 q 485 711 485 633 l 485 757 q 436 919 485 865 q 274 972 388 972 m 247 560 l 164 560 l 164 874 l 271 874 q 353 842 329 874 q 378 746 378 811 l 378 689 q 345 586 378 613 q 247 560 313 560 m 279 99 l 164 99 l 164 461 l 258 461 q 362 430 329 461 q 394 317 394 399 l 394 231 q 279 99 394 99 "},"г":{"ha":494,"x_min":57,"x_max":444,"o":"m 164 874 l 444 874 l 444 972 l 57 972 l 57 0 l 164 0 l 164 874 "},"д":{"ha":679,"x_min":33,"x_max":640,"o":"m 535 -133 l 640 -133 l 640 96 l 567 96 l 567 972 l 176 972 l 139 238 q 128 158 136 193 q 96 96 121 124 l 33 96 l 33 -133 l 138 -133 l 138 0 l 535 0 l 535 -133 m 244 239 l 276 874 l 457 874 l 457 96 l 200 96 q 233 153 224 119 q 244 239 242 186 "},"е":{"ha":500,"x_min":56,"x_max":456,"o":"m 401 542 l 164 542 l 164 874 l 456 874 l 456 972 l 56 972 l 56 0 l 456 0 l 456 99 l 164 99 l 164 444 l 401 444 l 401 542 "},"ё":{"ha":500,"x_min":56,"x_max":456,"o":"m 215 1154 l 121 1154 l 121 1029 l 215 1029 l 215 1154 m 389 1154 l 293 1154 l 293 1029 l 389 1029 l 389 1154 m 401 542 l 164 542 l 164 874 l 456 874 l 456 972 l 56 972 l 56 0 l 456 0 l 456 99 l 164 99 l 164 444 l 401 444 l 401 542 "},"ж":{"ha":851,"x_min":25,"x_max":828,"o":"m 531 458 l 717 0 l 828 0 l 607 563 l 822 972 l 714 972 l 479 525 l 479 972 l 372 972 l 372 525 l 139 972 l 31 972 l 247 560 l 25 0 l 136 0 l 322 460 l 372 367 l 372 0 l 479 0 l 479 367 l 531 458 "},"з":{"ha":538,"x_min":50,"x_max":488,"o":"m 268 982 q 103 917 156 982 q 51 739 51 851 l 51 678 l 151 678 l 151 743 q 179 847 151 810 q 265 883 207 883 q 352 846 325 883 q 379 733 379 808 l 379 689 q 347 590 379 625 q 260 556 314 556 l 208 556 l 208 458 l 254 458 q 379 314 379 458 l 379 238 q 352 126 379 164 q 265 89 325 89 q 179 126 207 89 q 151 229 151 163 l 151 329 l 50 329 l 50 235 q 103 57 50 124 q 268 -10 157 -10 q 434 57 381 -10 q 488 235 488 124 l 488 311 q 459 438 488 385 q 368 511 431 490 q 458 585 428 533 q 488 713 488 638 l 488 738 q 434 915 488 849 q 268 982 381 982 "},"и":{"ha":568,"x_min":56,"x_max":514,"o":"m 311 449 l 417 774 l 417 0 l 514 0 l 514 972 l 393 972 l 238 515 l 151 247 l 151 972 l 56 972 l 56 0 l 168 0 l 311 449 "},"й":{"ha":569,"x_min":56,"x_max":514,"o":"m 440 1171 l 374 1171 q 348 1115 371 1131 q 290 1100 325 1100 q 233 1115 256 1100 q 208 1171 211 1131 l 140 1171 q 181 1071 143 1107 q 290 1035 219 1035 q 401 1071 361 1035 q 440 1171 440 1107 m 319 468 l 417 774 l 417 0 l 514 0 l 514 972 l 393 972 l 242 528 l 151 247 l 151 972 l 56 972 l 56 0 l 168 0 l 319 468 "},"к":{"ha":568,"x_min":56,"x_max":540,"o":"m 221 422 l 429 0 l 540 0 l 286 529 l 532 972 l 422 972 l 164 503 l 164 972 l 56 972 l 56 0 l 164 0 l 164 326 l 221 422 "},"л":{"ha":617,"x_min":26,"x_max":557,"o":"m 263 874 l 449 874 l 449 0 l 557 0 l 557 972 l 161 972 l 135 236 q 129 175 133 201 q 113 131 125 149 q 81 106 101 114 q 26 97 60 97 l 26 -1 l 44 -1 q 137 15 100 -1 q 196 63 174 32 q 228 139 218 94 q 240 242 238 183 l 263 874 "},"м":{"ha":726,"x_min":54,"x_max":671,"o":"m 414 1 l 568 782 l 568 0 l 671 0 l 671 972 l 519 972 l 365 196 l 206 972 l 54 972 l 54 0 l 149 0 l 149 775 l 310 1 l 414 1 "},"н":{"ha":567,"x_min":56,"x_max":511,"o":"m 164 438 l 403 438 l 403 0 l 511 0 l 511 972 l 403 972 l 403 535 l 164 535 l 164 972 l 56 972 l 56 0 l 164 0 l 164 438 "},"о":{"ha":540,"x_min":47,"x_max":493,"o":"m 47 738 l 47 235 q 102 57 47 124 q 269 -10 157 -10 q 438 57 382 -10 q 493 235 493 124 l 493 738 q 438 916 493 850 q 269 982 382 982 q 102 916 157 982 q 47 738 47 850 m 154 229 l 154 743 q 183 847 154 810 q 269 883 211 883 q 357 847 329 883 q 385 743 385 810 l 385 229 q 357 126 385 163 q 269 89 329 89 q 183 126 211 89 q 154 229 154 163 "},"п":{"ha":567,"x_min":56,"x_max":511,"o":"m 164 874 l 403 874 l 403 0 l 511 0 l 511 972 l 56 972 l 56 0 l 164 0 l 164 874 "},"р":{"ha":515,"x_min":56,"x_max":486,"o":"m 268 972 l 56 972 l 56 0 l 164 0 l 164 383 l 260 383 q 431 442 376 383 q 486 618 486 501 l 486 735 q 435 909 486 846 q 268 972 383 972 m 260 481 l 164 481 l 164 874 l 268 874 q 353 840 328 874 q 379 740 379 807 l 379 611 q 350 510 379 540 q 260 481 321 481 "},"с":{"ha":528,"x_min":47,"x_max":485,"o":"m 265 982 q 169 965 210 982 q 101 915 128 947 q 60 838 74 883 q 47 738 47 793 l 47 235 q 101 57 47 124 q 265 -10 154 -10 q 431 57 378 -10 q 485 235 485 124 l 485 356 l 382 356 l 382 229 q 355 126 382 163 q 268 89 328 89 q 182 126 210 89 q 154 229 154 163 l 154 743 q 182 847 154 810 q 268 883 210 883 q 355 847 328 883 q 382 743 382 810 l 382 650 l 485 650 l 485 738 q 431 915 485 849 q 265 982 378 982 "},"т":{"ha":517,"x_min":25,"x_max":492,"o":"m 204 0 l 313 0 l 313 874 l 492 874 l 492 972 l 25 972 l 25 874 l 204 874 l 204 0 "},"у":{"ha":579,"x_min":25,"x_max":556,"o":"m 347 214 l 556 972 l 443 972 l 356 635 l 299 390 l 232 635 l 133 972 l 25 972 l 249 256 l 226 192 q 181 115 213 136 q 88 96 150 93 l 88 -1 q 198 8 154 -4 q 271 49 242 21 q 317 118 300 76 q 347 214 335 160 "},"ф":{"ha":790,"x_min":47,"x_max":740,"o":"m 515 858 l 447 858 l 447 972 l 340 972 l 340 858 l 272 858 q 101 795 154 858 q 47 615 47 732 l 47 350 q 101 170 47 233 q 272 107 154 107 l 340 107 l 340 0 l 447 0 l 447 107 l 515 107 q 687 170 633 107 q 740 350 740 233 l 740 615 q 687 795 740 732 q 515 858 633 858 m 272 763 l 340 763 l 340 201 l 272 201 q 182 237 210 201 q 154 343 154 272 l 154 622 q 182 728 154 693 q 272 763 210 763 m 515 201 l 447 201 l 447 763 l 515 763 q 606 728 578 763 q 635 622 635 693 l 635 343 q 515 201 635 201 "},"х":{"ha":604,"x_min":32,"x_max":572,"o":"m 297 419 l 458 0 l 572 0 l 378 501 l 560 972 l 458 972 l 307 583 l 157 972 l 44 972 l 228 501 l 32 0 l 135 0 l 297 419 "},"ч":{"ha":557,"x_min":49,"x_max":500,"o":"m 393 431 l 393 0 l 500 0 l 500 972 l 393 972 l 393 567 q 276 453 376 453 q 188 492 218 453 q 157 593 157 531 l 157 972 l 49 972 l 49 585 q 60 494 49 536 q 96 420 72 451 q 156 372 119 389 q 242 354 193 354 q 326 374 286 354 q 393 431 367 393 "},"ц":{"ha":632,"x_min":65,"x_max":594,"o":"m 489 -131 l 594 -131 l 594 96 l 521 96 l 521 972 l 411 972 l 411 99 l 172 99 l 172 972 l 65 972 l 65 0 l 489 0 l 489 -131 "},"ш":{"ha":807,"x_min":56,"x_max":751,"o":"m 164 972 l 56 972 l 56 0 l 751 0 l 751 972 l 644 972 l 644 99 l 458 99 l 458 972 l 350 972 l 350 99 l 164 99 l 164 972 "},"щ":{"ha":864,"x_min":56,"x_max":826,"o":"m 722 -131 l 826 -131 l 826 96 l 751 96 l 751 972 l 644 972 l 644 99 l 457 99 l 457 972 l 350 972 l 350 99 l 164 99 l 164 972 l 56 972 l 56 0 l 722 0 l 722 -131 "},"ь":{"ha":529,"x_min":56,"x_max":486,"o":"m 260 589 l 164 589 l 164 972 l 56 972 l 56 0 l 268 0 q 434 63 382 0 q 486 238 486 126 l 486 354 q 431 530 486 471 q 260 589 376 589 m 268 99 l 164 99 l 164 492 l 260 492 q 350 462 321 492 q 379 361 379 432 l 379 232 q 353 132 379 165 q 268 99 328 99 "},"ъ":{"ha":608,"x_min":14,"x_max":567,"o":"m 340 589 l 243 589 l 243 972 l 14 972 l 14 875 l 136 875 l 136 0 l 349 0 q 515 63 463 0 q 567 238 567 126 l 567 354 q 340 589 567 589 m 349 99 l 243 99 l 243 492 l 340 492 q 430 462 401 492 q 458 361 458 432 l 458 232 q 433 132 458 165 q 349 99 408 99 "},"ы":{"ha":739,"x_min":56,"x_max":683,"o":"m 260 589 l 164 589 l 164 972 l 56 972 l 56 0 l 268 0 q 434 63 382 0 q 486 238 486 126 l 486 354 q 431 530 486 471 q 260 589 376 589 m 683 972 l 576 972 l 576 0 l 683 0 l 683 972 m 268 99 l 164 99 l 164 492 l 260 492 q 350 462 321 492 q 379 361 379 432 l 379 232 q 353 132 379 165 q 268 99 328 99 "},"э":{"ha":528,"x_min":43,"x_max":479,"o":"m 261 982 q 165 965 206 982 q 97 915 124 947 q 58 838 71 883 q 44 738 44 793 l 44 665 l 144 665 l 144 743 q 172 847 144 810 q 258 883 200 883 q 344 847 317 883 q 372 743 372 810 l 372 551 l 203 551 l 203 454 l 372 454 l 372 229 q 344 126 372 163 q 258 89 317 89 q 172 126 200 89 q 144 229 144 163 l 144 340 l 43 340 l 43 235 q 97 57 43 124 q 261 -10 150 -10 q 426 57 372 -10 q 479 235 479 124 l 479 738 q 466 838 479 793 q 426 915 453 883 q 358 965 399 947 q 261 982 317 982 "},"ю":{"ha":799,"x_min":56,"x_max":750,"o":"m 528 982 q 360 916 415 982 q 304 738 304 850 l 304 535 l 164 535 l 164 972 l 56 972 l 56 0 l 164 0 l 164 438 l 304 438 l 304 235 q 360 57 304 124 q 528 -10 415 -10 q 695 57 640 -10 q 750 235 750 124 l 750 738 q 695 916 750 850 q 528 982 640 982 m 528 883 q 615 847 586 883 q 643 743 643 810 l 643 229 q 615 126 643 163 q 528 89 586 89 q 440 126 468 89 q 413 229 413 163 l 413 743 q 440 847 413 810 q 528 883 468 883 "},"я":{"ha":547,"x_min":38,"x_max":492,"o":"m 307 415 l 383 415 l 383 0 l 492 0 l 492 972 l 275 972 q 109 915 160 972 q 58 750 58 858 l 58 671 q 178 471 58 510 q 84 399 111 451 q 57 268 57 347 l 57 117 q 53 55 57 85 q 38 0 50 25 l 147 0 q 161 45 157 21 q 165 118 165 69 l 165 271 q 202 384 165 353 q 307 415 239 415 m 278 874 l 383 874 l 383 514 l 301 514 q 201 541 238 514 q 165 647 165 568 l 165 740 q 191 840 165 807 q 278 874 217 874 "},"⁄":{"ha":228,"x_min":-110,"x_max":339,"o":"m 339 972 l 274 972 l -110 0 l -44 0 l 339 972 "},"½":{"ha":832,"x_min":79,"x_max":786,"o":"m 164 865 l 164 356 l 233 356 l 233 972 l 185 972 q 151 917 172 940 q 79 892 129 893 l 79 840 q 164 865 129 844 m 610 972 l 544 972 l 161 0 l 226 0 l 610 972 m 647 625 q 540 581 574 625 q 507 467 507 538 l 507 418 l 574 418 l 574 471 q 591 537 574 513 q 644 561 608 561 q 717 467 717 561 q 701 389 717 422 q 663 326 686 356 q 612 268 639 296 q 561 209 585 240 q 522 140 538 178 q 507 53 507 103 l 507 0 l 779 0 l 779 64 l 576 64 l 576 74 q 592 140 576 110 q 632 199 608 171 q 683 255 656 226 q 733 315 710 283 q 771 384 756 347 q 786 468 786 421 q 753 582 786 539 q 647 625 719 625 "},"⅓":{"ha":828,"x_min":79,"x_max":776,"o":"m 164 865 l 164 356 l 233 356 l 233 972 l 185 972 q 151 917 172 940 q 79 892 129 893 l 79 840 q 164 865 129 844 m 610 972 l 544 972 l 161 0 l 226 0 l 610 972 m 636 624 q 531 581 564 624 q 497 467 497 539 l 497 440 l 564 440 l 564 472 q 581 536 564 513 q 635 560 599 560 q 706 465 706 560 l 706 438 q 687 375 707 397 q 632 353 667 353 l 592 353 l 592 289 l 629 289 q 706 199 706 289 l 706 151 q 635 57 706 57 q 581 81 599 57 q 564 144 564 104 l 564 192 l 497 192 l 497 150 q 531 35 497 78 q 636 -7 564 -7 q 742 35 708 -7 q 776 150 776 78 l 776 197 q 759 276 776 243 q 703 325 742 310 q 776 451 776 354 l 776 467 q 742 581 776 539 q 636 624 708 624 "},"⅔":{"ha":858,"x_min":57,"x_max":807,"o":"m 197 979 q 90 936 124 979 q 57 822 57 893 l 57 772 l 124 772 l 124 825 q 141 891 124 867 q 194 915 158 915 q 267 821 267 915 q 251 744 267 778 q 213 681 236 710 q 162 624 189 651 q 111 565 135 596 q 72 495 88 533 q 57 407 57 457 l 57 354 l 329 354 l 329 418 l 126 418 l 126 425 q 142 491 126 461 q 180 549 157 521 q 231 607 203 578 q 281 668 258 636 q 320 738 304 700 q 336 822 336 775 q 303 936 336 893 q 197 979 269 979 m 278 0 l 661 972 l 596 972 l 213 0 l 278 0 m 668 624 q 562 581 596 624 q 528 467 528 539 l 528 440 l 594 440 l 594 472 q 612 536 594 513 q 665 560 629 560 q 736 465 736 560 l 736 438 q 717 375 738 397 q 663 353 697 353 l 622 353 l 622 289 l 660 289 q 736 199 736 289 l 736 151 q 665 57 736 57 q 612 81 629 57 q 594 144 594 104 l 594 192 l 528 192 l 528 150 q 562 35 528 78 q 668 -7 596 -7 q 773 35 739 -7 q 807 150 807 78 l 807 197 q 790 276 807 243 q 733 325 772 310 q 807 451 807 354 l 807 467 q 773 581 807 539 q 668 624 739 624 "},"¼":{"ha":801,"x_min":79,"x_max":764,"o":"m 164 865 l 164 356 l 233 356 l 233 972 l 185 972 q 151 917 172 940 q 79 892 129 893 l 79 840 q 164 865 129 844 m 254 0 l 638 972 l 572 972 l 189 0 l 254 0 m 717 0 l 717 122 l 764 122 l 764 188 l 717 188 l 717 617 l 639 617 l 449 188 l 449 122 l 647 122 l 647 0 l 717 0 m 647 188 l 513 188 l 647 482 l 647 188 "},"¾":{"ha":836,"x_min":51,"x_max":799,"o":"m 192 979 q 85 937 119 979 q 51 822 51 894 l 51 796 l 118 796 l 118 828 q 135 892 118 868 q 189 915 153 915 q 261 821 261 915 l 261 793 q 241 731 261 753 q 188 708 221 708 l 147 708 l 147 644 l 185 644 q 261 554 261 644 l 261 507 q 189 413 261 413 q 135 436 153 413 q 118 500 118 460 l 118 547 l 51 547 l 51 506 q 85 391 51 433 q 192 349 119 349 q 297 391 263 349 q 331 506 331 433 l 331 553 q 314 632 331 599 q 258 681 297 665 q 331 807 331 710 l 331 822 q 297 937 331 894 q 192 979 263 979 m 617 972 l 233 0 l 299 0 l 682 972 l 617 972 m 682 122 l 682 0 l 751 0 l 751 122 l 799 122 l 799 188 l 751 188 l 751 617 l 674 617 l 483 188 l 483 122 l 682 122 m 547 188 l 682 482 l 682 188 l 547 188 "},"⅛":{"ha":835,"x_min":79,"x_max":788,"o":"m 164 865 l 164 356 l 233 356 l 233 972 l 185 972 q 151 917 172 940 q 79 892 129 893 l 79 840 q 164 865 129 844 m 161 0 l 226 0 l 610 972 l 544 972 l 161 0 m 642 624 q 532 583 569 624 q 494 471 494 542 l 494 450 q 510 372 494 406 q 563 324 526 339 q 510 272 526 307 q 494 193 494 238 l 494 147 q 531 35 494 76 q 642 -7 568 -7 q 751 35 714 -7 q 788 147 788 76 l 788 193 q 772 272 788 238 q 721 324 757 307 q 772 372 756 339 q 788 450 788 406 l 788 471 q 750 583 788 542 q 642 624 713 624 m 642 560 q 698 538 678 560 q 718 468 718 517 l 718 439 q 698 374 718 394 q 642 353 678 353 q 565 439 565 353 l 565 468 q 585 538 565 517 q 642 560 606 560 m 642 289 q 718 201 718 289 l 718 149 q 642 57 718 57 q 565 149 565 57 l 565 201 q 642 289 565 289 "},"⅜":{"ha":869,"x_min":51,"x_max":822,"o":"m 192 979 q 85 937 119 979 q 51 822 51 894 l 51 796 l 118 796 l 118 828 q 135 892 118 868 q 189 915 153 915 q 261 821 261 915 l 261 793 q 241 731 261 753 q 188 708 221 708 l 147 708 l 147 644 l 185 644 q 261 554 261 644 l 261 507 q 189 413 261 413 q 135 436 153 413 q 118 500 118 460 l 118 547 l 51 547 l 51 506 q 85 391 51 433 q 192 349 119 349 q 297 391 263 349 q 331 506 331 433 l 331 553 q 314 632 331 599 q 258 681 297 665 q 331 807 331 710 l 331 822 q 297 937 331 894 q 192 979 263 979 m 657 972 l 592 972 l 208 0 l 274 0 l 657 972 m 676 624 q 567 583 604 624 q 531 471 531 542 l 531 450 q 546 372 531 406 q 597 324 561 339 q 546 272 561 307 q 531 193 531 238 l 531 147 q 567 35 531 76 q 676 -7 604 -7 q 785 35 749 -7 q 822 147 822 76 l 822 193 q 807 272 822 238 q 756 324 792 307 q 807 372 792 339 q 822 450 822 406 l 822 471 q 785 583 822 542 q 676 624 749 624 m 676 560 q 733 538 713 560 q 753 468 753 517 l 753 439 q 733 374 753 394 q 676 353 713 353 q 600 439 600 353 l 600 468 q 620 538 600 517 q 676 560 640 560 m 676 289 q 753 201 753 289 l 753 149 q 676 57 753 57 q 600 149 600 57 l 600 201 q 676 289 600 289 "},"⅝":{"ha":869,"x_min":53,"x_max":822,"o":"m 590 972 l 207 0 l 272 0 l 656 972 l 590 972 m 126 722 l 135 907 l 317 907 l 317 971 l 74 971 l 56 626 l 122 626 l 122 640 q 144 690 125 674 q 190 706 164 706 q 244 682 226 706 q 261 618 261 658 l 261 499 q 244 434 261 457 q 190 411 226 411 q 137 434 154 411 q 119 499 119 457 l 119 544 l 53 544 l 53 503 q 87 389 53 432 q 192 346 121 346 q 298 389 264 346 q 332 503 332 432 l 332 624 q 304 731 332 690 q 218 771 276 771 q 126 722 156 771 m 675 624 q 567 583 604 624 q 529 471 529 542 l 529 450 q 545 372 529 406 q 596 324 561 339 q 544 272 560 307 q 529 193 529 238 l 529 147 q 566 35 529 76 q 675 -7 603 -7 q 785 35 749 -7 q 822 147 822 76 l 822 193 q 806 272 822 238 q 754 324 790 307 q 806 372 790 339 q 822 450 822 406 l 822 471 q 785 583 822 542 q 675 624 747 624 m 675 560 q 731 538 711 560 q 751 468 751 517 l 751 439 q 731 374 751 394 q 675 353 711 353 q 599 439 599 353 l 599 468 q 619 538 599 517 q 675 560 639 560 m 675 289 q 751 201 751 289 l 751 149 q 675 57 751 57 q 599 149 599 57 l 599 201 q 675 289 599 289 "},"⅞":{"ha":825,"x_min":51,"x_max":778,"o":"m 260 908 l 103 356 l 172 356 l 332 911 l 332 972 l 51 972 l 51 908 l 260 908 m 200 0 l 583 972 l 518 972 l 135 0 l 200 0 m 631 624 q 522 583 558 624 q 485 471 485 542 l 485 450 q 500 372 485 406 q 551 324 515 339 q 500 272 515 307 q 485 193 485 238 l 485 147 q 522 35 485 76 q 631 -7 558 -7 q 741 35 704 -7 q 778 147 778 76 l 778 193 q 762 272 778 238 q 710 324 746 307 q 762 372 746 339 q 778 450 778 406 l 778 471 q 740 583 778 542 q 631 624 703 624 m 631 560 q 687 538 667 560 q 707 468 707 517 l 707 439 q 687 374 707 394 q 631 353 667 353 q 554 439 554 353 l 554 468 q 574 538 554 517 q 631 560 594 560 m 631 289 q 707 201 707 289 l 707 149 q 631 57 707 57 q 554 149 554 57 l 554 201 q 631 289 554 289 "},"₀":{"ha":385,"x_min":50,"x_max":335,"o":"m 50 376 l 50 60 q 85 -55 50 -12 q 192 -97 119 -97 q 299 -55 264 -97 q 335 60 335 -12 l 335 376 q 299 491 335 449 q 192 533 264 533 q 85 491 119 533 q 50 376 50 449 m 119 54 l 119 382 q 137 446 119 422 q 192 469 154 469 q 247 446 229 469 q 264 382 264 422 l 264 54 q 247 -10 264 14 q 192 -33 229 -33 q 137 -10 154 -33 q 119 54 119 14 "},"₁":{"ha":263,"x_min":42,"x_max":196,"o":"m 126 419 l 126 -90 l 196 -90 l 196 526 l 147 526 q 113 471 135 494 q 42 446 92 447 l 42 394 q 126 419 92 399 "},"₂":{"ha":382,"x_min":57,"x_max":336,"o":"m 197 535 q 90 491 124 535 q 57 376 57 447 l 57 328 l 124 328 l 124 381 q 141 447 124 422 q 194 471 158 471 q 267 376 267 471 q 251 299 267 332 q 213 235 236 265 q 162 178 189 206 q 111 119 135 150 q 72 50 88 88 q 57 -37 57 13 l 57 -90 l 329 -90 l 329 -26 l 126 -26 l 126 -21 q 140 46 125 15 q 179 105 156 76 q 230 162 203 133 q 281 223 257 190 q 320 293 304 256 q 336 378 336 331 q 303 492 336 449 q 197 535 269 535 "},"₃":{"ha":382,"x_min":51,"x_max":331,"o":"m 192 533 q 85 491 119 533 q 51 376 51 449 l 51 350 l 118 350 l 118 382 q 135 446 118 422 q 189 469 153 469 q 261 375 261 469 l 261 347 q 241 285 261 307 q 188 263 221 263 l 147 263 l 147 199 l 185 199 q 261 108 261 199 l 261 61 q 189 -33 261 -33 q 135 -10 153 -33 q 118 54 118 14 l 118 101 l 51 101 l 51 60 q 85 -55 51 -12 q 192 -97 119 -97 q 297 -55 263 -97 q 331 60 331 -12 l 331 107 q 313 186 331 153 q 258 235 296 219 q 331 361 331 264 l 331 376 q 297 491 331 449 q 192 533 263 533 "},"₄":{"ha":393,"x_min":40,"x_max":357,"o":"m 308 31 l 357 31 l 357 94 l 308 94 l 308 524 l 232 524 l 40 94 l 40 31 l 239 31 l 239 -93 l 308 -93 l 308 31 m 104 94 l 239 389 l 239 94 l 104 94 "},"₅":{"ha":382,"x_min":53,"x_max":332,"o":"m 119 56 l 119 101 l 53 101 l 53 58 q 87 -55 53 -12 q 192 -97 121 -97 q 298 -55 264 -97 q 332 58 332 -12 l 332 181 q 304 287 332 247 q 218 326 276 326 q 126 278 156 326 l 135 464 l 317 464 l 317 528 l 74 528 l 56 183 l 122 183 l 122 197 q 144 247 125 231 q 190 263 164 263 q 244 239 226 263 q 261 175 261 215 l 261 56 q 244 -9 261 14 q 190 -32 226 -32 q 137 -9 154 -32 q 119 56 119 14 "},"₆":{"ha":385,"x_min":51,"x_max":336,"o":"m 194 533 q 85 490 119 533 q 51 374 51 447 l 51 60 q 87 -54 51 -11 q 194 -97 122 -97 q 301 -54 267 -97 q 336 60 336 -11 l 336 153 q 308 260 336 219 q 221 300 281 300 q 122 238 150 300 l 122 371 q 140 445 122 421 q 197 469 157 469 q 251 447 233 469 q 268 382 268 424 l 268 367 l 335 367 l 335 378 q 301 491 335 449 q 194 533 267 533 m 194 236 q 249 213 231 236 q 267 147 267 189 l 267 54 q 249 -10 267 13 q 194 -33 231 -33 q 140 -10 157 -33 q 122 54 122 13 l 122 147 q 140 213 122 189 q 194 236 157 236 "},"₇":{"ha":382,"x_min":51,"x_max":332,"o":"m 260 465 l 103 -87 l 172 -87 l 332 468 l 332 529 l 51 529 l 51 465 l 260 465 "},"₈":{"ha":388,"x_min":47,"x_max":340,"o":"m 193 533 q 85 492 122 533 q 47 381 47 451 l 47 360 q 63 282 47 315 q 114 233 79 249 q 63 182 78 217 q 47 103 47 147 l 47 57 q 84 -56 47 -14 q 193 -97 121 -97 q 303 -56 267 -97 q 340 57 340 -14 l 340 103 q 324 182 340 147 q 272 233 308 217 q 324 282 308 249 q 340 360 340 315 l 340 381 q 303 492 340 451 q 193 533 265 533 m 193 469 q 249 448 229 469 q 269 378 269 426 l 269 349 q 249 283 269 304 q 193 263 229 263 q 117 349 117 263 l 117 378 q 137 448 117 426 q 193 469 157 469 m 193 199 q 269 111 269 199 l 269 58 q 193 -33 269 -33 q 117 58 117 -33 l 117 111 q 193 199 117 199 "},"₉":{"ha":385,"x_min":49,"x_max":332,"o":"m 190 533 q 83 490 118 533 q 49 376 49 447 l 49 283 q 76 176 49 217 q 163 136 104 136 q 263 199 235 136 l 263 65 q 188 -33 263 -33 q 133 -10 151 -33 q 115 54 115 13 l 115 69 l 49 69 l 49 58 q 83 -55 49 -12 q 189 -97 118 -97 q 298 -54 264 -97 q 332 63 332 -11 l 332 376 q 297 490 332 447 q 190 533 263 533 m 190 469 q 244 447 226 469 q 263 382 263 424 l 263 289 q 244 224 263 247 q 190 200 226 200 q 136 224 154 200 q 118 289 118 247 l 118 382 q 136 447 118 424 q 190 469 154 469 "},"⁰":{"ha":385,"x_min":50,"x_max":335,"o":"m 50 954 l 50 638 q 85 523 50 565 q 192 481 119 481 q 299 523 264 481 q 335 638 335 565 l 335 954 q 299 1069 335 1026 q 192 1111 264 1111 q 85 1069 119 1111 q 50 954 50 1026 m 119 632 l 119 960 q 137 1024 119 1000 q 192 1047 154 1047 q 247 1024 229 1047 q 264 960 264 1000 l 264 632 q 247 568 264 592 q 192 544 229 544 q 137 568 154 544 q 119 632 119 592 "},"¹":{"ha":263,"x_min":42,"x_max":196,"o":"m 42 1024 l 42 972 q 126 997 92 976 l 126 488 l 196 488 l 196 1104 l 147 1104 q 113 1049 135 1072 q 42 1024 92 1025 "},"²":{"ha":382,"x_min":57,"x_max":336,"o":"m 197 1113 q 90 1069 124 1113 q 57 954 57 1025 l 57 906 l 124 906 l 124 958 q 141 1024 124 1000 q 194 1049 158 1049 q 267 954 267 1049 q 251 876 267 910 q 213 813 236 843 q 162 756 189 783 q 111 697 135 728 q 72 628 88 665 q 57 540 57 590 l 57 488 l 329 488 l 329 551 l 126 551 l 126 560 q 142 626 126 596 q 182 685 158 657 q 233 742 206 714 q 283 801 260 769 q 321 871 306 833 q 336 956 336 908 q 303 1069 336 1026 q 197 1113 269 1113 "},"³":{"ha":382,"x_min":51,"x_max":331,"o":"m 192 1111 q 85 1069 119 1111 q 51 954 51 1026 l 51 928 l 118 928 l 118 960 q 135 1024 118 1000 q 189 1047 153 1047 q 261 953 261 1047 l 261 925 q 241 863 261 885 q 188 840 221 840 l 147 840 l 147 776 l 185 776 q 261 686 261 776 l 261 639 q 189 544 261 544 q 135 568 153 544 q 118 632 118 592 l 118 679 l 51 679 l 51 638 q 85 523 51 565 q 192 481 119 481 q 297 523 263 481 q 331 638 331 565 l 331 685 q 314 764 331 731 q 258 813 297 797 q 331 939 331 842 l 331 954 q 297 1069 331 1026 q 192 1111 263 1111 "},"⁴":{"ha":393,"x_min":40,"x_max":357,"o":"m 308 610 l 357 610 l 357 675 l 308 675 l 308 1104 l 232 1104 l 40 675 l 40 610 l 239 610 l 239 488 l 308 488 l 308 610 m 104 675 l 239 969 l 239 675 l 104 675 "},"⁵":{"ha":382,"x_min":53,"x_max":332,"o":"m 119 631 l 119 676 l 53 676 l 53 635 q 87 521 53 564 q 192 478 121 478 q 298 521 264 478 q 332 635 332 564 l 332 756 q 304 863 332 822 q 218 903 276 903 q 126 854 156 903 l 135 1039 l 317 1039 l 317 1103 l 74 1103 l 56 758 l 122 758 l 122 772 q 144 822 125 806 q 190 838 164 838 q 244 814 226 838 q 261 750 261 790 l 261 631 q 244 566 261 589 q 190 543 226 543 q 137 566 154 543 q 119 631 119 589 "},"⁶":{"ha":385,"x_min":51,"x_max":336,"o":"m 194 1111 q 85 1068 119 1111 q 51 951 51 1025 l 51 638 q 87 524 51 567 q 194 481 122 481 q 301 524 267 481 q 336 638 336 567 l 336 731 q 308 838 336 797 q 221 878 281 878 q 122 815 150 878 l 122 949 q 140 1023 122 999 q 197 1047 157 1047 q 251 1024 233 1047 q 268 960 268 1001 l 268 944 l 335 944 l 335 956 q 301 1069 335 1026 q 194 1111 267 1111 m 194 814 q 249 790 231 814 q 267 725 267 767 l 267 632 q 249 567 267 590 q 194 544 231 544 q 140 567 157 544 q 122 632 122 590 l 122 725 q 140 790 122 767 q 194 814 157 814 "},"⁷":{"ha":382,"x_min":51,"x_max":332,"o":"m 260 1040 l 103 488 l 172 488 l 332 1043 l 332 1104 l 51 1104 l 51 1040 l 260 1040 "},"⁸":{"ha":388,"x_min":47,"x_max":340,"o":"m 193 1111 q 85 1070 122 1111 q 47 958 47 1029 l 47 938 q 63 860 47 893 q 114 811 79 826 q 63 760 78 794 q 47 681 47 725 l 47 635 q 84 522 47 564 q 193 481 121 481 q 303 522 267 481 q 340 635 340 564 l 340 681 q 324 760 340 725 q 272 811 308 794 q 324 860 308 826 q 340 938 340 893 l 340 958 q 303 1070 340 1029 q 193 1111 265 1111 m 193 1047 q 249 1026 229 1047 q 269 956 269 1004 l 269 926 q 249 861 269 882 q 193 840 229 840 q 117 926 117 840 l 117 956 q 137 1026 117 1004 q 193 1047 157 1047 m 193 776 q 269 689 269 776 l 269 636 q 193 544 269 544 q 117 636 117 544 l 117 689 q 193 776 117 776 "},"⁹":{"ha":385,"x_min":49,"x_max":332,"o":"m 190 1111 q 83 1068 118 1111 q 49 954 49 1025 l 49 861 q 76 754 49 794 q 163 714 104 714 q 263 776 235 714 l 263 643 q 188 544 263 544 q 133 567 151 544 q 115 632 115 590 l 115 647 l 49 647 l 49 636 q 83 523 49 565 q 189 481 118 481 q 298 524 264 481 q 332 640 332 567 l 332 954 q 297 1068 332 1025 q 190 1111 263 1111 m 190 1047 q 244 1024 226 1047 q 263 960 263 1001 l 263 867 q 244 801 263 825 q 190 778 226 778 q 136 801 154 778 q 118 867 118 825 l 118 960 q 136 1024 118 1001 q 190 1047 154 1047 "},"*":{"ha":549,"x_min":25,"x_max":524,"o":"m 307 708 l 524 751 l 497 836 l 294 749 l 318 968 l 229 968 l 254 749 l 51 838 l 25 753 l 240 708 l 94 546 l 165 493 l 274 686 l 383 493 l 454 546 l 307 708 "},"\\":{"ha":522,"x_min":22,"x_max":500,"o":"m 117 972 l 22 972 l 406 0 l 500 0 l 117 972 "},"•":{"ha":456,"x_min":82,"x_max":374,"o":"m 228 632 q 171 620 197 632 q 124 589 144 608 q 93 543 104 569 q 82 486 82 517 q 93 429 82 456 q 124 383 104 403 q 171 351 144 363 q 228 340 197 340 q 285 351 258 340 q 331 383 311 363 q 362 429 350 403 q 374 486 374 456 q 362 543 374 517 q 331 589 350 569 q 285 620 311 608 q 228 632 258 632 "},":":{"ha":215,"x_min":56,"x_max":160,"o":"m 160 664 l 56 664 l 56 529 l 160 529 l 160 664 m 160 135 l 56 135 l 56 0 l 160 0 l 160 135 "},",":{"ha":222,"x_min":63,"x_max":167,"o":"m 103 0 l 68 -122 l 113 -122 l 167 10 l 167 135 l 63 135 l 63 0 l 103 0 "},"…":{"ha":526,"x_min":56,"x_max":471,"o":"m 160 135 l 56 135 l 56 0 l 160 0 l 160 135 m 315 135 l 211 135 l 211 0 l 315 0 l 315 135 m 471 135 l 367 135 l 367 0 l 471 0 l 471 135 "},"!":{"ha":219,"x_min":56,"x_max":164,"o":"m 56 515 l 69 215 l 150 215 l 164 515 l 164 972 l 56 972 l 56 515 m 161 135 l 57 135 l 57 0 l 161 0 l 161 135 "},"¡":{"ha":219,"x_min":56,"x_max":164,"o":"m 161 972 l 57 972 l 57 839 l 161 839 l 161 972 m 56 429 l 56 0 l 164 0 l 164 429 l 150 757 l 69 757 l 56 429 "},"#":{"ha":572,"x_min":32,"x_max":540,"o":"m 454 656 l 532 656 l 540 733 l 463 733 l 488 972 l 399 972 l 374 733 l 246 733 l 271 972 l 182 972 l 157 733 l 76 733 l 68 656 l 150 656 l 119 371 l 40 371 l 32 293 l 113 293 l 81 0 l 169 0 l 201 293 l 328 293 l 297 0 l 386 0 l 417 293 l 494 293 l 503 371 l 425 371 l 454 656 m 365 656 l 336 371 l 208 371 l 239 656 l 365 656 "},".":{"ha":215,"x_min":56,"x_max":160,"o":"m 160 135 l 56 135 l 56 0 l 160 0 l 160 135 "},"·":{"ha":215,"x_min":56,"x_max":160,"o":"m 160 560 l 56 560 l 56 425 l 160 425 l 160 560 "},"?":{"ha":501,"x_min":38,"x_max":469,"o":"m 253 982 q 156 964 197 982 q 89 913 115 946 q 50 835 63 881 q 38 735 38 790 l 38 656 l 139 656 l 139 742 q 165 846 139 807 q 250 885 190 885 q 335 847 310 885 q 361 742 361 808 q 348 643 361 685 q 314 567 335 601 q 270 503 293 533 q 226 439 247 472 q 192 365 206 406 q 179 272 179 325 q 181 242 179 256 q 186 217 183 229 l 283 217 q 276 269 276 244 q 291 352 276 315 q 326 421 306 389 q 373 484 347 453 q 419 552 399 515 q 455 633 440 589 q 469 736 469 678 q 417 915 469 849 q 253 982 365 982 m 285 135 l 182 135 l 182 0 l 285 0 l 285 135 "},"¿":{"ha":501,"x_min":33,"x_max":465,"o":"m 321 972 l 217 972 l 217 838 l 321 838 l 321 972 m 315 756 l 219 756 q 225 703 225 733 q 211 619 225 656 q 176 551 197 583 q 129 488 154 519 q 83 420 104 457 q 47 339 61 383 q 33 236 33 294 q 85 57 33 124 q 249 -10 136 -10 q 413 58 361 -10 q 465 238 465 126 l 465 317 l 363 317 l 363 231 q 337 126 363 165 q 251 88 311 88 q 166 126 192 88 q 140 231 140 164 q 153 328 140 286 q 188 405 167 371 q 232 469 208 439 q 276 533 256 500 q 310 607 296 567 q 324 700 324 647 q 315 756 324 731 "},"\"":{"ha":368,"x_min":56,"x_max":313,"o":"m 160 972 l 56 972 l 69 710 l 144 710 l 160 972 m 313 972 l 208 972 l 222 710 l 297 710 l 313 972 "},"'":{"ha":210,"x_min":53,"x_max":157,"o":"m 157 972 l 53 972 l 67 710 l 142 710 l 157 972 "},";":{"ha":222,"x_min":63,"x_max":167,"o":"m 167 664 l 63 664 l 63 529 l 167 529 l 167 664 m 103 0 l 68 -122 l 113 -122 l 167 10 l 167 135 l 63 135 l 63 0 l 103 0 "},"/":{"ha":522,"x_min":22,"x_max":500,"o":"m 500 972 l 406 972 l 22 0 l 117 0 l 500 972 "},"_":{"ha":704,"x_min":18,"x_max":681,"o":"m 681 -14 l 18 -14 l 18 -93 l 681 -93 l 681 -14 "},"{":{"ha":357,"x_min":28,"x_max":324,"o":"m 297 883 l 324 883 l 324 972 l 260 972 q 160 933 193 972 q 121 824 126 894 l 111 635 q 94 560 108 583 q 28 532 79 536 l 28 440 q 94 413 79 436 q 111 338 108 389 l 121 149 q 160 39 126 78 q 260 0 193 0 l 324 0 l 324 89 l 297 89 q 237 115 253 89 q 218 196 221 140 l 210 353 q 205 396 208 375 q 192 434 201 417 q 165 465 182 451 q 119 486 147 479 q 165 507 147 493 q 192 538 182 521 q 205 576 201 556 q 210 619 208 597 l 218 776 q 237 858 221 832 q 297 883 253 883 "},"}":{"ha":357,"x_min":33,"x_max":328,"o":"m 97 972 l 33 972 l 33 883 l 60 883 q 120 858 104 883 q 139 776 136 832 l 147 619 q 152 576 149 597 q 165 538 156 556 q 192 507 175 521 q 238 486 210 493 q 192 465 210 479 q 165 434 175 451 q 152 396 156 417 q 147 353 149 375 l 139 196 q 120 115 136 140 q 60 89 104 89 l 33 89 l 33 0 l 97 0 q 197 39 163 0 q 235 149 231 78 l 246 338 q 251 381 247 363 q 263 413 254 400 q 287 431 271 425 q 328 440 303 438 l 328 532 q 287 540 303 533 q 263 560 271 547 q 251 591 254 572 q 246 635 247 610 l 235 824 q 197 933 231 894 q 97 972 163 972 "},"[":{"ha":336,"x_min":63,"x_max":297,"o":"m 297 89 l 169 89 l 169 883 l 297 883 l 297 972 l 63 972 l 63 0 l 297 0 l 297 89 "},"]":{"ha":336,"x_min":39,"x_max":274,"o":"m 165 89 l 39 89 l 39 0 l 274 0 l 274 972 l 39 972 l 39 883 l 165 883 l 165 89 "},"(":{"ha":335,"x_min":63,"x_max":301,"o":"m 269 883 l 301 883 l 301 972 l 263 972 q 107 920 151 972 q 63 758 63 868 l 63 214 q 107 52 63 104 q 263 0 151 0 l 301 0 l 301 89 l 269 89 q 190 119 211 89 q 169 214 169 150 l 169 758 q 191 853 169 822 q 269 883 213 883 "},")":{"ha":335,"x_min":33,"x_max":272,"o":"m 72 972 l 33 972 l 33 883 l 65 883 q 144 853 122 883 q 165 758 165 822 l 165 214 q 144 119 165 150 q 65 89 124 89 l 33 89 l 33 0 l 72 0 q 228 52 183 0 q 272 214 272 104 l 272 758 q 228 920 272 868 q 72 972 183 972 "},"—":{"ha":1157,"x_min":18,"x_max":1139,"o":"m 18 531 l 18 442 l 1139 442 l 1139 531 l 18 531 "},"–":{"ha":636,"x_min":18,"x_max":618,"o":"m 18 531 l 18 442 l 618 442 l 618 531 l 18 531 "},"‒":{"ha":590,"x_min":18,"x_max":572,"o":"m 18 531 l 18 442 l 572 442 l 572 531 l 18 531 "},"-":{"ha":368,"x_min":51,"x_max":317,"o":"m 51 535 l 51 438 l 317 438 l 317 535 l 51 535 "},"­":{"ha":368,"x_min":51,"x_max":317,"o":"m 51 535 l 51 438 l 317 438 l 317 535 l 51 535 "},"«":{"ha":444,"x_min":33,"x_max":411,"o":"m 33 488 l 121 125 l 219 125 l 132 488 l 219 836 l 121 836 l 33 488 m 225 488 l 314 125 l 411 125 l 324 488 l 411 836 l 314 836 l 225 488 "},"»":{"ha":444,"x_min":33,"x_max":411,"o":"m 121 488 l 33 125 l 131 125 l 219 488 l 131 836 l 33 836 l 121 488 m 313 488 l 225 125 l 322 125 l 411 488 l 322 836 l 225 836 l 313 488 "},"‹":{"ha":254,"x_min":33,"x_max":222,"o":"m 33 488 l 119 115 l 222 115 l 136 488 l 222 844 l 119 844 l 33 488 "},"›":{"ha":254,"x_min":33,"x_max":222,"o":"m 118 488 l 33 117 l 135 117 l 222 488 l 135 844 l 33 844 l 118 488 "},"„":{"ha":381,"x_min":63,"x_max":325,"o":"m 113 -122 l 167 10 l 167 135 l 63 135 l 63 0 l 103 0 l 68 -122 l 113 -122 m 272 -122 l 325 10 l 325 135 l 221 135 l 221 0 l 261 0 l 226 -122 l 272 -122 "},"“":{"ha":376,"x_min":56,"x_max":314,"o":"m 108 972 l 56 840 l 56 715 l 160 715 l 160 850 l 119 850 l 154 972 l 108 972 m 264 972 l 211 840 l 211 715 l 314 715 l 314 850 l 275 850 l 308 972 l 264 972 "},"”":{"ha":376,"x_min":56,"x_max":314,"o":"m 106 715 l 158 847 l 158 972 l 56 972 l 56 838 l 94 838 l 61 715 l 106 715 m 261 715 l 314 847 l 314 972 l 210 972 l 210 838 l 250 838 l 215 715 l 261 715 "},"‘":{"ha":222,"x_min":56,"x_max":160,"o":"m 108 972 l 56 840 l 56 715 l 160 715 l 160 850 l 119 850 l 154 972 l 108 972 "},"’":{"ha":222,"x_min":63,"x_max":167,"o":"m 113 715 l 167 849 l 167 972 l 63 972 l 63 838 l 103 838 l 68 715 l 113 715 "},"‚":{"ha":222,"x_min":63,"x_max":167,"o":"m 113 -122 l 167 10 l 167 135 l 63 135 l 63 0 l 103 0 l 68 -122 l 113 -122 "},"Ă":{"ha":586,"x_min":28,"x_max":557,"o":"m 436 1158 l 371 1158 q 346 1102 368 1118 q 290 1086 324 1086 q 237 1102 258 1086 q 213 1158 215 1118 l 147 1158 q 185 1056 149 1093 q 290 1018 222 1018 q 397 1056 358 1018 q 436 1158 436 1093 m 165 196 l 411 196 l 449 0 l 557 0 l 371 972 l 214 972 l 28 0 l 128 0 l 165 196 m 179 289 l 286 850 l 396 289 l 179 289 "}," ":{"ha":215,"x_min":0,"x_max":0,"o":""},"€":{"ha":551,"x_min":18,"x_max":507,"o":"m 79 738 l 79 593 l 18 593 l 18 538 l 79 538 l 79 442 l 18 442 l 18 385 l 79 385 l 79 235 q 131 58 79 125 q 293 -10 182 -10 q 456 58 404 -10 q 507 235 507 125 l 507 304 l 406 304 l 406 229 q 380 126 406 164 q 296 89 354 89 q 212 126 238 89 q 186 229 186 164 l 186 385 l 428 385 l 428 442 l 186 442 l 186 538 l 428 538 l 428 593 l 186 593 l 186 743 q 212 846 186 808 q 296 883 238 883 q 380 846 354 883 q 406 743 406 808 l 406 675 l 507 675 l 507 738 q 494 838 507 793 q 456 915 482 883 q 389 965 429 947 q 293 982 349 982 q 197 965 238 982 q 131 915 157 947 q 92 838 104 883 q 79 738 79 793 "},"¢":{"ha":538,"x_min":51,"x_max":489,"o":"m 313 918 l 313 986 l 224 986 l 224 917 q 93 840 135 904 q 51 676 51 775 l 51 296 q 93 133 51 197 q 224 56 135 68 l 224 -14 l 313 -14 l 313 56 q 447 131 404 67 q 489 296 489 196 l 489 382 l 388 382 l 388 289 q 360 186 388 222 q 274 150 332 150 q 187 187 214 150 q 160 289 160 224 l 160 683 q 187 787 160 750 q 274 824 214 824 q 360 788 332 824 q 388 686 388 753 l 388 625 l 489 625 l 489 681 q 447 844 489 781 q 313 918 404 907 "},"¤":{"ha":517,"x_min":49,"x_max":469,"o":"m 397 581 l 469 653 l 425 696 l 354 625 q 258 656 311 656 q 164 625 206 656 l 92 696 l 49 653 l 119 581 q 89 486 89 542 q 119 390 89 432 l 49 319 l 92 276 l 163 346 q 258 317 207 317 q 310 324 285 317 q 354 346 335 332 l 425 276 l 469 319 l 397 390 q 428 486 428 432 q 397 581 428 539 m 258 589 q 332 559 301 589 q 363 486 363 529 q 332 413 363 443 q 258 383 301 383 q 185 413 215 383 q 156 486 156 443 q 185 559 156 529 q 258 589 215 589 "},"$":{"ha":538,"x_min":50,"x_max":488,"o":"m 314 968 l 314 1046 l 225 1046 l 225 968 q 96 892 138 954 q 54 729 54 829 q 78 613 54 661 q 139 528 103 565 q 217 462 175 492 q 294 400 258 432 q 355 329 331 368 q 379 236 379 290 q 352 134 379 169 q 265 99 325 99 q 179 134 207 99 q 151 236 151 169 l 151 303 l 50 303 l 50 243 q 92 79 50 143 q 225 3 133 15 l 225 -71 l 314 -71 l 314 3 q 445 80 403 15 q 488 243 488 144 q 463 359 488 311 q 403 444 439 407 q 324 510 367 481 q 246 572 282 540 q 185 643 210 604 q 161 736 161 682 q 188 838 161 801 q 272 875 214 875 q 358 838 331 875 q 385 736 385 801 l 385 703 l 486 703 l 486 729 q 444 892 486 828 q 314 968 403 956 "},"£":{"ha":543,"x_min":46,"x_max":493,"o":"m 278 982 q 113 915 165 982 q 61 736 61 849 q 73 628 61 674 q 101 544 85 582 q 136 472 118 507 q 167 397 154 438 l 65 397 l 65 313 l 181 313 q 173 236 183 271 q 144 174 163 201 q 99 126 125 146 q 46 94 74 106 l 46 0 l 489 0 l 489 99 l 182 99 q 257 205 235 154 q 278 313 279 256 l 457 313 l 457 397 l 271 397 q 242 476 260 440 q 209 549 225 511 q 181 632 193 586 q 169 742 169 678 q 195 846 169 808 q 281 883 221 883 q 365 845 340 883 q 390 740 390 807 l 390 657 l 493 657 l 493 735 q 481 835 493 790 q 442 913 468 881 q 374 964 415 946 q 278 982 333 982 "},"₹":{"ha":539,"x_min":43,"x_max":496,"o":"m 340 888 l 496 888 l 496 972 l 44 972 l 44 888 l 154 888 q 267 851 229 888 q 306 746 306 815 l 44 746 l 44 661 l 306 661 q 268 565 304 597 q 154 532 232 532 l 43 532 l 43 449 l 378 0 l 494 0 l 158 449 l 182 449 q 343 506 282 449 q 411 661 404 564 l 496 661 l 496 746 l 411 746 q 392 827 408 789 q 340 888 376 865 "},"¥":{"ha":575,"x_min":25,"x_max":550,"o":"m 342 322 l 481 322 l 481 379 l 349 379 l 550 972 l 447 972 l 292 497 l 138 972 l 25 972 l 225 379 l 94 379 l 94 322 l 233 322 l 233 240 l 94 240 l 94 185 l 233 185 l 233 0 l 342 0 l 342 185 l 481 185 l 481 240 l 342 240 l 342 322 "},"≈":{"ha":550,"x_min":25,"x_max":525,"o":"m 174 683 q 100 658 135 682 q 25 572 65 633 l 78 524 q 126 582 106 564 q 174 600 146 600 q 224 587 199 600 q 274 558 249 574 q 326 528 300 542 q 382 515 353 515 q 453 540 421 517 q 525 622 486 563 l 472 675 q 428 617 446 636 q 383 597 410 599 q 335 610 360 597 q 284 640 310 624 q 231 669 258 656 q 174 683 203 683 m 174 456 q 100 431 135 456 q 25 346 65 407 l 78 297 q 126 355 106 336 q 174 374 146 374 q 224 360 199 374 q 274 331 249 347 q 326 302 300 315 q 382 289 353 289 q 453 313 421 289 q 525 396 486 336 l 472 447 q 428 390 446 410 q 383 371 410 371 q 335 384 360 371 q 284 413 310 397 q 231 442 258 429 q 174 456 203 456 "},"~":{"ha":550,"x_min":25,"x_max":525,"o":"m 174 569 q 99 545 133 569 q 25 460 65 521 l 78 410 q 126 469 106 450 q 174 488 146 488 q 223 474 199 488 q 273 444 247 460 q 326 415 299 428 q 382 401 353 401 q 453 426 421 403 q 525 508 486 449 l 472 561 q 427 503 446 522 q 382 485 408 485 q 334 498 358 485 q 284 527 310 511 q 231 556 258 543 q 174 569 203 569 "},"÷":{"ha":486,"x_min":42,"x_max":444,"o":"m 294 732 l 190 732 l 190 597 l 294 597 l 294 732 m 444 525 l 42 525 l 42 447 l 444 447 l 444 525 m 294 375 l 190 375 l 190 240 l 294 240 l 294 375 "},"=":{"ha":486,"x_min":51,"x_max":435,"o":"m 435 633 l 51 633 l 51 556 l 435 556 l 435 633 m 435 436 l 51 436 l 51 358 l 435 358 l 435 436 "},">":{"ha":532,"x_min":56,"x_max":486,"o":"m 56 350 l 56 271 l 486 447 l 486 525 l 56 701 l 56 622 l 385 486 l 56 350 "},"∞":{"ha":810,"x_min":54,"x_max":764,"o":"m 581 671 l 563 671 q 468 653 507 671 q 411 593 429 635 q 351 653 392 636 q 256 671 310 671 l 239 671 q 103 627 153 671 q 54 497 54 583 q 103 368 54 411 q 239 325 153 325 l 256 325 q 351 342 310 325 q 411 401 392 358 q 468 343 429 361 q 563 325 507 325 l 581 325 q 715 368 667 325 q 764 497 764 411 q 715 627 764 583 q 581 671 667 671 m 240 596 l 265 596 q 347 569 321 596 q 374 497 374 543 q 347 426 374 451 q 265 400 321 400 l 240 400 q 156 427 181 401 q 131 497 131 453 q 156 569 131 542 q 240 596 181 596 m 551 596 l 576 596 q 660 569 632 596 q 688 497 688 543 q 660 426 688 451 q 576 400 632 400 l 551 400 q 467 427 490 401 q 444 497 444 453 q 467 569 444 542 q 551 596 490 596 "},"<":{"ha":532,"x_min":46,"x_max":476,"o":"m 476 271 l 476 350 l 147 486 l 476 622 l 476 701 l 46 525 l 46 447 l 476 271 "},"¬":{"ha":539,"x_min":42,"x_max":497,"o":"m 42 447 l 419 447 l 419 260 l 497 260 l 497 525 l 42 525 l 42 447 "},"−":{"ha":544,"x_min":42,"x_max":503,"o":"m 503 525 l 42 525 l 42 447 l 503 447 l 503 525 "},"×":{"ha":508,"x_min":54,"x_max":454,"o":"m 401 286 l 454 339 l 307 486 l 454 632 l 401 685 l 254 539 l 107 685 l 54 632 l 200 486 l 54 339 l 107 286 l 254 433 l 401 286 "},"%":{"ha":856,"x_min":50,"x_max":806,"o":"m 189 978 q 84 935 118 978 q 50 821 50 892 l 50 514 q 84 400 50 443 q 189 357 118 357 q 294 400 260 357 q 328 514 328 443 l 328 821 q 294 935 328 892 q 189 978 260 978 m 649 972 l 583 972 l 200 0 l 265 0 l 649 972 m 189 914 q 242 890 225 914 q 258 825 258 865 l 258 508 q 242 444 258 468 q 189 421 225 421 q 135 444 151 421 q 119 508 119 468 l 119 825 q 135 890 119 865 q 189 914 151 914 m 667 614 q 562 572 596 614 q 528 458 528 529 l 528 153 q 562 39 528 82 q 667 -4 596 -4 q 772 39 739 -4 q 806 153 806 82 l 806 458 q 772 572 806 529 q 667 614 739 614 m 667 550 q 719 526 703 550 q 736 463 736 503 l 736 147 q 719 83 736 107 q 667 58 703 58 q 614 83 631 58 q 597 147 597 107 l 597 463 q 614 526 597 503 q 667 550 631 550 "},"‰":{"ha":1204,"x_min":50,"x_max":1154,"o":"m 189 978 q 84 935 118 978 q 50 821 50 892 l 50 514 q 84 400 50 443 q 189 357 118 357 q 294 400 260 357 q 328 514 328 443 l 328 821 q 294 935 328 892 q 189 978 260 978 m 649 972 l 583 972 l 200 0 l 265 0 l 649 972 m 189 914 q 242 890 225 914 q 258 825 258 865 l 258 508 q 242 444 258 468 q 189 421 225 421 q 135 444 151 421 q 119 508 119 468 l 119 825 q 135 890 119 865 q 189 914 151 914 m 667 614 q 562 572 596 614 q 528 458 528 529 l 528 153 q 562 39 528 82 q 667 -4 596 -4 q 772 39 739 -4 q 806 153 806 82 l 806 458 q 772 572 806 529 q 667 614 739 614 m 1015 614 q 910 572 944 614 q 876 458 876 529 l 876 153 q 910 39 876 82 q 1015 -4 944 -4 q 1121 39 1088 -4 q 1154 153 1154 82 l 1154 458 q 1121 572 1154 529 q 1015 614 1088 614 m 667 550 q 719 526 703 550 q 736 463 736 503 l 736 147 q 719 83 736 107 q 667 58 703 58 q 614 83 631 58 q 597 147 597 107 l 597 463 q 614 526 597 503 q 667 550 631 550 m 1015 550 q 1068 526 1051 550 q 1085 463 1085 503 l 1085 147 q 1068 83 1085 107 q 1015 58 1051 58 q 963 83 979 58 q 947 147 947 107 l 947 463 q 963 526 947 503 q 1015 550 979 550 "},"+":{"ha":544,"x_min":42,"x_max":503,"o":"m 311 447 l 503 447 l 503 525 l 311 525 l 311 718 l 233 718 l 233 525 l 42 525 l 42 447 l 233 447 l 233 251 l 311 251 l 311 447 "},"±":{"ha":544,"x_min":51,"x_max":493,"o":"m 233 329 l 51 329 l 51 251 l 493 251 l 493 329 l 311 329 l 311 467 l 493 467 l 493 544 l 311 544 l 311 718 l 233 718 l 233 544 l 51 544 l 51 467 l 233 467 l 233 329 "},"µ":{"ha":553,"x_min":54,"x_max":496,"o":"m 397 100 l 397 0 l 496 0 l 496 694 l 388 694 l 388 231 q 360 127 388 164 q 275 90 333 90 q 190 127 217 90 q 163 231 163 164 l 163 694 l 54 694 l 54 -128 l 163 -128 l 163 54 q 197 8 174 26 q 257 -10 221 -10 q 340 20 303 -10 q 397 100 378 50 "},"&":{"ha":567,"x_min":57,"x_max":540,"o":"m 289 874 l 443 874 l 443 972 l 286 972 q 113 910 169 972 q 57 732 57 849 l 57 710 q 85 584 57 636 q 172 511 113 532 q 84 434 111 488 q 57 308 57 381 l 57 214 q 99 50 57 110 q 233 -10 142 -10 q 326 14 286 -10 q 386 85 365 38 q 392 35 388 53 q 404 0 396 18 l 514 0 q 496 58 499 28 q 493 124 493 88 l 493 458 l 540 458 l 540 556 l 493 556 l 493 664 l 386 664 l 386 556 l 276 556 q 194 592 224 558 q 164 688 164 625 l 164 736 q 195 840 164 807 q 289 874 226 874 m 285 458 l 386 458 l 386 200 q 353 116 383 143 q 276 89 324 89 q 192 123 219 89 q 164 222 164 157 l 164 311 q 285 458 164 454 "},"^":{"ha":560,"x_min":38,"x_max":522,"o":"m 125 542 l 279 874 l 435 542 l 522 542 l 319 972 l 240 972 l 38 542 l 125 542 "},"@":{"ha":957,"x_min":40,"x_max":922,"o":"m 543 1021 q 319 970 414 1021 q 163 834 225 919 q 70 636 100 749 q 40 400 40 524 q 66 206 40 293 q 145 56 92 118 q 281 -40 199 -6 q 479 -74 364 -74 q 619 -58 553 -74 q 750 1 686 -43 l 758 97 q 625 28 692 46 q 485 10 558 10 q 328 36 394 10 q 218 112 261 63 q 154 233 175 161 q 133 394 133 304 q 158 610 133 511 q 233 782 182 710 q 360 895 283 854 q 540 936 436 936 q 674 914 618 936 q 767 850 731 892 q 822 749 804 808 q 839 618 839 690 q 832 507 839 567 q 808 397 825 447 q 765 312 792 346 q 697 278 738 278 q 663 296 671 278 q 657 338 654 314 l 699 736 l 604 736 l 594 650 q 552 718 582 694 q 475 742 522 742 q 355 690 397 744 q 303 539 313 635 l 288 400 q 308 248 278 307 q 415 188 338 189 q 502 211 467 186 q 558 282 538 236 q 668 188 565 188 q 763 217 717 188 q 844 301 808 246 q 901 438 879 357 q 922 621 922 518 q 902 780 922 707 q 838 906 882 853 q 720 990 793 960 q 543 1021 647 1021 m 503 647 q 569 616 549 647 q 583 536 589 585 l 569 403 q 537 312 563 346 q 463 279 511 278 q 395 315 414 281 q 383 404 376 350 l 396 529 q 428 617 403 586 q 503 647 454 649 "},"|":{"ha":518,"x_min":219,"x_max":308,"o":"m 308 1033 l 219 1033 l 219 -61 l 308 -61 l 308 1033 "},"¦":{"ha":519,"x_min":219,"x_max":308,"o":"m 219 1033 l 219 569 l 308 569 l 308 1033 l 219 1033 m 219 403 l 219 -61 l 308 -61 l 308 403 l 219 403 "},"©":{"ha":1031,"x_min":38,"x_max":993,"o":"m 515 978 q 325 941 413 978 q 174 838 238 904 q 74 682 110 772 q 38 486 38 592 q 74 290 38 379 q 174 134 110 200 q 325 31 238 68 q 515 -6 413 -6 q 706 31 618 -6 q 857 134 793 68 q 957 290 921 200 q 993 486 993 379 q 957 682 993 592 q 857 838 921 772 q 706 941 793 904 q 515 978 618 978 m 515 908 q 678 876 603 908 q 807 788 753 844 q 892 654 861 732 q 922 486 922 576 q 892 318 922 396 q 807 184 861 240 q 678 96 753 128 q 515 64 603 64 q 353 96 428 64 q 224 184 278 128 q 139 318 169 240 q 108 486 108 396 q 139 654 108 576 q 224 788 169 732 q 353 876 278 844 q 515 908 428 908 m 510 792 q 394 745 431 792 q 358 619 358 699 l 358 351 q 394 227 358 274 q 510 181 431 181 q 624 227 588 181 q 661 351 661 274 l 661 415 l 589 415 l 589 347 q 570 277 589 303 q 511 251 551 251 q 452 277 471 251 q 433 347 433 303 l 433 625 q 452 695 433 669 q 511 721 471 721 q 570 695 551 721 q 589 625 589 669 l 589 578 l 661 578 l 661 619 q 624 745 661 699 q 510 792 588 792 "},"†":{"ha":547,"x_min":42,"x_max":507,"o":"m 318 713 l 318 972 l 229 972 l 229 713 l 42 713 l 42 628 l 229 628 l 229 -90 l 318 -90 l 318 628 l 507 628 l 507 713 l 318 713 "},"‡":{"ha":547,"x_min":42,"x_max":507,"o":"m 318 713 l 318 972 l 229 972 l 229 713 l 42 713 l 42 628 l 229 628 l 229 256 l 42 256 l 42 171 l 229 171 l 229 -90 l 318 -90 l 318 171 l 507 171 l 507 256 l 318 256 l 318 628 l 507 628 l 507 713 l 318 713 "},"°":{"ha":304,"x_min":32,"x_max":272,"o":"m 151 983 q 105 974 126 983 q 67 949 83 965 q 42 910 51 932 q 32 864 32 889 q 42 817 32 839 q 67 779 51 796 q 105 753 83 763 q 151 744 126 744 q 237 779 201 744 q 272 864 272 814 q 237 949 272 914 q 151 983 201 983 m 151 932 q 200 913 179 932 q 221 864 221 893 q 200 816 221 836 q 151 796 179 796 q 103 816 124 796 q 83 864 83 836 q 103 913 83 893 q 151 932 124 932 "},"¶":{"ha":550,"x_min":26,"x_max":486,"o":"m 282 893 l 407 893 l 407 -87 l 486 -87 l 486 972 l 236 972 q 75 910 124 972 q 26 738 26 849 l 26 618 q 69 450 26 513 q 204 385 113 388 l 203 -87 l 282 -87 l 282 893 "},"®":{"ha":1031,"x_min":38,"x_max":993,"o":"m 515 978 q 325 941 413 978 q 174 838 238 904 q 74 682 110 772 q 38 486 38 592 q 74 290 38 379 q 174 134 110 200 q 325 31 238 68 q 515 -6 413 -6 q 706 31 618 -6 q 857 134 793 68 q 957 290 921 200 q 993 486 993 379 q 957 682 993 592 q 857 838 921 772 q 706 941 793 904 q 515 978 618 978 m 515 908 q 678 876 603 908 q 807 788 753 844 q 892 654 861 732 q 922 486 922 576 q 892 318 922 396 q 807 184 861 240 q 678 96 753 128 q 515 64 603 64 q 353 96 428 64 q 224 184 278 128 q 139 318 169 240 q 108 486 108 396 q 139 654 108 576 q 224 788 169 732 q 353 876 278 844 q 515 908 428 908 m 522 783 l 371 783 l 371 189 l 446 189 l 446 435 l 497 435 q 572 414 546 435 q 599 335 599 393 l 599 271 q 601 220 599 236 q 610 189 603 204 l 689 189 q 676 227 678 207 q 674 271 674 247 l 674 335 q 656 423 674 388 q 593 474 638 458 q 655 524 636 489 q 674 614 674 560 l 674 628 q 638 744 674 704 q 522 783 601 783 m 508 506 l 446 506 l 446 714 l 518 714 q 580 690 563 714 q 597 619 597 665 l 597 597 q 574 525 597 544 q 508 506 551 506 "},"§":{"ha":538,"x_min":51,"x_max":486,"o":"m 269 982 q 111 931 169 982 q 51 797 53 881 q 61 733 51 761 q 88 684 71 706 q 126 646 104 663 q 174 615 149 629 q 87 547 121 592 q 53 440 53 501 q 77 339 53 379 q 138 272 101 299 q 216 227 174 246 q 294 190 258 208 q 354 149 331 172 q 378 90 378 126 q 344 17 376 42 q 267 -7 311 -7 q 186 21 218 -7 q 154 100 154 49 l 154 143 l 51 143 l 51 86 q 110 -48 51 1 q 269 -97 168 -97 q 426 -47 367 -97 q 486 86 485 4 q 477 149 486 121 q 452 198 468 176 q 415 236 436 219 q 369 265 393 253 q 453 337 422 292 q 485 442 485 382 q 460 543 485 503 q 400 611 436 583 q 322 657 364 639 q 243 694 279 675 q 183 735 207 713 q 160 793 158 758 q 192 867 160 843 q 272 892 225 892 q 351 863 321 892 q 381 785 381 833 l 381 761 l 483 761 l 483 799 q 426 932 483 882 q 269 982 369 982 m 265 572 q 347 520 313 550 q 382 439 382 490 q 353 354 382 389 q 279 308 324 319 q 233 331 256 318 q 194 359 211 343 q 166 396 176 375 q 156 444 156 417 q 188 530 156 494 q 265 572 221 565 "},"™":{"ha":810,"x_min":17,"x_max":768,"o":"m 131 478 l 200 478 l 200 908 l 313 908 l 313 972 l 17 972 l 17 908 l 131 908 l 131 478 m 606 481 l 701 868 l 701 478 l 768 478 l 768 972 l 671 972 l 574 586 l 472 972 l 375 972 l 375 478 l 438 478 l 438 865 l 539 481 l 606 481 "},"℗":{"ha":1031,"x_min":38,"x_max":993,"o":"m 515 978 q 325 941 413 978 q 174 838 238 904 q 74 682 110 772 q 38 486 38 592 q 74 290 38 381 q 174 135 110 200 q 325 32 238 69 q 515 -6 413 -6 q 706 32 618 -6 q 857 135 793 69 q 957 290 921 200 q 993 486 993 381 q 957 682 993 592 q 857 838 921 772 q 706 941 793 904 q 515 978 618 978 m 515 908 q 678 876 603 908 q 807 788 753 844 q 892 654 861 732 q 922 486 922 576 q 892 318 922 396 q 807 184 861 240 q 678 96 753 128 q 515 64 603 64 q 353 96 428 64 q 224 184 278 128 q 139 318 169 240 q 108 486 108 396 q 139 654 108 576 q 224 788 169 732 q 353 876 278 844 q 515 908 428 908 m 546 771 l 394 771 l 394 176 l 469 176 l 469 393 l 540 393 q 659 432 622 393 q 696 550 696 471 l 696 614 q 661 730 696 689 q 546 771 626 771 m 536 464 l 469 464 l 469 701 l 542 701 q 603 676 586 701 q 621 606 621 650 l 621 558 q 601 487 621 510 q 536 464 581 464 "},"´":{"ha":310,"x_min":43,"x_max":247,"o":"m 247 1178 l 140 1178 l 43 1035 l 118 1035 l 247 1178 "},"˘":{"ha":350,"x_min":31,"x_max":321,"o":"m 321 1158 l 254 1158 q 230 1102 251 1118 q 174 1086 208 1086 q 120 1102 142 1086 q 96 1158 99 1118 l 31 1158 q 69 1056 32 1093 q 174 1018 106 1018 q 281 1056 243 1018 q 321 1158 319 1093 "},"ˇ":{"ha":347,"x_min":6,"x_max":342,"o":"m 100 1178 l 6 1178 l 126 1039 l 222 1039 l 342 1178 l 247 1178 l 174 1094 l 100 1178 "},"¸":{"ha":346,"x_min":43,"x_max":301,"o":"m 199 -54 l 199 13 l 150 13 l 150 -75 l 161 -75 q 208 -83 189 -75 q 226 -119 226 -92 q 210 -155 226 -144 q 171 -165 193 -165 q 134 -156 151 -164 q 117 -124 117 -147 l 117 -114 l 43 -114 l 43 -125 q 53 -165 43 -149 q 81 -190 64 -181 q 122 -203 99 -199 q 171 -207 146 -207 q 221 -203 197 -207 q 263 -191 244 -200 q 291 -165 281 -182 q 301 -122 301 -149 q 274 -68 301 -82 q 199 -54 246 -54 "},"ˆ":{"ha":347,"x_min":6,"x_max":342,"o":"m 100 1039 l 174 1121 l 247 1039 l 342 1039 l 222 1178 l 126 1178 l 6 1039 l 100 1039 "},"¨":{"ha":304,"x_min":49,"x_max":256,"o":"m 143 1154 l 49 1154 l 49 1029 l 143 1029 l 143 1154 m 256 1154 l 161 1154 l 161 1029 l 256 1029 l 256 1154 "},"˙":{"ha":275,"x_min":90,"x_max":185,"o":"m 185 1157 l 90 1157 l 90 1032 l 185 1032 l 185 1157 "},"`":{"ha":310,"x_min":60,"x_max":268,"o":"m 172 1178 l 60 1178 l 189 1035 l 268 1035 l 172 1178 "},"˝":{"ha":336,"x_min":-6,"x_max":324,"o":"m 175 1178 l 75 1178 l -6 1035 l 64 1035 l 175 1178 m 324 1178 l 224 1178 l 144 1035 l 213 1035 l 324 1178 "},"¯":{"ha":349,"x_min":28,"x_max":322,"o":"m 322 1111 l 28 1111 l 28 1033 l 322 1033 l 322 1111 "},"˛":{"ha":315,"x_min":61,"x_max":253,"o":"m 201 4 l 154 4 q 85 -53 110 -21 q 63 -121 61 -86 q 92 -180 63 -161 q 167 -199 121 -199 q 212 -195 192 -199 q 253 -182 232 -192 l 253 -125 q 229 -134 242 -131 q 197 -137 217 -137 q 162 -128 178 -137 q 146 -96 146 -118 q 158 -47 144 -75 q 201 4 172 -18 "},"˚":{"ha":325,"x_min":60,"x_max":264,"o":"m 163 1232 q 90 1203 119 1232 q 60 1131 60 1174 q 90 1058 60 1088 q 163 1029 119 1029 q 235 1058 206 1029 q 264 1131 264 1088 q 235 1203 264 1174 q 163 1232 206 1232 m 163 1181 q 198 1167 183 1181 q 213 1131 213 1153 q 198 1094 213 1108 q 163 1081 183 1081 q 126 1094 140 1081 q 111 1131 111 1108 q 126 1167 111 1153 q 163 1181 140 1181 "},"˜":{"ha":356,"x_min":8,"x_max":347,"o":"m 347 1114 l 294 1150 q 270 1119 283 1128 q 239 1110 257 1110 q 209 1116 224 1110 q 180 1130 194 1122 q 149 1144 165 1138 q 111 1150 132 1150 q 53 1131 79 1150 q 8 1069 26 1113 l 63 1033 q 88 1065 74 1057 q 121 1074 101 1074 q 151 1067 138 1074 q 181 1053 165 1061 q 212 1040 196 1046 q 249 1033 228 1033 q 306 1053 281 1033 q 347 1114 332 1072 "},"":{"ha":0,"x_min":99,"x_max":190,"o":"m 142 -246 l 190 -158 l 190 -46 l 99 -46 l 99 -168 l 133 -168 l 101 -246 l 142 -246 "},"ʼ":{"ha":222,"x_min":63,"x_max":167,"o":"m 113 715 l 167 849 l 167 972 l 63 972 l 63 838 l 103 838 l 68 715 l 113 715 "},"A":{"ha":586,"x_min":28,"x_max":557,"o":"m 165 196 l 411 196 l 449 0 l 557 0 l 371 972 l 214 972 l 28 0 l 128 0 l 165 196 m 179 289 l 286 850 l 396 289 l 179 289 "},"Á":{"ha":586,"x_min":28,"x_max":557,"o":"m 424 1167 l 317 1167 l 219 1024 l 296 1024 l 424 1167 m 165 196 l 411 196 l 449 0 l 557 0 l 371 972 l 214 972 l 28 0 l 128 0 l 165 196 m 179 289 l 286 850 l 396 289 l 179 289 "}}}
